<?xml version="1.0" encoding="UTF-8" standalone="no"?>
<svg width="1403px" height="388px" viewBox="0 0 1403 388" version="1.1" xmlns="http://www.w3.org/2000/svg" xmlns:xlink="http://www.w3.org/1999/xlink">
    <!-- Generator: Sketch 46.2 (44496) - http://www.bohemiancoding.com/sketch -->
    <title>waves</title>
    <desc>Created with Sketch.</desc>
    <defs></defs>
    <g id="Symbols" stroke="none" stroke-width="1" fill="none" fill-rule="evenodd">
        <g id="find-an-associate">
            <g id="waves">
                <g>
                    <rect id="Rectangle-3" fill="#2D7CB7" x="0" y="0" width="1401" height="388"></rect>
                    <path d="M0,308.5 C77.6195413,274.566367 144.479383,255.797063 200.579526,252.192089 C284.729739,246.784628 285.455353,288.832261 400.866943,281.683987 C516.278534,274.535712 525.483792,235.842888 601.154361,227.381592 C676.824931,218.920296 690.83446,225.708749 801.441779,236.892697 C912.049099,248.076646 920.054033,267.084729 1001.7292,267.885317 C1083.40436,268.685904 1137.09482,178.371523 1202.01661,152.779635 C1245.29781,135.718376 1312.06029,121.451987 1402.30403,109.980469 L1402.30403,388 L0,388 L0,308.5 Z" id="Path-3-Copy" fill="#FFFFFF" opacity="0.100000001"></path>
                    <path d="M0,356.826228 C71.3718325,341.630105 138.134305,333.499885 200.287418,332.435567 C293.517087,330.839091 300.431127,349.966736 400.574836,349.966736 C500.718545,349.966736 488.293971,345.75064 600.862254,332.435567 C713.430537,319.120494 720.974918,302.787759 801.149671,302.584978 C881.324425,302.382198 885.842722,313.010488 1001.43709,312.829463 C1117.03146,312.648438 1066.58051,319.158157 1201.72451,286.827676 C1291.82051,265.274022 1358.58298,241.99813 1402.01193,217 L1402.01193,387.764395 L0,387.764395 L0,356.826228 Z" id="Path-3" fill="#FFFFFF" opacity="0.100000001"></path>
                </g>
            </g>
        </g>
    </g>
</svg>