<svg id="Layer_1" data-name="Layer 1" xmlns="http://www.w3.org/2000/svg" xmlns:xlink="http://www.w3.org/1999/xlink" viewBox="0 0 712.62 179.64">
  <defs>
    <style>
      .cls-1, .cls-10, .cls-11, .cls-23, .cls-24, .cls-25, .cls-26, .cls-4, .cls-7 {
        fill: none;
      }

      .cls-2 {
        fill: #ffc8bb;
      }

      .cls-3 {
        clip-path: url(#clip-path);
      }

      .cls-4 {
        stroke: #e63c2f;
      }

      .cls-10, .cls-11, .cls-23, .cls-24, .cls-25, .cls-26, .cls-4, .cls-7 {
        stroke-miterlimit: 10;
      }

      .cls-10, .cls-4, .cls-7 {
        stroke-width: 0.57px;
      }

      .cls-5 {
        fill: #ffebbd;
      }

      .cls-6 {
        clip-path: url(#clip-path-2);
      }

      .cls-24, .cls-7 {
        stroke: #f9be00;
      }

      .cls-8 {
        fill: #b7e7e9;
      }

      .cls-9 {
        clip-path: url(#clip-path-3);
      }

      .cls-10 {
        stroke: #00adbb;
      }

      .cls-11 {
        stroke: #b0b8c4;
        stroke-width: 2.84px;
      }

      .cls-12 {
        fill: #e63c2f;
      }

      .cls-13 {
        fill: #fff;
      }

      .cls-14 {
        fill: #f9be00;
      }

      .cls-15 {
        fill: #00adbb;
      }

      .cls-16 {
        fill: #006e96;
      }

      .cls-17, .cls-19, .cls-20 {
        fill: #002b49;
      }

      .cls-18, .cls-19, .cls-20 {
        isolation: isolate;
      }

      .cls-19, .cls-20 {
        font-size: 10px;
        font-family: ProximaNova-Bold, Proxima Nova;
        font-weight: 700;
      }

      .cls-20 {
        letter-spacing: -0.02em;
      }

      .cls-21 {
        fill: #e5e6ea;
      }

      .cls-22 {
        clip-path: url(#clip-path-4);
      }

      .cls-23 {
        stroke: #bdbbbb;
        stroke-width: 0.48px;
      }

      .cls-24 {
        stroke-width: 2.86px;
        stroke-dasharray: 5.71;
      }

      .cls-25 {
        stroke: #fff;
        stroke-width: 2px;
      }

      .cls-26 {
        stroke: #006e96;
        stroke-width: 6.6px;
      }
    </style>
    <clipPath id="clip-path">
      <path class="cls-1" d="M63.37,140.61H405.71c-80.26-5.74-147.88-23.76-198.07-44.49H63.37Z"/>
    </clipPath>
    <clipPath id="clip-path-2">
      <path class="cls-1" d="M63.37,93.29H200.84c-26.81-11.55-48.21-23.77-63.45-35h-74Z"/>
    </clipPath>
    <clipPath id="clip-path-3">
      <path class="cls-1" d="M111.32,29.79h-48v25.6h70.26C121.22,45.66,113.6,36.77,111.32,29.79Z"/>
    </clipPath>
    <clipPath id="clip-path-4">
      <path class="cls-1" d="M578.88,103.78c-5.54-2.59-11.53-5.13-17.91-7.63H207.64c50.18,20.7,117.81,38.72,198.07,44.46H623.12C619.36,127.62,603.42,115.25,578.88,103.78ZM417.34,58.25h-280c15.24,11.28,36.65,23.5,63.45,35H553.43C517.14,79.94,469.54,68.12,417.34,58.25ZM182.21,29.79h-70.9c2.28,7,9.9,15.88,22.31,25.6h268.1A1924.19,1924.19,0,0,0,182.21,29.79Z"/>
    </clipPath>
  </defs>
  <title>fw_w-drm-graph</title>
  <g id="Layer_2" data-name="Layer 2">
    <g id="Layer_1-2" data-name="Layer 1-2">
      <path class="cls-2" d="M63.37,140.61H405.71c-80.26-5.74-147.88-23.76-198.07-44.49H63.37Z"/>
      <g class="cls-3">
        <g>
          <line class="cls-4" x1="230.39" y1="-399.39" x2="-242.6" y2="73.6"/>
          <line class="cls-4" x1="233.33" y1="-396.46" x2="-239.67" y2="76.54"/>
          <line class="cls-4" x1="236.64" y1="-393.89" x2="-236.36" y2="79.11"/>
          <line class="cls-4" x1="239.57" y1="-390.95" x2="-233.42" y2="82.04"/>
          <line class="cls-4" x1="242.14" y1="-387.65" x2="-230.86" y2="85.35"/>
          <line class="cls-4" x1="245.08" y1="-384.71" x2="-227.92" y2="88.29"/>
          <line class="cls-4" x1="248.38" y1="-382.14" x2="-224.61" y2="90.85"/>
          <line class="cls-4" x1="251.32" y1="-379.21" x2="-221.68" y2="93.79"/>
          <line class="cls-4" x1="253.89" y1="-375.9" x2="-219.11" y2="97.1"/>
          <line class="cls-4" x1="256.82" y1="-372.96" x2="-216.17" y2="100.03"/>
          <line class="cls-4" x1="260.13" y1="-370.4" x2="-212.87" y2="102.6"/>
          <line class="cls-4" x1="263.07" y1="-367.46" x2="-209.93" y2="105.54"/>
          <line class="cls-4" x1="265.63" y1="-364.15" x2="-207.36" y2="108.84"/>
          <line class="cls-4" x1="271.51" y1="-358.28" x2="-201.49" y2="114.72"/>
          <line class="cls-4" x1="277.75" y1="-352.78" x2="-195.25" y2="120.22"/>
          <line class="cls-4" x1="283.62" y1="-346.9" x2="-189.37" y2="126.09"/>
          <line class="cls-4" x1="268.57" y1="-361.22" x2="-204.43" y2="111.78"/>
          <line class="cls-4" x1="274.44" y1="-355.34" x2="-198.55" y2="117.65"/>
          <line class="cls-4" x1="280.69" y1="-349.84" x2="-192.31" y2="123.16"/>
          <line class="cls-4" x1="286.56" y1="-343.97" x2="-186.44" y2="129.03"/>
          <line class="cls-4" x1="289.13" y1="-340.66" x2="-183.87" y2="132.34"/>
          <line class="cls-4" x1="292.06" y1="-337.72" x2="-180.93" y2="135.27"/>
          <line class="cls-4" x1="295.37" y1="-335.16" x2="-177.63" y2="137.84"/>
          <line class="cls-4" x1="298.31" y1="-332.22" x2="-174.69" y2="140.78"/>
          <line class="cls-4" x1="300.87" y1="-328.91" x2="-172.12" y2="144.08"/>
          <line class="cls-4" x1="303.81" y1="-325.98" x2="-169.19" y2="147.02"/>
          <line class="cls-4" x1="307.12" y1="-323.41" x2="-165.88" y2="149.59"/>
          <line class="cls-4" x1="310.06" y1="-320.47" x2="-162.94" y2="152.52"/>
          <line class="cls-4" x1="312.62" y1="-317.17" x2="-160.38" y2="155.83"/>
          <line class="cls-4" x1="318.5" y1="-311.29" x2="-154.5" y2="161.7"/>
          <line class="cls-4" x1="324.74" y1="-305.79" x2="-148.26" y2="167.21"/>
          <line class="cls-4" x1="330.61" y1="-299.92" x2="-142.39" y2="173.08"/>
          <line class="cls-4" x1="344.93" y1="-284.86" x2="-128.07" y2="188.13"/>
          <line class="cls-4" x1="347.86" y1="-281.93" x2="-125.13" y2="191.07"/>
          <line class="cls-4" x1="354.11" y1="-276.42" x2="-118.89" y2="196.57"/>
          <line class="cls-4" x1="359.98" y1="-270.55" x2="-113.02" y2="202.45"/>
          <line class="cls-4" x1="368.42" y1="-261.37" x2="-104.58" y2="211.63"/>
          <line class="cls-4" x1="371.36" y1="-258.43" x2="-101.64" y2="214.56"/>
          <line class="cls-4" x1="377.6" y1="-252.93" x2="-95.4" y2="220.07"/>
          <line class="cls-4" x1="386.41" y1="-244.12" x2="-86.59" y2="228.88"/>
          <line class="cls-4" x1="400.72" y1="-229.07" x2="-72.27" y2="243.93"/>
          <line class="cls-4" x1="406.6" y1="-223.19" x2="-66.4" y2="249.8"/>
          <line class="cls-4" x1="409.9" y1="-220.63" x2="-63.09" y2="252.37"/>
          <line class="cls-4" x1="415.78" y1="-214.75" x2="-57.22" y2="258.25"/>
          <line class="cls-4" x1="424.22" y1="-205.57" x2="-48.78" y2="267.43"/>
          <line class="cls-4" x1="433.03" y1="-196.76" x2="-39.97" y2="276.24"/>
          <line class="cls-4" x1="439.27" y1="-191.26" x2="-33.73" y2="281.74"/>
          <line class="cls-4" x1="448.08" y1="-182.45" x2="-24.92" y2="290.55"/>
          <line class="cls-4" x1="430.09" y1="-199.7" x2="-42.91" y2="273.3"/>
          <line class="cls-4" x1="435.96" y1="-193.83" x2="-37.03" y2="279.17"/>
          <line class="cls-4" x1="445.14" y1="-185.39" x2="-27.85" y2="287.61"/>
          <line class="cls-4" x1="453.95" y1="-176.57" x2="-19.04" y2="296.42"/>
          <line class="cls-4" x1="462.39" y1="-167.39" x2="-10.6" y2="305.6"/>
          <line class="cls-4" x1="465.33" y1="-164.46" x2="-7.67" y2="308.54"/>
          <line class="cls-4" x1="471.57" y1="-158.95" x2="-1.42" y2="314.04"/>
          <line class="cls-4" x1="474.51" y1="-156.02" x2="1.51" y2="316.98"/>
          <line class="cls-4" x1="477.08" y1="-152.71" x2="4.08" y2="320.29"/>
          <line class="cls-4" x1="480.01" y1="-149.77" x2="7.02" y2="323.22"/>
          <line class="cls-4" x1="483.32" y1="-147.21" x2="10.32" y2="325.79"/>
          <line class="cls-4" x1="486.26" y1="-144.27" x2="13.26" y2="328.73"/>
          <line class="cls-4" x1="488.82" y1="-140.96" x2="15.83" y2="332.03"/>
          <line class="cls-4" x1="497.63" y1="-132.15" x2="24.64" y2="340.84"/>
          <line class="cls-4" x1="503.51" y1="-126.28" x2="30.51" y2="346.72"/>
          <line class="cls-4" x1="506.81" y1="-123.71" x2="33.82" y2="349.28"/>
          <line class="cls-4" x1="509.75" y1="-120.78" x2="36.75" y2="352.22"/>
          <line class="cls-4" x1="512.32" y1="-117.47" x2="39.32" y2="355.53"/>
          <line class="cls-4" x1="515.25" y1="-114.53" x2="42.26" y2="358.46"/>
          <line class="cls-4" x1="518.56" y1="-111.97" x2="45.56" y2="361.03"/>
          <line class="cls-4" x1="521.5" y1="-109.03" x2="48.5" y2="363.97"/>
          <line class="cls-4" x1="524.06" y1="-105.72" x2="51.07" y2="367.27"/>
          <line class="cls-4" x1="527" y1="-102.79" x2="54" y2="370.21"/>
          <line class="cls-4" x1="530.31" y1="-100.22" x2="57.31" y2="372.78"/>
          <line class="cls-4" x1="533.24" y1="-97.28" x2="60.25" y2="375.71"/>
          <line class="cls-4" x1="535.81" y1="-93.98" x2="62.81" y2="379.02"/>
          <line class="cls-4" x1="541.68" y1="-88.1" x2="68.69" y2="384.89"/>
          <line class="cls-4" x1="547.93" y1="-82.6" x2="74.93" y2="390.4"/>
          <line class="cls-4" x1="553.8" y1="-76.73" x2="80.8" y2="396.27"/>
          <line class="cls-4" x1="538.75" y1="-91.04" x2="65.75" y2="381.96"/>
          <line class="cls-4" x1="544.62" y1="-85.17" x2="71.62" y2="387.83"/>
          <line class="cls-4" x1="550.86" y1="-79.66" x2="77.87" y2="393.33"/>
          <line class="cls-4" x1="556.74" y1="-73.79" x2="83.74" y2="399.21"/>
          <line class="cls-4" x1="559.31" y1="-70.48" x2="86.31" y2="402.51"/>
          <line class="cls-4" x1="562.24" y1="-67.55" x2="89.24" y2="405.45"/>
          <line class="cls-4" x1="565.55" y1="-64.98" x2="92.55" y2="408.02"/>
          <line class="cls-4" x1="568.49" y1="-62.04" x2="95.49" y2="410.95"/>
          <line class="cls-4" x1="571.05" y1="-58.74" x2="98.05" y2="414.26"/>
          <line class="cls-4" x1="573.99" y1="-55.8" x2="100.99" y2="417.2"/>
          <line class="cls-4" x1="577.3" y1="-53.23" x2="104.3" y2="419.76"/>
          <line class="cls-4" x1="580.23" y1="-50.3" x2="107.23" y2="422.7"/>
          <line class="cls-4" x1="582.8" y1="-46.99" x2="109.8" y2="426.01"/>
          <line class="cls-4" x1="585.74" y1="-44.05" x2="112.74" y2="428.94"/>
          <line class="cls-4" x1="589.04" y1="-41.49" x2="116.04" y2="431.51"/>
          <line class="cls-4" x1="591.98" y1="-38.55" x2="118.98" y2="434.45"/>
          <line class="cls-4" x1="594.55" y1="-35.24" x2="121.55" y2="437.75"/>
          <line class="cls-4" x1="597.48" y1="-32.31" x2="124.49" y2="440.69"/>
          <line class="cls-4" x1="600.79" y1="-29.74" x2="127.79" y2="443.26"/>
          <line class="cls-4" x1="603.73" y1="-26.8" x2="130.73" y2="446.19"/>
          <line class="cls-4" x1="606.29" y1="-23.5" x2="133.3" y2="449.5"/>
          <line class="cls-4" x1="609.23" y1="-20.56" x2="136.23" y2="452.44"/>
          <line class="cls-4" x1="612.54" y1="-17.99" x2="139.54" y2="455"/>
          <line class="cls-4" x1="615.47" y1="-15.06" x2="142.48" y2="457.94"/>
          <line class="cls-4" x1="618.04" y1="-11.75" x2="145.04" y2="461.25"/>
          <line class="cls-4" x1="620.98" y1="-8.81" x2="147.98" y2="464.18"/>
          <line class="cls-4" x1="624.28" y1="-6.25" x2="151.29" y2="466.75"/>
          <line class="cls-4" x1="630.16" y1="-0.37" x2="157.16" y2="472.62"/>
          <line class="cls-4" x1="638.6" y1="8.81" x2="165.6" y2="481.8"/>
          <line class="cls-4" x1="644.47" y1="14.68" x2="171.47" y2="487.68"/>
          <line class="cls-4" x1="653.65" y1="23.12" x2="180.65" y2="496.12"/>
          <line class="cls-4" x1="662.46" y1="31.93" x2="189.46" y2="504.93"/>
          <line class="cls-4" x1="641.53" y1="11.74" x2="168.54" y2="484.74"/>
          <line class="cls-4" x1="650.34" y1="20.55" x2="177.35" y2="493.55"/>
          <line class="cls-4" x1="659.52" y1="28.99" x2="186.53" y2="501.99"/>
          <line class="cls-4" x1="668.33" y1="37.8" x2="195.34" y2="510.8"/>
          <line class="cls-4" x1="673.84" y1="44.05" x2="200.84" y2="517.05"/>
          <line class="cls-4" x1="679.71" y1="49.92" x2="206.71" y2="522.92"/>
          <line class="cls-4" x1="688.89" y1="58.36" x2="215.89" y2="531.36"/>
          <line class="cls-4" x1="697.7" y1="67.17" x2="224.7" y2="540.17"/>
          <line class="cls-4" x1="709.08" y1="79.29" x2="236.08" y2="552.29"/>
          <line class="cls-4" x1="712.01" y1="82.23" x2="239.02" y2="555.22"/>
          <line class="cls-4" x1="718.26" y1="87.73" x2="245.26" y2="560.73"/>
          <line class="cls-4" x1="724.13" y1="93.6" x2="251.13" y2="566.6"/>
          <line class="cls-4" x1="732.57" y1="102.78" x2="259.57" y2="575.78"/>
          <line class="cls-4" x1="626.85" y1="-2.94" x2="153.85" y2="470.06"/>
          <line class="cls-4" x1="633.09" y1="2.56" x2="160.1" y2="475.56"/>
          <line class="cls-4" x1="636.03" y1="5.5" x2="163.03" y2="478.5"/>
          <line class="cls-4" x1="647.41" y1="17.62" x2="174.41" y2="490.61"/>
          <line class="cls-4" x1="656.22" y1="26.43" x2="183.22" y2="499.42"/>
          <line class="cls-4" x1="665.4" y1="34.87" x2="192.4" y2="507.87"/>
          <line class="cls-4" x1="671.27" y1="40.74" x2="198.27" y2="513.74"/>
          <line class="cls-4" x1="676.77" y1="46.98" x2="203.78" y2="519.98"/>
          <line class="cls-4" x1="685.58" y1="55.79" x2="212.59" y2="528.79"/>
          <line class="cls-4" x1="694.76" y1="64.23" x2="221.77" y2="537.23"/>
          <line class="cls-4" x1="703.57" y1="73.05" x2="230.58" y2="546.04"/>
          <line class="cls-4" x1="682.65" y1="52.86" x2="209.65" y2="525.86"/>
          <line class="cls-4" x1="691.46" y1="61.67" x2="218.46" y2="534.67"/>
          <line class="cls-4" x1="700.64" y1="70.11" x2="227.64" y2="543.11"/>
          <line class="cls-4" x1="706.51" y1="75.98" x2="233.51" y2="548.98"/>
          <line class="cls-4" x1="714.95" y1="85.16" x2="241.95" y2="558.16"/>
          <line class="cls-4" x1="720.82" y1="91.04" x2="247.83" y2="564.03"/>
          <line class="cls-4" x1="727.07" y1="96.54" x2="254.07" y2="569.54"/>
          <line class="cls-4" x1="730" y1="99.48" x2="257.01" y2="572.47"/>
          <line class="cls-4" x1="735.51" y1="105.72" x2="262.51" y2="578.72"/>
          <line class="cls-4" x1="738.44" y1="108.66" x2="265.45" y2="581.65"/>
          <line class="cls-4" x1="741.75" y1="111.22" x2="268.75" y2="584.22"/>
          <line class="cls-4" x1="744.69" y1="114.16" x2="271.69" y2="587.16"/>
          <line class="cls-4" x1="747.25" y1="117.47" x2="274.26" y2="590.46"/>
          <line class="cls-4" x1="750.19" y1="120.4" x2="277.19" y2="593.4"/>
          <line class="cls-4" x1="753.5" y1="122.97" x2="280.5" y2="595.97"/>
          <line class="cls-4" x1="756.43" y1="125.91" x2="283.44" y2="598.9"/>
          <line class="cls-4" x1="759" y1="129.21" x2="286" y2="602.21"/>
          <line class="cls-4" x1="761.94" y1="132.15" x2="288.94" y2="605.15"/>
          <line class="cls-4" x1="765.24" y1="134.72" x2="292.25" y2="607.71"/>
          <line class="cls-4" x1="768.18" y1="137.65" x2="295.18" y2="610.65"/>
          <line class="cls-4" x1="770.75" y1="140.96" x2="297.75" y2="613.96"/>
          <line class="cls-4" x1="773.68" y1="143.9" x2="300.69" y2="616.89"/>
          <line class="cls-4" x1="776.99" y1="146.46" x2="303.99" y2="619.46"/>
          <line class="cls-4" x1="779.93" y1="149.4" x2="306.93" y2="622.4"/>
          <line class="cls-4" x1="782.49" y1="152.71" x2="309.5" y2="625.7"/>
          <line class="cls-4" x1="785.43" y1="155.64" x2="312.43" y2="628.64"/>
          <line class="cls-4" x1="788.74" y1="158.21" x2="315.74" y2="631.21"/>
          <line class="cls-4" x1="791.67" y1="161.15" x2="318.68" y2="634.14"/>
          <line class="cls-4" x1="794.24" y1="164.45" x2="321.24" y2="637.45"/>
          <line class="cls-4" x1="800.11" y1="170.33" x2="327.12" y2="643.32"/>
          <line class="cls-4" x1="806.36" y1="175.83" x2="333.36" y2="648.83"/>
          <line class="cls-4" x1="797.18" y1="167.39" x2="324.18" y2="640.39"/>
          <line class="cls-4" x1="803.05" y1="173.26" x2="330.05" y2="646.26"/>
          <line class="cls-4" x1="809.29" y1="178.77" x2="336.3" y2="651.76"/>
          <line class="cls-4" x1="315.56" y1="-314.23" x2="-157.44" y2="158.77"/>
          <line class="cls-4" x1="321.8" y1="-308.73" x2="-151.2" y2="164.27"/>
          <line class="cls-4" x1="327.68" y1="-302.85" x2="-145.32" y2="170.14"/>
          <line class="cls-4" x1="333.18" y1="-296.61" x2="-139.82" y2="176.39"/>
          <line class="cls-4" x1="336.12" y1="-293.67" x2="-136.88" y2="179.32"/>
          <line class="cls-4" x1="339.42" y1="-291.11" x2="-133.57" y2="181.89"/>
          <line class="cls-4" x1="342.36" y1="-288.17" x2="-130.64" y2="184.83"/>
          <line class="cls-4" x1="350.8" y1="-278.99" x2="-122.2" y2="194.01"/>
          <line class="cls-4" x1="356.67" y1="-273.12" x2="-116.32" y2="199.88"/>
          <line class="cls-4" x1="362.92" y1="-267.61" x2="-110.08" y2="205.38"/>
          <line class="cls-4" x1="365.85" y1="-264.68" x2="-107.14" y2="208.32"/>
          <line class="cls-4" x1="374.29" y1="-255.5" x2="-98.7" y2="217.5"/>
          <line class="cls-4" x1="383.1" y1="-246.69" x2="-89.89" y2="226.31"/>
          <line class="cls-4" x1="392.28" y1="-238.25" x2="-80.71" y2="234.75"/>
          <line class="cls-4" x1="398.16" y1="-232.37" x2="-74.84" y2="240.62"/>
          <line class="cls-4" x1="380.17" y1="-249.62" x2="-92.83" y2="223.37"/>
          <line class="cls-4" x1="388.98" y1="-240.81" x2="-84.02" y2="232.18"/>
          <line class="cls-4" x1="395.22" y1="-235.31" x2="-77.78" y2="237.69"/>
          <line class="cls-4" x1="404.03" y1="-226.5" x2="-68.97" y2="246.5"/>
          <line class="cls-4" x1="412.47" y1="-217.32" x2="-60.53" y2="255.68"/>
          <line class="cls-4" x1="418.34" y1="-211.45" x2="-54.65" y2="261.55"/>
          <line class="cls-4" x1="421.65" y1="-208.88" x2="-51.35" y2="264.12"/>
          <line class="cls-4" x1="427.52" y1="-203.01" x2="-45.47" y2="269.99"/>
          <line class="cls-4" x1="441.84" y1="-187.95" x2="-31.16" y2="285.05"/>
          <line class="cls-4" x1="450.65" y1="-179.14" x2="-22.35" y2="293.86"/>
          <line class="cls-4" x1="456.89" y1="-173.64" x2="-16.11" y2="299.36"/>
          <line class="cls-4" x1="459.83" y1="-170.7" x2="-13.17" y2="302.3"/>
          <line class="cls-4" x1="468.27" y1="-161.52" x2="-4.73" y2="311.48"/>
          <line class="cls-4" x1="491.76" y1="-138.03" x2="18.76" y2="334.97"/>
          <line class="cls-4" x1="495.07" y1="-135.46" x2="22.07" y2="337.54"/>
          <line class="cls-4" x1="500.94" y1="-129.59" x2="27.94" y2="343.41"/>
        </g>
      </g>
      <path class="cls-5" d="M63.37,93.29H200.84c-26.81-11.55-48.21-23.77-63.45-35h-74Z"/>
      <g class="cls-6">
        <g>
          <line class="cls-7" x1="199.74" y1="-430.68" x2="-273.26" y2="42.32"/>
          <line class="cls-7" x1="202.67" y1="-427.74" x2="-270.32" y2="45.25"/>
          <line class="cls-7" x1="205.98" y1="-425.18" x2="-267.02" y2="47.82"/>
          <line class="cls-7" x1="208.92" y1="-422.24" x2="-264.08" y2="50.76"/>
          <line class="cls-7" x1="211.49" y1="-418.93" x2="-261.51" y2="54.07"/>
          <line class="cls-7" x1="214.42" y1="-416" x2="-258.58" y2="57"/>
          <line class="cls-7" x1="217.73" y1="-413.43" x2="-255.27" y2="59.57"/>
          <line class="cls-7" x1="220.67" y1="-410.49" x2="-252.33" y2="62.51"/>
          <line class="cls-7" x1="223.23" y1="-407.19" x2="-249.77" y2="65.81"/>
          <line class="cls-7" x1="226.17" y1="-404.25" x2="-246.83" y2="68.75"/>
          <line class="cls-7" x1="229.48" y1="-401.68" x2="-243.52" y2="71.32"/>
          <line class="cls-7" x1="232.41" y1="-398.75" x2="-240.59" y2="74.25"/>
          <line class="cls-7" x1="234.98" y1="-395.44" x2="-238.02" y2="77.56"/>
          <line class="cls-7" x1="240.85" y1="-389.57" x2="-232.15" y2="83.43"/>
          <line class="cls-7" x1="247.1" y1="-384.06" x2="-225.9" y2="88.94"/>
          <line class="cls-7" x1="252.97" y1="-378.19" x2="-220.03" y2="94.81"/>
          <line class="cls-7" x1="237.92" y1="-392.5" x2="-235.08" y2="80.5"/>
          <line class="cls-7" x1="243.79" y1="-386.63" x2="-229.21" y2="86.37"/>
          <line class="cls-7" x1="250.03" y1="-381.12" x2="-222.96" y2="91.87"/>
          <line class="cls-7" x1="255.91" y1="-375.25" x2="-217.09" y2="97.75"/>
          <line class="cls-7" x1="258.47" y1="-371.94" x2="-214.52" y2="101.05"/>
          <line class="cls-7" x1="261.41" y1="-369.01" x2="-211.59" y2="103.99"/>
          <line class="cls-7" x1="264.72" y1="-366.44" x2="-208.28" y2="106.56"/>
          <line class="cls-7" x1="267.65" y1="-363.5" x2="-205.34" y2="109.49"/>
          <line class="cls-7" x1="270.22" y1="-360.2" x2="-202.78" y2="112.8"/>
          <line class="cls-7" x1="273.16" y1="-357.26" x2="-199.84" y2="115.74"/>
          <line class="cls-7" x1="276.46" y1="-354.69" x2="-196.53" y2="118.3"/>
          <line class="cls-7" x1="279.4" y1="-351.76" x2="-193.6" y2="121.24"/>
          <line class="cls-7" x1="281.97" y1="-348.45" x2="-191.03" y2="124.55"/>
          <line class="cls-7" x1="287.84" y1="-342.58" x2="-185.16" y2="130.42"/>
          <line class="cls-7" x1="294.08" y1="-337.07" x2="-178.91" y2="135.92"/>
          <line class="cls-7" x1="299.96" y1="-331.2" x2="-173.04" y2="141.8"/>
          <line class="cls-7" x1="314.27" y1="-316.15" x2="-158.73" y2="156.85"/>
          <line class="cls-7" x1="317.21" y1="-313.21" x2="-155.79" y2="159.79"/>
          <line class="cls-7" x1="323.45" y1="-307.71" x2="-149.55" y2="165.29"/>
          <line class="cls-7" x1="329.32" y1="-301.83" x2="-143.67" y2="171.16"/>
          <line class="cls-7" x1="337.76" y1="-292.65" x2="-135.23" y2="180.34"/>
          <line class="cls-7" x1="340.7" y1="-289.72" x2="-132.3" y2="183.28"/>
          <line class="cls-7" x1="346.94" y1="-284.21" x2="-126.05" y2="188.78"/>
          <line class="cls-7" x1="355.75" y1="-275.4" x2="-117.24" y2="197.59"/>
          <line class="cls-7" x1="370.07" y1="-260.35" x2="-102.93" y2="212.65"/>
          <line class="cls-7" x1="375.94" y1="-254.48" x2="-97.06" y2="218.52"/>
          <line class="cls-7" x1="379.25" y1="-251.91" x2="-93.75" y2="221.09"/>
          <line class="cls-7" x1="385.12" y1="-246.04" x2="-87.88" y2="226.96"/>
          <line class="cls-7" x1="393.56" y1="-236.86" x2="-79.44" y2="236.14"/>
          <line class="cls-7" x1="402.37" y1="-228.05" x2="-70.63" y2="244.95"/>
          <line class="cls-7" x1="408.61" y1="-222.54" x2="-64.38" y2="250.45"/>
          <line class="cls-7" x1="417.42" y1="-213.73" x2="-55.57" y2="259.26"/>
          <line class="cls-7" x1="399.43" y1="-230.98" x2="-73.56" y2="242.01"/>
          <line class="cls-7" x1="405.31" y1="-225.11" x2="-67.69" y2="247.89"/>
          <line class="cls-7" x1="414.49" y1="-216.67" x2="-58.51" y2="256.33"/>
          <line class="cls-7" x1="423.3" y1="-207.86" x2="-49.7" y2="265.14"/>
          <line class="cls-7" x1="431.74" y1="-198.68" x2="-41.26" y2="274.32"/>
          <line class="cls-7" x1="434.67" y1="-195.74" x2="-38.32" y2="277.25"/>
          <line class="cls-7" x1="440.92" y1="-190.24" x2="-32.08" y2="282.76"/>
          <line class="cls-7" x1="443.85" y1="-187.3" x2="-29.14" y2="285.69"/>
          <line class="cls-7" x1="446.42" y1="-184" x2="-26.58" y2="289"/>
          <line class="cls-7" x1="449.36" y1="-181.06" x2="-23.64" y2="291.94"/>
          <line class="cls-7" x1="452.66" y1="-178.49" x2="-20.33" y2="294.5"/>
          <line class="cls-7" x1="455.6" y1="-175.56" x2="-17.4" y2="297.44"/>
          <line class="cls-7" x1="458.17" y1="-172.25" x2="-14.83" y2="300.75"/>
          <line class="cls-7" x1="466.98" y1="-163.44" x2="-6.02" y2="309.56"/>
          <line class="cls-7" x1="472.85" y1="-157.57" x2="-0.15" y2="315.43"/>
          <line class="cls-7" x1="476.16" y1="-155" x2="3.16" y2="318"/>
          <line class="cls-7" x1="479.1" y1="-152.06" x2="6.1" y2="320.94"/>
          <line class="cls-7" x1="481.66" y1="-148.76" x2="8.66" y2="324.24"/>
          <line class="cls-7" x1="484.6" y1="-145.82" x2="11.6" y2="327.18"/>
          <line class="cls-7" x1="487.91" y1="-143.25" x2="14.91" y2="329.75"/>
          <line class="cls-7" x1="490.84" y1="-140.32" x2="17.84" y2="332.68"/>
          <line class="cls-7" x1="493.41" y1="-137.01" x2="20.41" y2="335.99"/>
          <line class="cls-7" x1="496.35" y1="-134.07" x2="23.35" y2="338.93"/>
          <line class="cls-7" x1="499.65" y1="-131.51" x2="26.65" y2="341.49"/>
          <line class="cls-7" x1="502.59" y1="-128.57" x2="29.59" y2="344.43"/>
          <line class="cls-7" x1="505.16" y1="-125.26" x2="32.16" y2="347.74"/>
          <line class="cls-7" x1="511.03" y1="-119.39" x2="38.03" y2="353.61"/>
          <line class="cls-7" x1="517.27" y1="-113.88" x2="44.28" y2="359.11"/>
          <line class="cls-7" x1="523.15" y1="-108.01" x2="50.15" y2="364.99"/>
          <line class="cls-7" x1="508.09" y1="-122.32" x2="35.1" y2="350.67"/>
          <line class="cls-7" x1="513.97" y1="-116.45" x2="40.97" y2="356.55"/>
          <line class="cls-7" x1="520.21" y1="-110.95" x2="47.21" y2="362.05"/>
          <line class="cls-7" x1="526.08" y1="-105.07" x2="53.09" y2="367.92"/>
          <line class="cls-7" x1="528.65" y1="-101.77" x2="55.65" y2="371.23"/>
          <line class="cls-7" x1="531.59" y1="-98.83" x2="58.59" y2="374.17"/>
          <line class="cls-7" x1="534.89" y1="-96.26" x2="61.9" y2="376.73"/>
          <line class="cls-7" x1="537.83" y1="-93.33" x2="64.83" y2="379.67"/>
          <line class="cls-7" x1="540.4" y1="-90.02" x2="67.4" y2="382.98"/>
          <line class="cls-7" x1="543.33" y1="-87.08" x2="70.34" y2="385.91"/>
          <line class="cls-7" x1="546.64" y1="-84.52" x2="73.64" y2="388.48"/>
          <line class="cls-7" x1="549.58" y1="-81.58" x2="76.58" y2="391.42"/>
          <line class="cls-7" x1="552.14" y1="-78.27" x2="79.15" y2="394.72"/>
          <line class="cls-7" x1="555.08" y1="-75.34" x2="82.08" y2="397.66"/>
          <line class="cls-7" x1="558.39" y1="-72.77" x2="85.39" y2="400.23"/>
          <line class="cls-7" x1="561.32" y1="-69.83" x2="88.33" y2="403.16"/>
          <line class="cls-7" x1="563.89" y1="-66.53" x2="90.89" y2="406.47"/>
          <line class="cls-7" x1="566.83" y1="-63.59" x2="93.83" y2="409.41"/>
          <line class="cls-7" x1="570.13" y1="-61.02" x2="97.14" y2="411.97"/>
          <line class="cls-7" x1="573.07" y1="-58.09" x2="100.07" y2="414.91"/>
          <line class="cls-7" x1="575.64" y1="-54.78" x2="102.64" y2="418.22"/>
          <line class="cls-7" x1="578.57" y1="-51.84" x2="105.58" y2="421.15"/>
          <line class="cls-7" x1="581.88" y1="-49.28" x2="108.88" y2="423.72"/>
          <line class="cls-7" x1="584.82" y1="-46.34" x2="111.82" y2="426.66"/>
          <line class="cls-7" x1="587.38" y1="-43.03" x2="114.39" y2="429.96"/>
          <line class="cls-7" x1="590.32" y1="-40.1" x2="117.32" y2="432.9"/>
          <line class="cls-7" x1="593.63" y1="-37.53" x2="120.63" y2="435.47"/>
          <line class="cls-7" x1="599.5" y1="-31.66" x2="126.5" y2="441.34"/>
          <line class="cls-7" x1="607.94" y1="-22.48" x2="134.94" y2="450.52"/>
          <line class="cls-7" x1="613.81" y1="-16.6" x2="140.82" y2="456.39"/>
          <line class="cls-7" x1="622.99" y1="-8.16" x2="150" y2="464.83"/>
          <line class="cls-7" x1="631.8" y1="0.65" x2="158.81" y2="473.64"/>
          <line class="cls-7" x1="610.88" y1="-19.54" x2="137.88" y2="453.46"/>
          <line class="cls-7" x1="619.69" y1="-10.73" x2="146.69" y2="462.27"/>
          <line class="cls-7" x1="628.87" y1="-2.29" x2="155.87" y2="470.71"/>
          <line class="cls-7" x1="637.68" y1="6.52" x2="164.68" y2="479.52"/>
          <line class="cls-7" x1="643.18" y1="12.76" x2="170.18" y2="485.76"/>
          <line class="cls-7" x1="649.05" y1="18.64" x2="176.06" y2="491.63"/>
          <line class="cls-7" x1="658.23" y1="27.08" x2="185.24" y2="500.07"/>
          <line class="cls-7" x1="667.04" y1="35.89" x2="194.05" y2="508.88"/>
          <line class="cls-7" x1="678.42" y1="48" x2="205.42" y2="521"/>
          <line class="cls-7" x1="681.36" y1="50.94" x2="208.36" y2="523.94"/>
          <line class="cls-7" x1="687.6" y1="56.44" x2="214.6" y2="529.44"/>
          <line class="cls-7" x1="693.47" y1="62.32" x2="220.48" y2="535.31"/>
          <line class="cls-7" x1="701.91" y1="71.5" x2="228.92" y2="544.49"/>
          <line class="cls-7" x1="596.19" y1="-34.22" x2="123.2" y2="438.77"/>
          <line class="cls-7" x1="602.44" y1="-28.72" x2="129.44" y2="444.28"/>
          <line class="cls-7" x1="605.37" y1="-25.78" x2="132.38" y2="447.21"/>
          <line class="cls-7" x1="616.75" y1="-13.67" x2="143.75" y2="459.33"/>
          <line class="cls-7" x1="625.56" y1="-4.86" x2="152.56" y2="468.14"/>
          <line class="cls-7" x1="634.74" y1="3.58" x2="161.74" y2="476.58"/>
          <line class="cls-7" x1="640.61" y1="9.46" x2="167.62" y2="482.45"/>
          <line class="cls-7" x1="646.12" y1="15.7" x2="173.12" y2="488.7"/>
          <line class="cls-7" x1="654.93" y1="24.51" x2="181.93" y2="497.51"/>
          <line class="cls-7" x1="664.11" y1="32.95" x2="191.11" y2="505.95"/>
          <line class="cls-7" x1="672.92" y1="41.76" x2="199.92" y2="514.76"/>
          <line class="cls-7" x1="651.99" y1="21.57" x2="178.99" y2="494.57"/>
          <line class="cls-7" x1="660.8" y1="30.38" x2="187.8" y2="503.38"/>
          <line class="cls-7" x1="669.98" y1="38.82" x2="196.98" y2="511.82"/>
          <line class="cls-7" x1="675.85" y1="44.7" x2="202.86" y2="517.69"/>
          <line class="cls-7" x1="684.29" y1="53.88" x2="211.3" y2="526.87"/>
          <line class="cls-7" x1="690.17" y1="59.75" x2="217.17" y2="532.75"/>
          <line class="cls-7" x1="696.41" y1="65.25" x2="223.41" y2="538.25"/>
          <line class="cls-7" x1="699.35" y1="68.19" x2="226.35" y2="541.19"/>
          <line class="cls-7" x1="704.85" y1="74.43" x2="231.85" y2="547.43"/>
          <line class="cls-7" x1="707.79" y1="77.37" x2="234.79" y2="550.37"/>
          <line class="cls-7" x1="711.09" y1="79.94" x2="238.1" y2="552.93"/>
          <line class="cls-7" x1="714.03" y1="82.87" x2="241.03" y2="555.87"/>
          <line class="cls-7" x1="716.6" y1="86.18" x2="243.6" y2="559.18"/>
          <line class="cls-7" x1="719.54" y1="89.12" x2="246.54" y2="562.12"/>
          <line class="cls-7" x1="722.84" y1="91.68" x2="249.84" y2="564.68"/>
          <line class="cls-7" x1="725.78" y1="94.62" x2="252.78" y2="567.62"/>
          <line class="cls-7" x1="728.35" y1="97.93" x2="255.35" y2="570.93"/>
          <line class="cls-7" x1="731.28" y1="100.86" x2="258.28" y2="573.86"/>
          <line class="cls-7" x1="734.59" y1="103.43" x2="261.59" y2="576.43"/>
          <line class="cls-7" x1="737.53" y1="106.37" x2="264.53" y2="579.37"/>
          <line class="cls-7" x1="740.09" y1="109.67" x2="267.09" y2="582.67"/>
          <line class="cls-7" x1="743.03" y1="112.61" x2="270.03" y2="585.61"/>
          <line class="cls-7" x1="746.34" y1="115.18" x2="273.34" y2="588.18"/>
          <line class="cls-7" x1="749.27" y1="118.11" x2="276.27" y2="591.11"/>
          <line class="cls-7" x1="751.84" y1="121.42" x2="278.84" y2="594.42"/>
          <line class="cls-7" x1="754.78" y1="124.36" x2="281.78" y2="597.36"/>
          <line class="cls-7" x1="758.08" y1="126.93" x2="285.09" y2="599.92"/>
          <line class="cls-7" x1="761.02" y1="129.86" x2="288.02" y2="602.86"/>
          <line class="cls-7" x1="763.59" y1="133.17" x2="290.59" y2="606.17"/>
          <line class="cls-7" x1="769.46" y1="139.04" x2="296.46" y2="612.04"/>
          <line class="cls-7" x1="775.7" y1="144.55" x2="302.71" y2="617.54"/>
          <line class="cls-7" x1="781.58" y1="150.42" x2="308.58" y2="623.42"/>
          <line class="cls-7" x1="766.52" y1="136.11" x2="293.53" y2="609.1"/>
          <line class="cls-7" x1="772.4" y1="141.98" x2="299.4" y2="614.98"/>
          <line class="cls-7" x1="778.64" y1="147.48" x2="305.64" y2="620.48"/>
          <line class="cls-7" x1="784.51" y1="153.36" x2="311.52" y2="626.35"/>
          <line class="cls-7" x1="787.08" y1="156.66" x2="314.08" y2="629.66"/>
          <line class="cls-7" x1="790.02" y1="159.6" x2="317.02" y2="632.6"/>
          <line class="cls-7" x1="793.32" y1="162.17" x2="320.33" y2="635.16"/>
          <line class="cls-7" x1="796.26" y1="165.1" x2="323.26" y2="638.1"/>
          <line class="cls-7" x1="798.83" y1="168.41" x2="325.83" y2="641.41"/>
          <line class="cls-7" x1="801.76" y1="171.35" x2="328.77" y2="644.34"/>
          <line class="cls-7" x1="805.07" y1="173.91" x2="332.07" y2="646.91"/>
          <line class="cls-7" x1="808.01" y1="176.85" x2="335.01" y2="649.85"/>
          <line class="cls-7" x1="284.9" y1="-345.51" x2="-188.09" y2="127.48"/>
          <line class="cls-7" x1="291.15" y1="-340.01" x2="-181.85" y2="132.99"/>
          <line class="cls-7" x1="297.02" y1="-334.14" x2="-175.98" y2="138.86"/>
          <line class="cls-7" x1="302.52" y1="-327.89" x2="-170.47" y2="145.1"/>
          <line class="cls-7" x1="305.46" y1="-324.96" x2="-167.54" y2="148.04"/>
          <line class="cls-7" x1="308.77" y1="-322.39" x2="-164.23" y2="150.61"/>
          <line class="cls-7" x1="311.7" y1="-319.45" x2="-161.29" y2="153.54"/>
          <line class="cls-7" x1="320.14" y1="-310.27" x2="-152.85" y2="162.72"/>
          <line class="cls-7" x1="326.02" y1="-304.4" x2="-146.98" y2="168.6"/>
          <line class="cls-7" x1="332.26" y1="-298.9" x2="-140.74" y2="174.1"/>
          <line class="cls-7" x1="335.2" y1="-295.96" x2="-137.8" y2="177.04"/>
          <line class="cls-7" x1="343.64" y1="-286.78" x2="-129.36" y2="186.22"/>
          <line class="cls-7" x1="352.45" y1="-277.97" x2="-120.55" y2="195.03"/>
          <line class="cls-7" x1="361.63" y1="-269.53" x2="-111.37" y2="203.47"/>
          <line class="cls-7" x1="367.5" y1="-263.66" x2="-105.5" y2="209.34"/>
          <line class="cls-7" x1="349.51" y1="-280.91" x2="-123.49" y2="192.09"/>
          <line class="cls-7" x1="358.32" y1="-272.1" x2="-114.68" y2="200.9"/>
          <line class="cls-7" x1="364.56" y1="-266.59" x2="-108.43" y2="206.4"/>
          <line class="cls-7" x1="373.37" y1="-257.78" x2="-99.62" y2="215.21"/>
          <line class="cls-7" x1="381.81" y1="-248.6" x2="-91.18" y2="224.39"/>
          <line class="cls-7" x1="387.69" y1="-242.73" x2="-85.31" y2="230.27"/>
          <line class="cls-7" x1="390.99" y1="-240.16" x2="-82" y2="232.83"/>
          <line class="cls-7" x1="396.87" y1="-234.29" x2="-76.13" y2="238.71"/>
          <line class="cls-7" x1="411.18" y1="-219.24" x2="-61.82" y2="253.76"/>
          <line class="cls-7" x1="419.99" y1="-210.43" x2="-53.01" y2="262.57"/>
          <line class="cls-7" x1="426.23" y1="-204.92" x2="-46.76" y2="268.07"/>
          <line class="cls-7" x1="429.17" y1="-201.99" x2="-43.83" y2="271.01"/>
          <line class="cls-7" x1="437.61" y1="-192.81" x2="-35.39" y2="280.19"/>
          <line class="cls-7" x1="461.1" y1="-169.31" x2="-11.89" y2="303.68"/>
          <line class="cls-7" x1="464.41" y1="-166.75" x2="-8.59" y2="306.25"/>
          <line class="cls-7" x1="470.29" y1="-160.87" x2="-2.71" y2="312.13"/>
        </g>
      </g>
      <path class="cls-8" d="M111.32,29.79h-48v25.6h70.26C121.22,45.66,113.6,36.77,111.32,29.79Z"/>
      <g class="cls-9">
        <g>
          <line class="cls-10" x1="320.77" y1="-388.84" x2="-152.22" y2="84.16"/>
          <line class="cls-10" x1="323.71" y1="-385.9" x2="-149.29" y2="87.1"/>
          <line class="cls-10" x1="327.02" y1="-383.33" x2="-145.98" y2="89.66"/>
          <line class="cls-10" x1="329.95" y1="-380.4" x2="-143.04" y2="92.6"/>
          <line class="cls-10" x1="332.52" y1="-377.09" x2="-140.48" y2="95.91"/>
          <line class="cls-10" x1="335.46" y1="-374.15" x2="-137.54" y2="98.84"/>
          <line class="cls-10" x1="338.76" y1="-371.59" x2="-134.23" y2="101.41"/>
          <line class="cls-10" x1="341.7" y1="-368.65" x2="-131.3" y2="104.35"/>
          <line class="cls-10" x1="344.27" y1="-365.34" x2="-128.73" y2="107.65"/>
          <line class="cls-10" x1="347.2" y1="-362.41" x2="-125.79" y2="110.59"/>
          <line class="cls-10" x1="350.51" y1="-359.84" x2="-122.49" y2="113.16"/>
          <line class="cls-10" x1="353.45" y1="-356.9" x2="-119.55" y2="116.09"/>
          <line class="cls-10" x1="356.01" y1="-353.6" x2="-116.98" y2="119.4"/>
          <line class="cls-10" x1="361.89" y1="-347.72" x2="-111.11" y2="125.27"/>
          <line class="cls-10" x1="368.13" y1="-342.22" x2="-104.87" y2="130.78"/>
          <line class="cls-10" x1="374" y1="-336.35" x2="-98.99" y2="136.65"/>
          <line class="cls-10" x1="358.95" y1="-350.66" x2="-114.05" y2="122.34"/>
          <line class="cls-10" x1="364.82" y1="-344.79" x2="-108.17" y2="128.21"/>
          <line class="cls-10" x1="371.07" y1="-339.28" x2="-101.93" y2="133.71"/>
          <line class="cls-10" x1="376.94" y1="-333.41" x2="-96.06" y2="139.59"/>
          <line class="cls-10" x1="379.51" y1="-330.1" x2="-93.49" y2="142.89"/>
          <line class="cls-10" x1="382.44" y1="-327.17" x2="-90.55" y2="145.83"/>
          <line class="cls-10" x1="385.75" y1="-324.6" x2="-87.25" y2="148.4"/>
          <line class="cls-10" x1="388.69" y1="-321.66" x2="-84.31" y2="151.33"/>
          <line class="cls-10" x1="391.25" y1="-318.36" x2="-81.74" y2="154.64"/>
          <line class="cls-10" x1="394.19" y1="-315.42" x2="-78.81" y2="157.58"/>
          <line class="cls-10" x1="397.5" y1="-312.85" x2="-75.5" y2="160.14"/>
          <line class="cls-10" x1="400.43" y1="-309.92" x2="-72.56" y2="163.08"/>
          <line class="cls-10" x1="403" y1="-306.61" x2="-70" y2="166.39"/>
          <line class="cls-10" x1="408.87" y1="-300.74" x2="-64.12" y2="172.26"/>
          <line class="cls-10" x1="415.12" y1="-295.23" x2="-57.88" y2="177.76"/>
          <line class="cls-10" x1="420.99" y1="-289.36" x2="-52.01" y2="183.64"/>
          <line class="cls-10" x1="435.31" y1="-274.31" x2="-37.69" y2="198.69"/>
          <line class="cls-10" x1="438.24" y1="-271.37" x2="-34.76" y2="201.63"/>
          <line class="cls-10" x1="444.49" y1="-265.87" x2="-28.51" y2="207.13"/>
          <line class="cls-10" x1="450.36" y1="-259.99" x2="-22.64" y2="213"/>
          <line class="cls-10" x1="458.8" y1="-250.81" x2="-14.2" y2="222.18"/>
          <line class="cls-10" x1="461.74" y1="-247.88" x2="-11.26" y2="225.12"/>
          <line class="cls-10" x1="467.98" y1="-242.37" x2="-5.02" y2="230.62"/>
          <line class="cls-10" x1="476.79" y1="-233.56" x2="3.79" y2="239.43"/>
          <line class="cls-10" x1="491.1" y1="-218.51" x2="18.11" y2="254.49"/>
          <line class="cls-10" x1="496.98" y1="-212.64" x2="23.98" y2="260.36"/>
          <line class="cls-10" x1="500.28" y1="-210.07" x2="27.29" y2="262.93"/>
          <line class="cls-10" x1="506.16" y1="-204.2" x2="33.16" y2="268.8"/>
          <line class="cls-10" x1="514.6" y1="-195.02" x2="41.6" y2="277.98"/>
          <line class="cls-10" x1="523.41" y1="-186.21" x2="50.41" y2="286.79"/>
          <line class="cls-10" x1="529.65" y1="-180.7" x2="56.65" y2="292.3"/>
          <line class="cls-10" x1="538.46" y1="-171.89" x2="65.46" y2="301.11"/>
          <line class="cls-10" x1="520.47" y1="-189.14" x2="47.47" y2="283.86"/>
          <line class="cls-10" x1="526.34" y1="-183.27" x2="53.35" y2="289.73"/>
          <line class="cls-10" x1="535.52" y1="-174.83" x2="62.53" y2="298.17"/>
          <line class="cls-10" x1="544.33" y1="-166.02" x2="71.34" y2="306.98"/>
          <line class="cls-10" x1="552.77" y1="-156.84" x2="79.78" y2="316.16"/>
          <line class="cls-10" x1="555.71" y1="-153.9" x2="82.71" y2="319.1"/>
          <line class="cls-10" x1="561.95" y1="-148.4" x2="88.96" y2="324.6"/>
          <line class="cls-10" x1="564.89" y1="-145.46" x2="91.89" y2="327.54"/>
          <line class="cls-10" x1="567.46" y1="-142.15" x2="94.46" y2="330.84"/>
          <line class="cls-10" x1="570.39" y1="-139.22" x2="97.4" y2="333.78"/>
          <line class="cls-10" x1="573.7" y1="-136.65" x2="100.7" y2="336.35"/>
          <line class="cls-10" x1="576.64" y1="-133.71" x2="103.64" y2="339.28"/>
          <line class="cls-10" x1="579.2" y1="-130.41" x2="106.21" y2="342.59"/>
          <line class="cls-10" x1="588.01" y1="-121.6" x2="115.02" y2="351.4"/>
          <line class="cls-10" x1="593.89" y1="-115.72" x2="120.89" y2="357.27"/>
          <line class="cls-10" x1="597.19" y1="-113.16" x2="124.2" y2="359.84"/>
          <line class="cls-10" x1="600.13" y1="-110.22" x2="127.13" y2="362.78"/>
          <line class="cls-10" x1="602.7" y1="-106.91" x2="129.7" y2="366.08"/>
          <line class="cls-10" x1="605.63" y1="-103.98" x2="132.64" y2="369.02"/>
          <line class="cls-10" x1="608.94" y1="-101.41" x2="135.94" y2="371.59"/>
          <line class="cls-10" x1="611.88" y1="-98.47" x2="138.88" y2="374.52"/>
          <line class="cls-10" x1="614.44" y1="-95.17" x2="141.45" y2="377.83"/>
          <line class="cls-10" x1="617.38" y1="-92.23" x2="144.38" y2="380.77"/>
          <line class="cls-10" x1="620.69" y1="-89.66" x2="147.69" y2="383.33"/>
          <line class="cls-10" x1="623.62" y1="-86.73" x2="150.63" y2="386.27"/>
          <line class="cls-10" x1="626.19" y1="-83.42" x2="153.19" y2="389.58"/>
          <line class="cls-10" x1="632.06" y1="-77.55" x2="159.07" y2="395.45"/>
          <line class="cls-10" x1="638.31" y1="-72.04" x2="165.31" y2="400.95"/>
          <line class="cls-10" x1="644.18" y1="-66.17" x2="171.18" y2="406.83"/>
          <line class="cls-10" x1="629.13" y1="-80.48" x2="156.13" y2="392.51"/>
          <line class="cls-10" x1="635" y1="-74.61" x2="162" y2="398.39"/>
          <line class="cls-10" x1="641.24" y1="-69.11" x2="168.25" y2="403.89"/>
          <line class="cls-10" x1="647.12" y1="-63.23" x2="174.12" y2="409.76"/>
          <line class="cls-10" x1="649.68" y1="-59.93" x2="176.69" y2="413.07"/>
          <line class="cls-10" x1="652.62" y1="-56.99" x2="179.62" y2="416.01"/>
          <line class="cls-10" x1="655.93" y1="-54.42" x2="182.93" y2="418.57"/>
          <line class="cls-10" x1="658.86" y1="-51.49" x2="185.87" y2="421.51"/>
          <line class="cls-10" x1="661.43" y1="-48.18" x2="188.43" y2="424.82"/>
          <line class="cls-10" x1="664.37" y1="-45.24" x2="191.37" y2="427.75"/>
          <line class="cls-10" x1="667.68" y1="-42.68" x2="194.68" y2="430.32"/>
          <line class="cls-10" x1="670.61" y1="-39.74" x2="197.61" y2="433.26"/>
          <line class="cls-10" x1="673.18" y1="-36.43" x2="200.18" y2="436.56"/>
          <line class="cls-10" x1="676.12" y1="-33.5" x2="203.12" y2="439.5"/>
          <line class="cls-10" x1="679.42" y1="-30.93" x2="206.42" y2="442.07"/>
          <line class="cls-10" x1="682.36" y1="-27.99" x2="209.36" y2="445"/>
          <line class="cls-10" x1="684.93" y1="-24.69" x2="211.93" y2="448.31"/>
          <line class="cls-10" x1="687.86" y1="-21.75" x2="214.86" y2="451.25"/>
          <line class="cls-10" x1="691.17" y1="-19.18" x2="218.17" y2="453.81"/>
          <line class="cls-10" x1="694.11" y1="-16.25" x2="221.11" y2="456.75"/>
          <line class="cls-10" x1="696.67" y1="-12.94" x2="223.67" y2="460.06"/>
          <line class="cls-10" x1="699.61" y1="-10" x2="226.61" y2="462.99"/>
          <line class="cls-10" x1="702.92" y1="-7.44" x2="229.92" y2="465.56"/>
          <line class="cls-10" x1="705.85" y1="-4.5" x2="232.86" y2="468.5"/>
          <line class="cls-10" x1="708.42" y1="-1.19" x2="235.42" y2="471.8"/>
          <line class="cls-10" x1="711.36" y1="1.74" x2="238.36" y2="474.74"/>
          <line class="cls-10" x1="714.66" y1="4.31" x2="241.67" y2="477.31"/>
          <line class="cls-10" x1="720.54" y1="10.18" x2="247.54" y2="483.18"/>
          <line class="cls-10" x1="728.98" y1="19.36" x2="255.98" y2="492.36"/>
          <line class="cls-10" x1="734.85" y1="25.24" x2="261.85" y2="498.23"/>
          <line class="cls-10" x1="744.03" y1="33.68" x2="271.03" y2="506.67"/>
          <line class="cls-10" x1="752.84" y1="42.49" x2="279.84" y2="515.48"/>
          <line class="cls-10" x1="731.91" y1="22.3" x2="258.92" y2="495.3"/>
          <line class="cls-10" x1="740.72" y1="31.11" x2="267.73" y2="504.11"/>
          <line class="cls-10" x1="749.9" y1="39.55" x2="276.91" y2="512.55"/>
          <line class="cls-10" x1="758.71" y1="48.36" x2="285.72" y2="521.36"/>
          <line class="cls-10" x1="764.22" y1="54.6" x2="291.22" y2="527.6"/>
          <line class="cls-10" x1="770.09" y1="60.48" x2="297.09" y2="533.48"/>
          <line class="cls-10" x1="779.27" y1="68.92" x2="306.27" y2="541.92"/>
          <line class="cls-10" x1="788.08" y1="77.73" x2="315.08" y2="550.73"/>
          <line class="cls-10" x1="799.46" y1="89.84" x2="326.46" y2="562.84"/>
          <line class="cls-10" x1="802.39" y1="92.78" x2="329.4" y2="565.78"/>
          <line class="cls-10" x1="808.64" y1="98.29" x2="335.64" y2="571.28"/>
          <line class="cls-10" x1="814.51" y1="104.16" x2="341.51" y2="577.16"/>
          <line class="cls-10" x1="822.95" y1="113.34" x2="349.95" y2="586.34"/>
          <line class="cls-10" x1="717.23" y1="7.62" x2="244.23" y2="480.61"/>
          <line class="cls-10" x1="723.47" y1="13.12" x2="250.48" y2="486.12"/>
          <line class="cls-10" x1="726.41" y1="16.06" x2="253.41" y2="489.05"/>
          <line class="cls-10" x1="737.79" y1="28.17" x2="264.79" y2="501.17"/>
          <line class="cls-10" x1="746.6" y1="36.98" x2="273.6" y2="509.98"/>
          <line class="cls-10" x1="755.78" y1="45.42" x2="282.78" y2="518.42"/>
          <line class="cls-10" x1="761.65" y1="51.3" x2="288.65" y2="524.29"/>
          <line class="cls-10" x1="767.15" y1="57.54" x2="294.16" y2="530.54"/>
          <line class="cls-10" x1="775.96" y1="66.35" x2="302.97" y2="539.35"/>
          <line class="cls-10" x1="785.14" y1="74.79" x2="312.15" y2="547.79"/>
          <line class="cls-10" x1="793.95" y1="83.6" x2="320.96" y2="556.6"/>
          <line class="cls-10" x1="773.03" y1="63.41" x2="300.03" y2="536.41"/>
          <line class="cls-10" x1="781.84" y1="72.22" x2="308.84" y2="545.22"/>
          <line class="cls-10" x1="791.02" y1="80.66" x2="318.02" y2="553.66"/>
          <line class="cls-10" x1="796.89" y1="86.54" x2="323.89" y2="559.54"/>
          <line class="cls-10" x1="805.33" y1="95.72" x2="332.33" y2="568.72"/>
          <line class="cls-10" x1="811.2" y1="101.59" x2="338.21" y2="574.59"/>
          <line class="cls-10" x1="817.45" y1="107.1" x2="344.45" y2="580.09"/>
          <line class="cls-10" x1="820.38" y1="110.03" x2="347.39" y2="583.03"/>
          <line class="cls-10" x1="825.89" y1="116.28" x2="352.89" y2="589.27"/>
          <line class="cls-10" x1="828.82" y1="119.21" x2="355.83" y2="592.21"/>
          <line class="cls-10" x1="832.13" y1="121.78" x2="359.13" y2="594.78"/>
          <line class="cls-10" x1="835.07" y1="124.72" x2="362.07" y2="597.71"/>
          <line class="cls-10" x1="837.63" y1="128.02" x2="364.64" y2="601.02"/>
          <line class="cls-10" x1="840.57" y1="130.96" x2="367.57" y2="603.96"/>
          <line class="cls-10" x1="843.88" y1="133.53" x2="370.88" y2="606.52"/>
          <line class="cls-10" x1="846.81" y1="136.46" x2="373.82" y2="609.46"/>
          <line class="cls-10" x1="849.38" y1="139.77" x2="376.38" y2="612.77"/>
          <line class="cls-10" x1="852.32" y1="142.71" x2="379.32" y2="615.7"/>
          <line class="cls-10" x1="855.62" y1="145.27" x2="382.63" y2="618.27"/>
          <line class="cls-10" x1="858.56" y1="148.21" x2="385.56" y2="621.21"/>
          <line class="cls-10" x1="861.13" y1="151.52" x2="388.13" y2="624.51"/>
          <line class="cls-10" x1="864.06" y1="154.45" x2="391.07" y2="627.45"/>
          <line class="cls-10" x1="867.37" y1="157.02" x2="394.37" y2="630.02"/>
          <line class="cls-10" x1="870.31" y1="159.96" x2="397.31" y2="632.95"/>
          <line class="cls-10" x1="872.87" y1="163.26" x2="399.88" y2="636.26"/>
          <line class="cls-10" x1="875.81" y1="166.2" x2="402.81" y2="639.2"/>
          <line class="cls-10" x1="879.12" y1="168.77" x2="406.12" y2="641.76"/>
          <line class="cls-10" x1="882.05" y1="171.7" x2="409.06" y2="644.7"/>
          <line class="cls-10" x1="884.62" y1="175.01" x2="411.62" y2="648.01"/>
          <line class="cls-10" x1="887.56" y1="177.95" x2="414.56" y2="650.94"/>
          <line class="cls-10" x1="405.94" y1="-303.67" x2="-67.06" y2="169.32"/>
          <line class="cls-10" x1="412.18" y1="-298.17" x2="-60.82" y2="174.83"/>
          <line class="cls-10" x1="418.06" y1="-292.3" x2="-54.94" y2="180.7"/>
          <line class="cls-10" x1="423.56" y1="-286.05" x2="-49.44" y2="186.94"/>
          <line class="cls-10" x1="426.5" y1="-283.12" x2="-46.5" y2="189.88"/>
          <line class="cls-10" x1="429.8" y1="-280.55" x2="-43.2" y2="192.45"/>
          <line class="cls-10" x1="432.74" y1="-277.61" x2="-40.26" y2="195.38"/>
          <line class="cls-10" x1="441.18" y1="-268.43" x2="-31.82" y2="204.56"/>
          <line class="cls-10" x1="447.05" y1="-262.56" x2="-25.95" y2="210.44"/>
          <line class="cls-10" x1="453.3" y1="-257.06" x2="-19.7" y2="215.94"/>
          <line class="cls-10" x1="456.23" y1="-254.12" x2="-16.76" y2="218.88"/>
          <line class="cls-10" x1="464.67" y1="-244.94" x2="-8.32" y2="228.06"/>
          <line class="cls-10" x1="473.48" y1="-236.13" x2="0.49" y2="236.87"/>
          <line class="cls-10" x1="482.66" y1="-227.69" x2="9.67" y2="245.31"/>
          <line class="cls-10" x1="488.54" y1="-221.82" x2="15.54" y2="251.18"/>
          <line class="cls-10" x1="470.55" y1="-239.07" x2="-2.45" y2="233.93"/>
          <line class="cls-10" x1="479.36" y1="-230.26" x2="6.36" y2="242.74"/>
          <line class="cls-10" x1="485.6" y1="-224.75" x2="12.6" y2="248.24"/>
          <line class="cls-10" x1="494.41" y1="-215.94" x2="21.41" y2="257.05"/>
          <line class="cls-10" x1="502.85" y1="-206.76" x2="29.85" y2="266.23"/>
          <line class="cls-10" x1="508.72" y1="-200.89" x2="35.73" y2="272.11"/>
          <line class="cls-10" x1="512.03" y1="-198.32" x2="39.03" y2="274.68"/>
          <line class="cls-10" x1="517.9" y1="-192.45" x2="44.91" y2="280.55"/>
          <line class="cls-10" x1="532.22" y1="-177.4" x2="59.22" y2="295.6"/>
          <line class="cls-10" x1="541.03" y1="-168.59" x2="68.03" y2="304.41"/>
          <line class="cls-10" x1="547.27" y1="-163.08" x2="74.27" y2="309.92"/>
          <line class="cls-10" x1="550.21" y1="-160.14" x2="77.21" y2="312.85"/>
          <line class="cls-10" x1="558.65" y1="-150.96" x2="85.65" y2="322.03"/>
          <line class="cls-10" x1="582.14" y1="-127.47" x2="109.14" y2="345.53"/>
          <line class="cls-10" x1="585.45" y1="-124.9" x2="112.45" y2="348.09"/>
          <line class="cls-10" x1="591.32" y1="-119.03" x2="118.32" y2="353.97"/>
        </g>
      </g>
      <line class="cls-11" x1="60.22" y1="154.85" x2="694.21" y2="154.85"/>
      <line class="cls-11" x1="187.02" y1="149.61" x2="187.02" y2="160.26"/>
      <line class="cls-11" x1="60.22" y1="149.61" x2="60.22" y2="160.26"/>
      <line class="cls-11" x1="313.82" y1="149.61" x2="313.82" y2="160.26"/>
      <line class="cls-11" x1="440.62" y1="149.61" x2="440.62" y2="160.26"/>
      <line class="cls-11" x1="567.42" y1="149.61" x2="567.42" y2="160.26"/>
      <line class="cls-11" x1="694.21" y1="149.61" x2="694.21" y2="160.26"/>
      <g>
        <circle class="cls-12" cx="63.37" cy="118.38" r="22.23"/>
        <g>
          <path class="cls-13" d="M76.38,118.12H73.12l-9.88-9.88-9.88,9.88H49.91v7H48.39V127H61.21v-5.83h3.85v5.94h12.7v-1.83H76.37Zm-21.63,6.39h-3v-3.39h3Zm4.93,0H56.74v-3.39h3Zm5.39-6.76H61.22v-4a1.93,1.93,0,1,1,3.85,0Zm4.48,6.76h-3v-3.39h2.94Zm4.93,0H71.54v-3.39h3Z"/>
          <polygon class="cls-13" points="73.62 111.57 69.74 111.57 63.24 105.07 56.74 111.57 52.5 111.57 48.14 116.18 48.14 117.41 53.04 117.41 63.24 107.21 73.44 117.41 76.38 117.41 76.38 117.38 78.34 117.38 78.34 116.18 73.62 111.57"/>
        </g>
      </g>
      <circle class="cls-14" cx="63.37" cy="75.77" r="17.52"/>
      <g>
        <circle class="cls-15" cx="63.37" cy="42.59" r="12.8"/>
        <path class="cls-13" d="M68.43,38.92H58.05A1.12,1.12,0,0,0,56.93,40v5.69a1.12,1.12,0,0,0,1.12,1.12H68.42a1.12,1.12,0,0,0,1.12-1.12V40A1.12,1.12,0,0,0,68.43,38.92Zm-7.71,6.73h-2.4V44.12h2.4Zm7.46-4.33H57.83V40.24H68.17Z"/>
      </g>
      <g>
        <path class="cls-16" d="M177.83,169.93l.79-1a2.4,2.4,0,0,0,1.77.73c.79,0,1.24-.45,1.24-1s-.44-1-1.2-1a1.91,1.91,0,0,0-1.4.54l-1-.27v-3.81h4.58v1.25h-3.16V167a2.11,2.11,0,0,1,1.47-.56,2.08,2.08,0,0,1,2.14,2s0,.09,0,.14c0,1.41-1.06,2.31-2.67,2.31A3.33,3.33,0,0,1,177.83,169.93Z"/>
        <path class="cls-16" d="M186.64,171.56a1.1,1.1,0,0,0,.4.08.64.64,0,0,0,.67-.35l.18-.42-2-4.89h1.36l1.26,3.36,1.27-3.36h1.36l-2.27,5.62a1.75,1.75,0,0,1-1.83,1.17,2.71,2.71,0,0,1-.62-.08Z"/>
        <path class="cls-16" d="M191.75,170.81V166H193v.65a2.12,2.12,0,0,1,1.54-.77v1.26a1.65,1.65,0,0,0-.35,0,1.62,1.62,0,0,0-1.19.55v3.19Z"/>
        <path class="cls-16" d="M194.32,170.12a.81.81,0,1,1,.81.81h0A.82.82,0,0,1,194.32,170.12Z"/>
      </g>
      <g>
        <path class="cls-16" d="M53.91,167.48c0-1.72.85-3.44,2.76-3.44s2.76,1.72,2.76,3.44-.85,3.45-2.76,3.45S53.91,169.2,53.91,167.48Zm4.07,0c0-1.23-.35-2.18-1.31-2.18s-1.31,1-1.31,2.18.36,2.19,1.31,2.19S58,168.71,58,167.48Z"/>
        <path class="cls-16" d="M63,171.56a1.1,1.1,0,0,0,.4.08.64.64,0,0,0,.67-.35l.18-.42-2-4.89H63.6l1.26,3.36L66.13,166h1.41l-2.27,5.62a1.75,1.75,0,0,1-1.83,1.17,2.71,2.71,0,0,1-.62-.08Z"/>
        <path class="cls-16" d="M68.1,170.81V166h1.27v.65a2.12,2.12,0,0,1,1.54-.77v1.26a1.65,1.65,0,0,0-.35,0,1.62,1.62,0,0,0-1.19.55v3.19Z"/>
        <path class="cls-16" d="M70.67,170.12a.81.81,0,1,1,.81.81h0A.82.82,0,0,1,70.67,170.12Z"/>
      </g>
      <g>
        <path class="cls-16" d="M305.91,170.81V166l-1.11,1.15-.81-.85,2.1-2.11h1.24v6.67Z"/>
        <path class="cls-16" d="M308.33,167.48c0-1.72.85-3.44,2.76-3.44s2.76,1.72,2.76,3.44-.85,3.45-2.76,3.45S308.33,169.2,308.33,167.48Zm4.07,0c0-1.23-.35-2.18-1.31-2.18s-1.31,1-1.31,2.18.36,2.19,1.31,2.19S312.4,168.71,312.4,167.48Z"/>
        <path class="cls-16" d="M317.41,171.56a1.1,1.1,0,0,0,.4.08.64.64,0,0,0,.67-.35l.18-.42-2-4.89H318l1.26,3.36,1.27-3.36h1.36l-2.27,5.62a1.75,1.75,0,0,1-1.83,1.17,2.71,2.71,0,0,1-.62-.08Z"/>
        <path class="cls-16" d="M322.54,170.81V166h1.27v.65a2.12,2.12,0,0,1,1.54-.77v1.26a1.65,1.65,0,0,0-.35,0,1.62,1.62,0,0,0-1.19.55v3.19Z"/>
        <path class="cls-16" d="M325.09,170.12a.81.81,0,1,1,.81.81h0A.82.82,0,0,1,325.09,170.12Z"/>
      </g>
      <g>
        <path class="cls-16" d="M430.91,170.81V166l-1.11,1.15-.81-.85,2.1-2.11h1.24v6.67Z"/>
        <path class="cls-16" d="M433.48,169.93l.79-1a2.4,2.4,0,0,0,1.77.73c.79,0,1.24-.45,1.24-1s-.44-1-1.2-1a1.91,1.91,0,0,0-1.4.54l-1-.27v-3.81h4.58v1.25H435.1V167a2.11,2.11,0,0,1,1.47-.56,2.08,2.08,0,0,1,2.14,2s0,.09,0,.14c0,1.41-1.06,2.31-2.67,2.31A3.33,3.33,0,0,1,433.48,169.93Z"/>
        <path class="cls-16" d="M442.29,171.56a1.1,1.1,0,0,0,.4.08.64.64,0,0,0,.67-.35l.18-.42-2-4.89h1.36l1.26,3.36,1.27-3.36h1.36l-2.25,5.62a1.75,1.75,0,0,1-1.83,1.17,2.71,2.71,0,0,1-.62-.08Z"/>
        <path class="cls-16" d="M447.4,170.81V166h1.27v.65a2.12,2.12,0,0,1,1.54-.77v1.26a1.65,1.65,0,0,0-.35,0,1.62,1.62,0,0,0-1.19.55v3.19Z"/>
        <path class="cls-16" d="M450,170.12a.81.81,0,1,1,.81.81h0A.82.82,0,0,1,450,170.12Z"/>
      </g>
      <g>
        <path class="cls-16" d="M555.91,170.81v-1.12c2.73-2,3.53-2.7,3.53-3.52,0-.59-.53-.87-1.08-.87a2.39,2.39,0,0,0-1.82.82l-.81-.94a3.4,3.4,0,0,1,2.57-1.09c1.43,0,2.55.8,2.55,2.13,0,1.14-.94,2.13-2.67,3.39h2.72v1.25Z"/>
        <path class="cls-16" d="M561.78,167.48c0-1.72.85-3.44,2.76-3.44s2.76,1.72,2.76,3.44-.85,3.45-2.76,3.45S561.78,169.2,561.78,167.48Zm4.07,0c0-1.23-.35-2.18-1.31-2.18s-1.31,1-1.31,2.18.36,2.19,1.31,2.19S565.85,168.71,565.85,167.48Z"/>
        <path class="cls-16" d="M570.86,171.56a1.1,1.1,0,0,0,.4.08.64.64,0,0,0,.67-.35l.18-.42-2-4.89h1.43l1.26,3.36,1.27-3.36h1.36l-2.27,5.62a1.75,1.75,0,0,1-1.83,1.17,2.71,2.71,0,0,1-.62-.08Z"/>
        <path class="cls-16" d="M576,170.81V166h1.27v.65a2.12,2.12,0,0,1,1.54-.77v1.26a1.65,1.65,0,0,0-.35,0,1.62,1.62,0,0,0-1.19.55v3.19Z"/>
        <path class="cls-16" d="M578.54,170.12a.81.81,0,1,1,.81.81h0A.82.82,0,0,1,578.54,170.12Z"/>
      </g>
      <g>
        <path class="cls-16" d="M681.46,170.81v-1.12c2.73-2,3.53-2.7,3.53-3.52,0-.59-.53-.87-1.08-.87a2.39,2.39,0,0,0-1.79.77l-.81-.94a3.4,3.4,0,0,1,2.57-1.09c1.43,0,2.55.8,2.55,2.13,0,1.14-.94,2.13-2.67,3.39h2.72v1.25Z"/>
        <path class="cls-16" d="M687.48,169.93l.79-1a2.4,2.4,0,0,0,1.77.73c.79,0,1.24-.45,1.24-1s-.44-1-1.2-1a1.91,1.91,0,0,0-1.4.54l-1-.27v-3.81h4.58v1.25H689.1V167a2.11,2.11,0,0,1,1.47-.56,2.08,2.08,0,0,1,2.14,2s0,.09,0,.14c0,1.41-1.06,2.31-2.67,2.31A3.33,3.33,0,0,1,687.48,169.93Z"/>
        <path class="cls-16" d="M696.29,171.56a1.1,1.1,0,0,0,.4.08.64.64,0,0,0,.67-.35l.18-.42-2-4.89h1.36l1.26,3.36,1.27-3.36h1.36l-2.25,5.62a1.75,1.75,0,0,1-1.83,1.17,2.71,2.71,0,0,1-.62-.08Z"/>
        <path class="cls-16" d="M701.4,170.81V166h1.27v.65a2.12,2.12,0,0,1,1.54-.77v1.26a1.65,1.65,0,0,0-.35,0,1.62,1.62,0,0,0-1.19.55v3.19Z"/>
        <path class="cls-16" d="M704,170.12a.81.81,0,1,1,.81.81h0A.82.82,0,0,1,704,170.12Z"/>
      </g>
      <g>
        <path class="cls-17" d="M319.68,18.88,318,12.46l-1.62,6.42H314.3l-2.67-9.34h2.23l1.64,6.75,1.78-6.75h1.55l1.77,6.75,1.64-6.75h2.23l-2.66,9.34Z"/>
        <path class="cls-17" d="M325.17,10.32a1.06,1.06,0,1,1,1.06,1.06,1.06,1.06,0,0,1-1.06-1.06Zm.17,8.56V12.12h1.78v6.77Z"/>
        <path class="cls-17" d="M329.25,17.18V13.66h-1.12V12.12h1.12V10.27H331v1.85h1.37v1.55H331v3c0,.43.22.76.62.76a.89.89,0,0,0,.62-.21l.38,1.36a2.2,2.2,0,0,1-1.49.43,1.69,1.69,0,0,1-1.91-1.83Z"/>
        <path class="cls-17" d="M338.2,18.88V14.76c0-.94-.49-1.23-1.25-1.23a2,2,0,0,0-1.54.78v4.57h-1.79V9.54h1.79V13a3.14,3.14,0,0,1,2.37-1,2,2,0,0,1,2.2,2.13v4.8Z"/>
        <path class="cls-17" d="M345.38,18.88V9.54h3.68c2.93,0,5,1.86,5,4.66s-2,4.68-5,4.68ZM352,14.2a2.73,2.73,0,0,0-2.54-2.91h-2.08v5.83h1.7A2.8,2.8,0,0,0,352,14.45q0-.12,0-.25Z"/>
        <path class="cls-17" d="M355,15.49A3.45,3.45,0,0,1,358.31,12h.14a3.4,3.4,0,0,1,3.39,3.71v.46h-5a1.81,1.81,0,0,0,2,1.51,2.82,2.82,0,0,0,1.79-.66l.8,1.18a4.22,4.22,0,0,1-2.79.94,3.43,3.43,0,0,1-3.64-3.6Zm3.5-2.09a1.56,1.56,0,0,0-1.65,1.44h3.33a1.55,1.55,0,0,0-1.65-1.44Z"/>
        <path class="cls-17" d="M363.13,18.88V9.54h1.78V13A2.57,2.57,0,0,1,367,12c1.72,0,3,1.34,3,3.54s-1.29,3.56-3,3.56a2.63,2.63,0,0,1-2.09-1V19Zm3.32-1.42a2,2,0,1,0-1.54-3.16v2.4a2,2,0,0,0,1.54.76Z"/>
        <path class="cls-17" d="M371.7,17.18V13.66h-1.16V12.12h1.12V10.27h1.78v1.85h1.37v1.55h-1.37v3c0,.43.22.76.62.76a.9.9,0,0,0,.62-.21l.38,1.36a2.19,2.19,0,0,1-1.48.43,1.68,1.68,0,0,1-1.88-1.83Z"/>
        <path class="cls-17" d="M385,18.88l-1.83-3.32h-1.46v3.32h-2V9.54h4.37a2.92,2.92,0,0,1,3.15,3,2.7,2.7,0,0,1-2.06,2.77l2.11,3.56Zm.2-6.35a1.26,1.26,0,0,0-1.26-1.26h-2.23V13.8h2.1a1.27,1.27,0,0,0,1.38-1.14S385.18,12.57,385.18,12.53Z"/>
        <path class="cls-17" d="M387.81,15.49A3.45,3.45,0,0,1,391.17,12h.14a3.4,3.4,0,0,1,3.39,3.71v.46h-5a1.81,1.81,0,0,0,2,1.51,2.82,2.82,0,0,0,1.79-.66l.8,1.18a4.22,4.22,0,0,1-2.79.94,3.43,3.43,0,0,1-3.64-3.6Zm3.5-2.09a1.56,1.56,0,0,0-1.65,1.44H393a1.55,1.55,0,0,0-1.65-1.44Z"/>
        <path class="cls-17" d="M400.64,18.88V18a2.61,2.61,0,0,1-2.09,1c-1.7,0-3-1.29-3-3.56s1.28-3.54,3-3.54a2.57,2.57,0,0,1,2.09,1V9.46h1.79V18.8Zm0-2.19V14.3a1.93,1.93,0,0,0-1.53-.77,2,2,0,0,0,0,3.94A1.93,1.93,0,0,0,400.64,16.69Z"/>
        <path class="cls-17" d="M408.76,18.88V18a3.22,3.22,0,0,1-2.38,1,1.94,1.94,0,0,1-2.19-2.13V12.12H406v4.1a1.09,1.09,0,0,0,1.25,1.25,2,2,0,0,0,1.54-.77V12.12h1.78v6.77Z"/>
        <path class="cls-17" d="M411.86,15.49a3.44,3.44,0,0,1,3.34-3.54h.25a3.15,3.15,0,0,1,2.67,1.22L417,14.26a1.64,1.64,0,0,0-1.43-.73,2,2,0,0,0,0,3.94,1.69,1.69,0,0,0,1.43-.74l1.16,1.09a3.15,3.15,0,0,1-2.67,1.23,3.44,3.44,0,0,1-3.59-3.28Q411.86,15.63,411.86,15.49Z"/>
        <path class="cls-17" d="M419.65,17.18V13.66h-1.11V12.12h1.12V10.27h1.78v1.85h1.37v1.55h-1.37v3c0,.43.22.76.62.76a.9.9,0,0,0,.62-.21l.38,1.36a2.19,2.19,0,0,1-1.48.43,1.68,1.68,0,0,1-1.93-1.83Z"/>
        <path class="cls-17" d="M423.84,10.32a1.06,1.06,0,1,1,1.06,1.06,1.06,1.06,0,0,1-1.06-1.06Zm.17,8.56V12.12h1.78v6.77Z"/>
        <path class="cls-17" d="M427.12,15.49a3.58,3.58,0,1,1,3.6,3.56h0a3.43,3.43,0,0,1-3.57-3.28Q427.12,15.63,427.12,15.49Zm5.31,0a1.75,1.75,0,1,0-1.74,2,1.78,1.78,0,0,0,1.74-2Z"/>
        <path class="cls-17" d="M440.17,18.88V14.79a1.1,1.1,0,0,0-1.25-1.26,2,2,0,0,0-1.54.78v4.57H435.6V12.12h1.78V13a3.17,3.17,0,0,1,2.37-1A2,2,0,0,1,442,14.15v4.78Z"/>
      </g>
      <g class="cls-18">
        <text class="cls-19" transform="translate(382.49 118.41)">Debt </text>
        <text class="cls-20" transform="translate(407.01 118.41)">P</text>
        <text class="cls-19" transform="translate(413.06 118.41)">aid</text>
      </g>
      <path class="cls-21" d="M601.54,96.12H561c6.38,2.49,12.36,5,17.91,7.63Q590.43,100,601.54,96.12Z"/>
      <path class="cls-21" d="M694.21,93.29v-35H693c-22.15,11.2-51,23.42-83.36,35Z"/>
      <path class="cls-21" d="M623.12,140.61h71.1V96.12H601.54q-11.1,3.88-22.67,7.63C603.42,115.25,619.36,127.62,623.12,140.61Z"/>
      <path class="cls-21" d="M609.62,93.29c32.4-11.63,61.21-23.85,83.36-35H417.34c52.23,9.84,99.79,21.7,136.09,35Z"/>
      <path class="cls-21" d="M694.21,29.79h-512a1924.19,1924.19,0,0,1,219.51,25.6H694.21Z"/>
      <path class="cls-21" d="M578.88,103.78c-5.54-2.59-11.53-5.13-17.91-7.63H207.64c50.18,20.7,117.81,38.72,198.07,44.46H623.12C619.36,127.62,603.42,115.25,578.88,103.78ZM417.34,58.25h-280c15.24,11.28,36.65,23.5,63.45,35H553.43C517.14,79.94,469.54,68.12,417.34,58.25ZM182.21,29.79h-70.9c2.28,7,9.9,15.88,22.31,25.6h268.1A1924.19,1924.19,0,0,0,182.21,29.79Z"/>
      <g class="cls-22">
        <g>
          <line class="cls-23" x1="371.19" y1="-262.8" x2="-24.75" y2="133.14"/>
          <line class="cls-23" x1="373.65" y1="-260.35" x2="-22.29" y2="135.59"/>
          <line class="cls-23" x1="376.42" y1="-258.2" x2="-19.52" y2="137.74"/>
          <line class="cls-23" x1="378.87" y1="-255.74" x2="-17.07" y2="140.2"/>
          <line class="cls-23" x1="381.02" y1="-252.97" x2="-14.92" y2="142.97"/>
          <line class="cls-23" x1="383.48" y1="-250.51" x2="-12.46" y2="145.43"/>
          <line class="cls-23" x1="386.25" y1="-248.36" x2="-9.69" y2="147.58"/>
          <line class="cls-23" x1="388.71" y1="-245.91" x2="-7.23" y2="150.03"/>
          <line class="cls-23" x1="390.86" y1="-243.14" x2="-5.08" y2="152.8"/>
          <line class="cls-23" x1="393.31" y1="-240.68" x2="-2.63" y2="155.26"/>
          <line class="cls-23" x1="396.08" y1="-238.53" x2="0.14" y2="157.41"/>
          <line class="cls-23" x1="398.54" y1="-236.07" x2="2.6" y2="159.87"/>
          <line class="cls-23" x1="400.69" y1="-233.3" x2="4.75" y2="162.64"/>
          <line class="cls-23" x1="405.61" y1="-228.39" x2="9.67" y2="167.55"/>
          <line class="cls-23" x1="410.83" y1="-223.78" x2="14.89" y2="172.16"/>
          <line class="cls-23" x1="415.75" y1="-218.86" x2="19.81" y2="177.08"/>
          <line class="cls-23" x1="403.15" y1="-230.85" x2="7.21" y2="165.09"/>
          <line class="cls-23" x1="408.06" y1="-225.93" x2="12.12" y2="170.01"/>
          <line class="cls-23" x1="413.29" y1="-221.32" x2="17.35" y2="174.62"/>
          <line class="cls-23" x1="418.21" y1="-216.41" x2="22.27" y2="179.53"/>
          <line class="cls-23" x1="420.36" y1="-213.64" x2="24.42" y2="182.3"/>
          <line class="cls-23" x1="422.81" y1="-211.18" x2="26.87" y2="184.76"/>
          <line class="cls-23" x1="425.58" y1="-209.03" x2="29.64" y2="186.91"/>
          <line class="cls-23" x1="428.04" y1="-206.57" x2="32.1" y2="189.37"/>
          <line class="cls-23" x1="430.19" y1="-203.81" x2="34.25" y2="192.14"/>
          <line class="cls-23" x1="432.65" y1="-201.35" x2="36.71" y2="194.59"/>
          <line class="cls-23" x1="435.42" y1="-199.2" x2="39.47" y2="196.74"/>
          <line class="cls-23" x1="437.87" y1="-196.74" x2="41.93" y2="199.2"/>
          <line class="cls-23" x1="440.02" y1="-193.97" x2="44.08" y2="201.97"/>
          <line class="cls-23" x1="444.94" y1="-189.06" x2="49" y2="206.89"/>
          <line class="cls-23" x1="450.17" y1="-184.45" x2="54.22" y2="211.49"/>
          <line class="cls-23" x1="455.08" y1="-179.53" x2="59.14" y2="216.41"/>
          <line class="cls-23" x1="467.06" y1="-166.93" x2="71.12" y2="229.01"/>
          <line class="cls-23" x1="469.52" y1="-164.47" x2="73.58" y2="231.47"/>
          <line class="cls-23" x1="474.75" y1="-159.87" x2="78.81" y2="236.07"/>
          <line class="cls-23" x1="479.66" y1="-154.95" x2="83.72" y2="240.99"/>
          <line class="cls-23" x1="486.73" y1="-147.26" x2="90.79" y2="248.68"/>
          <line class="cls-23" x1="489.19" y1="-144.81" x2="93.25" y2="251.13"/>
          <line class="cls-23" x1="494.41" y1="-140.2" x2="98.47" y2="255.74"/>
          <line class="cls-23" x1="501.79" y1="-132.82" x2="105.85" y2="263.12"/>
          <line class="cls-23" x1="513.77" y1="-120.22" x2="117.83" y2="275.72"/>
          <line class="cls-23" x1="518.69" y1="-115.31" x2="122.75" y2="280.63"/>
          <line class="cls-23" x1="521.46" y1="-113.16" x2="125.51" y2="282.78"/>
          <line class="cls-23" x1="526.37" y1="-108.24" x2="130.43" y2="287.7"/>
          <line class="cls-23" x1="533.44" y1="-100.56" x2="137.5" y2="295.38"/>
          <line class="cls-23" x1="540.81" y1="-93.18" x2="144.87" y2="302.76"/>
          <line class="cls-23" x1="546.04" y1="-88.58" x2="150.1" y2="307.37"/>
          <line class="cls-23" x1="553.41" y1="-81.2" x2="157.47" y2="314.74"/>
          <line class="cls-23" x1="538.35" y1="-95.64" x2="142.41" y2="300.3"/>
          <line class="cls-23" x1="543.27" y1="-90.72" x2="147.33" y2="305.22"/>
          <line class="cls-23" x1="550.95" y1="-83.66" x2="155.01" y2="312.28"/>
          <line class="cls-23" x1="558.33" y1="-76.28" x2="162.39" y2="319.66"/>
          <line class="cls-23" x1="565.39" y1="-68.6" x2="169.45" y2="327.34"/>
          <line class="cls-23" x1="567.85" y1="-66.14" x2="171.91" y2="329.8"/>
          <line class="cls-23" x1="573.08" y1="-61.53" x2="177.14" y2="334.41"/>
          <line class="cls-23" x1="575.54" y1="-59.08" x2="179.6" y2="336.86"/>
          <line class="cls-23" x1="577.69" y1="-56.31" x2="181.75" y2="339.63"/>
          <line class="cls-23" x1="580.14" y1="-53.85" x2="184.2" y2="342.09"/>
          <line class="cls-23" x1="582.91" y1="-51.7" x2="186.97" y2="344.24"/>
          <line class="cls-23" x1="585.37" y1="-49.24" x2="189.43" y2="346.7"/>
          <line class="cls-23" x1="587.52" y1="-46.48" x2="191.58" y2="349.47"/>
          <line class="cls-23" x1="594.89" y1="-39.1" x2="198.95" y2="356.84"/>
          <line class="cls-23" x1="599.81" y1="-34.18" x2="203.87" y2="361.76"/>
          <line class="cls-23" x1="602.58" y1="-32.04" x2="206.64" y2="363.91"/>
          <line class="cls-23" x1="605.04" y1="-29.58" x2="209.1" y2="366.36"/>
          <line class="cls-23" x1="607.19" y1="-26.81" x2="211.24" y2="369.13"/>
          <line class="cls-23" x1="609.64" y1="-24.35" x2="213.7" y2="371.59"/>
          <line class="cls-23" x1="612.41" y1="-22.2" x2="216.47" y2="373.74"/>
          <line class="cls-23" x1="614.87" y1="-19.74" x2="218.93" y2="376.2"/>
          <line class="cls-23" x1="617.02" y1="-16.98" x2="221.08" y2="378.97"/>
          <line class="cls-23" x1="619.48" y1="-14.52" x2="223.54" y2="381.42"/>
          <line class="cls-23" x1="622.25" y1="-12.37" x2="226.3" y2="383.57"/>
          <line class="cls-23" x1="624.7" y1="-9.91" x2="228.76" y2="386.03"/>
          <line class="cls-23" x1="626.85" y1="-7.14" x2="230.91" y2="388.8"/>
          <line class="cls-23" x1="631.77" y1="-2.23" x2="235.83" y2="393.71"/>
          <line class="cls-23" x1="636.99" y1="2.38" x2="241.05" y2="398.32"/>
          <line class="cls-23" x1="641.91" y1="7.3" x2="245.97" y2="403.24"/>
          <line class="cls-23" x1="629.31" y1="-4.68" x2="233.37" y2="391.26"/>
          <line class="cls-23" x1="634.23" y1="0.23" x2="238.29" y2="396.17"/>
          <line class="cls-23" x1="639.45" y1="4.84" x2="243.51" y2="400.78"/>
          <line class="cls-23" x1="644.37" y1="9.76" x2="248.43" y2="405.7"/>
          <line class="cls-23" x1="646.52" y1="12.52" x2="250.58" y2="408.46"/>
          <line class="cls-23" x1="648.98" y1="14.98" x2="253.04" y2="410.92"/>
          <line class="cls-23" x1="651.74" y1="17.13" x2="255.8" y2="413.07"/>
          <line class="cls-23" x1="654.2" y1="19.59" x2="258.26" y2="415.53"/>
          <line class="cls-23" x1="656.35" y1="22.36" x2="260.41" y2="418.3"/>
          <line class="cls-23" x1="658.81" y1="24.82" x2="262.87" y2="420.76"/>
          <line class="cls-23" x1="661.58" y1="26.96" x2="265.64" y2="422.9"/>
          <line class="cls-23" x1="664.04" y1="29.42" x2="268.1" y2="425.36"/>
          <line class="cls-23" x1="666.18" y1="32.19" x2="270.24" y2="428.13"/>
          <line class="cls-23" x1="668.64" y1="34.65" x2="272.7" y2="430.59"/>
          <line class="cls-23" x1="671.41" y1="36.8" x2="275.47" y2="432.74"/>
          <line class="cls-23" x1="673.87" y1="39.26" x2="277.93" y2="435.2"/>
          <line class="cls-23" x1="676.02" y1="42.02" x2="280.08" y2="437.96"/>
          <line class="cls-23" x1="678.48" y1="44.48" x2="282.54" y2="440.42"/>
          <line class="cls-23" x1="681.24" y1="46.63" x2="285.3" y2="442.57"/>
          <line class="cls-23" x1="683.7" y1="49.09" x2="287.76" y2="445.03"/>
          <line class="cls-23" x1="685.85" y1="51.86" x2="289.91" y2="447.8"/>
          <line class="cls-23" x1="688.31" y1="54.31" x2="292.37" y2="450.26"/>
          <line class="cls-23" x1="691.08" y1="56.46" x2="295.14" y2="452.4"/>
          <line class="cls-23" x1="693.54" y1="58.92" x2="297.59" y2="454.86"/>
          <line class="cls-23" x1="695.68" y1="61.69" x2="299.74" y2="457.63"/>
          <line class="cls-23" x1="698.14" y1="64.15" x2="302.2" y2="460.09"/>
          <line class="cls-23" x1="700.91" y1="66.3" x2="304.97" y2="462.24"/>
          <line class="cls-23" x1="705.83" y1="71.21" x2="309.89" y2="467.15"/>
          <line class="cls-23" x1="712.89" y1="78.9" x2="316.95" y2="474.84"/>
          <line class="cls-23" x1="717.81" y1="83.81" x2="321.87" y2="479.75"/>
          <line class="cls-23" x1="725.49" y1="90.88" x2="329.55" y2="486.82"/>
          <line class="cls-23" x1="732.87" y1="98.25" x2="336.93" y2="494.19"/>
          <line class="cls-23" x1="715.35" y1="81.36" x2="319.41" y2="477.3"/>
          <line class="cls-23" x1="722.73" y1="88.73" x2="326.78" y2="484.67"/>
          <line class="cls-23" x1="730.41" y1="95.8" x2="334.47" y2="491.74"/>
          <line class="cls-23" x1="737.78" y1="103.17" x2="341.84" y2="499.11"/>
          <line class="cls-23" x1="742.39" y1="108.4" x2="346.45" y2="504.34"/>
          <line class="cls-23" x1="747.31" y1="113.31" x2="351.37" y2="509.25"/>
          <line class="cls-23" x1="754.99" y1="120.38" x2="359.05" y2="516.32"/>
          <line class="cls-23" x1="762.37" y1="127.75" x2="366.43" y2="523.69"/>
          <line class="cls-23" x1="771.89" y1="137.9" x2="375.95" y2="533.84"/>
          <line class="cls-23" x1="774.35" y1="140.35" x2="378.41" y2="536.3"/>
          <line class="cls-23" x1="779.58" y1="144.96" x2="383.63" y2="540.9"/>
          <line class="cls-23" x1="784.49" y1="149.88" x2="388.55" y2="545.82"/>
          <line class="cls-23" x1="791.56" y1="157.56" x2="395.62" y2="553.5"/>
          <line class="cls-23" x1="703.06" y1="69.06" x2="307.12" y2="465.01"/>
          <line class="cls-23" x1="708.29" y1="73.67" x2="312.34" y2="469.61"/>
          <line class="cls-23" x1="710.74" y1="76.13" x2="314.8" y2="472.07"/>
          <line class="cls-23" x1="720.27" y1="86.27" x2="324.33" y2="482.21"/>
          <line class="cls-23" x1="727.64" y1="93.65" x2="331.7" y2="489.59"/>
          <line class="cls-23" x1="735.33" y1="100.71" x2="339.39" y2="496.65"/>
          <line class="cls-23" x1="740.24" y1="105.63" x2="344.3" y2="501.57"/>
          <line class="cls-23" x1="744.85" y1="110.86" x2="348.91" y2="506.8"/>
          <line class="cls-23" x1="752.22" y1="118.23" x2="356.28" y2="514.17"/>
          <line class="cls-23" x1="759.91" y1="125.3" x2="363.97" y2="521.24"/>
          <line class="cls-23" x1="767.28" y1="132.67" x2="371.34" y2="528.61"/>
          <line class="cls-23" x1="749.77" y1="115.77" x2="353.83" y2="511.71"/>
          <line class="cls-23" x1="757.14" y1="123.15" x2="361.2" y2="519.09"/>
          <line class="cls-23" x1="764.83" y1="130.21" x2="368.88" y2="526.15"/>
          <line class="cls-23" x1="769.74" y1="135.13" x2="373.8" y2="531.07"/>
          <line class="cls-23" x1="776.81" y1="142.81" x2="380.87" y2="538.75"/>
          <line class="cls-23" x1="781.72" y1="147.73" x2="385.78" y2="543.67"/>
          <line class="cls-23" x1="786.95" y1="152.34" x2="391.01" y2="548.28"/>
          <line class="cls-23" x1="789.41" y1="154.79" x2="393.47" y2="550.74"/>
          <line class="cls-23" x1="794.02" y1="160.02" x2="398.07" y2="555.96"/>
          <line class="cls-23" x1="796.47" y1="162.48" x2="400.53" y2="558.42"/>
          <line class="cls-23" x1="799.24" y1="164.63" x2="403.3" y2="560.57"/>
          <line class="cls-23" x1="801.7" y1="167.09" x2="405.76" y2="563.03"/>
          <line class="cls-23" x1="803.85" y1="169.85" x2="407.91" y2="565.79"/>
          <line class="cls-23" x1="806.31" y1="172.31" x2="410.37" y2="568.25"/>
          <line class="cls-23" x1="809.07" y1="174.46" x2="413.13" y2="570.4"/>
          <line class="cls-23" x1="811.53" y1="176.92" x2="415.59" y2="572.86"/>
          <line class="cls-23" x1="813.68" y1="179.69" x2="417.74" y2="575.63"/>
          <line class="cls-23" x1="442.48" y1="-191.51" x2="46.54" y2="204.43"/>
          <line class="cls-23" x1="447.71" y1="-186.91" x2="51.77" y2="209.03"/>
          <line class="cls-23" x1="452.62" y1="-181.99" x2="56.68" y2="213.95"/>
          <line class="cls-23" x1="457.23" y1="-176.76" x2="61.29" y2="219.18"/>
          <line class="cls-23" x1="459.69" y1="-174.31" x2="63.75" y2="221.63"/>
          <line class="cls-23" x1="462.46" y1="-172.16" x2="66.52" y2="223.78"/>
          <line class="cls-23" x1="464.91" y1="-169.7" x2="68.97" y2="226.24"/>
          <line class="cls-23" x1="471.98" y1="-162.01" x2="76.04" y2="233.93"/>
          <line class="cls-23" x1="476.9" y1="-157.1" x2="80.96" y2="238.84"/>
          <line class="cls-23" x1="482.12" y1="-152.49" x2="86.18" y2="243.45"/>
          <line class="cls-23" x1="484.58" y1="-150.03" x2="88.64" y2="245.91"/>
          <line class="cls-23" x1="491.65" y1="-142.35" x2="95.71" y2="253.59"/>
          <line class="cls-23" x1="499.02" y1="-134.97" x2="103.08" y2="260.97"/>
          <line class="cls-23" x1="506.71" y1="-127.91" x2="110.76" y2="268.03"/>
          <line class="cls-23" x1="511.62" y1="-122.99" x2="115.68" y2="272.95"/>
          <line class="cls-23" x1="496.56" y1="-137.43" x2="100.62" y2="258.51"/>
          <line class="cls-23" x1="503.94" y1="-130.06" x2="108" y2="265.88"/>
          <line class="cls-23" x1="509.16" y1="-125.45" x2="113.22" y2="270.49"/>
          <line class="cls-23" x1="516.54" y1="-118.08" x2="120.6" y2="277.87"/>
          <line class="cls-23" x1="523.6" y1="-110.39" x2="127.66" y2="285.55"/>
          <line class="cls-23" x1="528.52" y1="-105.47" x2="132.58" y2="290.47"/>
          <line class="cls-23" x1="531.29" y1="-103.33" x2="135.35" y2="292.62"/>
          <line class="cls-23" x1="536.21" y1="-98.41" x2="140.26" y2="297.53"/>
          <line class="cls-23" x1="548.19" y1="-85.81" x2="152.25" y2="310.13"/>
          <line class="cls-23" x1="555.56" y1="-78.43" x2="159.62" y2="317.51"/>
          <line class="cls-23" x1="560.79" y1="-73.83" x2="164.85" y2="322.11"/>
          <line class="cls-23" x1="563.25" y1="-71.37" x2="167.31" y2="324.57"/>
          <line class="cls-23" x1="570.31" y1="-63.68" x2="174.37" y2="332.26"/>
          <line class="cls-23" x1="589.98" y1="-44.02" x2="194.04" y2="351.92"/>
          <line class="cls-23" x1="592.75" y1="-41.87" x2="196.8" y2="354.07"/>
          <line class="cls-23" x1="597.66" y1="-36.95" x2="201.72" y2="358.99"/>
        </g>
      </g>
      <path class="cls-24" d="M182.21,29.78c182.33,10.34,424.7,54.85,440.92,110.83"/>
      <path class="cls-25" d="M110.54,25.61c0,31,139.65,116.91,348.65,116.91"/>
      <g>
        <path class="cls-13" d="M67.28,85.24v-8l-2.74,1.2a2.94,2.94,0,0,1-2.31,0L56.42,76v3.62a3.18,3.18,0,0,0,2.29,3,16.7,16.7,0,0,0,7.28.46v2.44a.87.87,0,0,0,1.67.34A.72.72,0,0,1,67.28,85.24Z"/>
        <path class="cls-13" d="M68.73,82.33a3.18,3.18,0,0,0,1.61-2.76V76l-1.61.69Z"/>
        <path class="cls-13" d="M75.06,71.64,64.33,66.75a2.31,2.31,0,0,0-1.91,0L51.69,71.64a.44.44,0,0,0,0,.81l10.77,4.67a2.31,2.31,0,0,0,1.82,0l3.07-1.32h0l-1-.44a.54.54,0,0,1,.4-1h0l1.36.57a.51.51,0,0,1,.31.4l6.68-2.86a.44.44,0,0,0,0-.83Z"/>
      </g>
      <circle class="cls-26" cx="402.77" cy="141.58" r="13.01"/>
      <g>
        <path class="cls-16" d="M7.54,77.26V71.84h-2V70.59h5.32v1.25H9v5.42Z"/>
        <path class="cls-16" d="M10.54,74.84a2.55,2.55,0,1,1,2.56,2.54h0A2.45,2.45,0,0,1,10.54,75Q10.54,74.94,10.54,74.84Zm3.79,0a1.25,1.25,0,1,0-1.24,1.41,1.27,1.27,0,0,0,1.24-1.3s0-.07,0-.11Z"/>
        <path class="cls-16" d="M16.85,76.05V73.54h-.8V72.43h.8V71.12h1.27v1.32h1v1.11h-1v2.17c0,.31.16.54.44.54a.64.64,0,0,0,.44-.15l.27,1a1.57,1.57,0,0,1-1.06.31,1.2,1.2,0,0,1-1.36-1.37Z"/>
        <path class="cls-16" d="M22.87,77.26v-.51a2,2,0,0,1-1.53.63,1.6,1.6,0,0,1-1.67-1.53s0,0,0-.07a1.53,1.53,0,0,1,1.49-1.57h.18a2,2,0,0,1,1.53.59V74.2c0-.49-.42-.81-1.06-.81a2,2,0,0,0-1.39.57l-.5-.89A3.12,3.12,0,0,1,22,72.31c1.11,0,2.12.44,2.12,1.83v3.12Zm0-1.16v-.6a1.27,1.27,0,0,0-1-.43c-.5,0-.91.27-.91.73s.41.72.91.72a1.27,1.27,0,0,0,1-.4Z"/>
        <path class="cls-16" d="M25.4,77.26V70.59h1.27v6.67Z"/>
        <path class="cls-16" d="M7.31,89.26V82.59H9.94a3.34,3.34,0,0,1,.37,6.67h-3ZM12,85.92a2,2,0,0,0-1.92-2.08H8.73V88H9.94A2,2,0,0,0,12,86.1C12,86,12,86,12,85.92Z"/>
        <path class="cls-16" d="M14.15,86.84a2.46,2.46,0,0,1,2.39-2.53h.11A2.41,2.41,0,0,1,19.07,87v.3H15.48a1.29,1.29,0,0,0,1.39,1.08,2,2,0,0,0,1.28-.47l.57.84a3,3,0,0,1-2,.67,2.44,2.44,0,0,1-2.57-2.3Q14.15,87,14.15,86.84Zm2.5-1.49a1.11,1.11,0,0,0-1.18,1h2.38A1.11,1.11,0,0,0,16.65,85.35Z"/>
        <path class="cls-16" d="M20,89.26V82.59h1.27v2.46a1.83,1.83,0,0,1,1.49-.74,2.57,2.57,0,0,1,0,5.07,1.87,1.87,0,0,1-1.49-.74v.62Zm2.37-1a1.42,1.42,0,0,0,0-2.81,1.42,1.42,0,0,0-1.1.56v1.71a1.43,1.43,0,0,0,1.1.53Z"/>
        <path class="cls-16" d="M26.11,88.05V85.54h-.8V84.43h.8V83.12h1.27v1.32h1v1.11h-1v2.17c0,.31.16.54.44.54a.64.64,0,0,0,.44-.15l.27,1a1.57,1.57,0,0,1-1.06.31,1.2,1.2,0,0,1-1.36-1.37Z"/>
      </g>
      <g>
        <path class="cls-17" d="M292.41,80.12V73.45h3.13a2.15,2.15,0,1,1,.29,4.29h-2v2.38Zm3.91-4.52a.9.9,0,0,0-.89-.91h-1.61v1.79h1.5a.9.9,0,0,0,1-.79s0,0,0-.07Z"/>
        <path class="cls-17" d="M298.15,77.73a2.55,2.55,0,1,1,2.56,2.54h0a2.44,2.44,0,0,1-2.55-2.33Q298.15,77.84,298.15,77.73Zm3.79,0a1.25,1.25,0,1,0-1.24,1.41A1.27,1.27,0,0,0,302,77.85s0-.08,0-.12Z"/>
        <path class="cls-17" d="M304.47,78.93V76.42h-.8v-1.1h.8V74h1.27v1.32h1v1.11h-1V78.6c0,.31.16.54.44.54a.64.64,0,0,0,.44-.15l.27,1a1.57,1.57,0,0,1-1.06.31,1.2,1.2,0,0,1-1.36-1.37Z"/>
        <path class="cls-17" d="M307.28,77.73a2.46,2.46,0,0,1,2.39-2.53h.11a2.41,2.41,0,0,1,2.42,2.65v.3h-3.59A1.29,1.29,0,0,0,310,79.23a2,2,0,0,0,1.28-.47l.57.84a3,3,0,0,1-2,.67,2.45,2.45,0,0,1-2.57-2.33Q307.28,77.84,307.28,77.73Zm2.5-1.49a1.11,1.11,0,0,0-1.18,1H311A1.11,1.11,0,0,0,309.78,76.24Z"/>
        <path class="cls-17" d="M316.38,80.12V77.2a.78.78,0,0,0-.89-.9,1.41,1.41,0,0,0-1.1.56v3.26h-1.27v-4.8h1.27v.62a2.26,2.26,0,0,1,1.69-.74,1.41,1.41,0,0,1,1.58,1.54v3.38Z"/>
        <path class="cls-17" d="M319.17,78.93V76.42h-.8v-1.1h.8V74h1.27v1.32h1v1.11h-1V78.6c0,.31.16.54.44.54a.64.64,0,0,0,.44-.15l.27,1a1.57,1.57,0,0,1-1.06.31,1.2,1.2,0,0,1-1.36-1.37Z"/>
        <path class="cls-17" d="M322.17,74a.76.76,0,1,1,.76.76A.75.75,0,0,1,322.17,74Zm.12,6.11V75.32h1.25v4.8Z"/>
        <path class="cls-17" d="M327.72,80.12v-.51a2,2,0,0,1-1.53.63,1.6,1.6,0,0,1-1.67-1.53s0,0,0-.07A1.53,1.53,0,0,1,326,77.07h.18a2,2,0,0,1,1.53.59v-.55c0-.49-.42-.81-1.06-.81a2,2,0,0,0-1.39.57l-.5-.89a3.11,3.11,0,0,1,2.11-.76c1.11,0,2.12.44,2.12,1.83v3.06Zm0-1.16v-.6a1.28,1.28,0,0,0-1-.43c-.5,0-.91.27-.91.73s.41.72.91.72a1.27,1.27,0,0,0,1-.39Z"/>
        <path class="cls-17" d="M330.25,80.12V73.45h1.29v6.67Z"/>
        <path class="cls-17" d="M334.92,79.2l.78-1.11a2.93,2.93,0,0,0,2.12.91c.79,0,1.16-.35,1.16-.74,0-1.16-3.84-.35-3.84-2.86,0-1.11,1-2,2.53-2a3.71,3.71,0,0,1,2.6.93l-.79,1.06a2.86,2.86,0,0,0-1.94-.73c-.6,0-.94.26-.94.66,0,1,3.83.34,3.83,2.83,0,1.22-.88,2.14-2.67,2.14A3.85,3.85,0,0,1,334.92,79.2Z"/>
        <path class="cls-17" d="M344.25,80.12v-.51a2,2,0,0,1-1.53.63,1.6,1.6,0,0,1-1.67-1.53s0,0,0-.07a1.53,1.53,0,0,1,1.49-1.57h.18a2,2,0,0,1,1.53.59v-.55c0-.49-.42-.81-1.06-.81a2,2,0,0,0-1.39.57l-.5-.89a3.11,3.11,0,0,1,2.11-.76c1.11,0,2.12.44,2.12,1.83v3.06Zm0-1.16v-.6a1.28,1.28,0,0,0-1-.43c-.5,0-.91.27-.91.73s.41.72.91.72a1.27,1.27,0,0,0,1-.39Z"/>
        <path class="cls-17" d="M348,80.12l-1.94-4.83h1.36l1.26,3.36L350,75.29h1.36l-1.94,4.83Z"/>
        <path class="cls-17" d="M351.79,74a.76.76,0,1,1,.76.76A.75.75,0,0,1,351.79,74Zm.12,6.11V75.32h1.27v4.8Z"/>
        <path class="cls-17" d="M357.7,80.12V77.2a.78.78,0,0,0-.89-.9,1.41,1.41,0,0,0-1.1.56v3.26h-1.27v-4.8h1.27v.62a2.26,2.26,0,0,1,1.69-.74A1.41,1.41,0,0,1,359,76.74v3.38Z"/>
        <path class="cls-17" d="M360.13,81.38l.57-.91a2,2,0,0,0,1.51.59,1.19,1.19,0,0,0,1.33-1.24v-.47a1.88,1.88,0,0,1-1.5.75,2.48,2.48,0,0,1,0-4.91,1.85,1.85,0,0,1,1.5.74v-.62h1.27v4.51c0,1.83-1.42,2.28-2.61,2.28A2.94,2.94,0,0,1,360.13,81.38Zm3.42-3V76.86a1.43,1.43,0,0,0-1.09-.54,1.33,1.33,0,1,0,0,2.66,1.44,1.44,0,0,0,1.08-.54Z"/>
        <path class="cls-17" d="M365.66,79.51l.55-.92a2.73,2.73,0,0,0,1.67.67c.55,0,.81-.21.81-.51,0-.79-2.86-.14-2.86-2,0-.81.7-1.52,2-1.52a3.07,3.07,0,0,1,1.94.66l-.51.9a2.08,2.08,0,0,0-1.43-.56c-.46,0-.76.2-.76.47,0,.71,2.87.11,2.87,2.06,0,.89-.76,1.54-2.1,1.54A3.25,3.25,0,0,1,365.66,79.51Z"/>
      </g>
      <g>
        <path class="cls-17" d="M423.47,127.05v-6.67h2.63a3.34,3.34,0,0,1,.37,6.67h-3Zm4.72-3.34a2,2,0,0,0-1.92-2.08h-1.38v4.17h1.21a2,2,0,0,0,2.09-1.91q0-.09,0-.18Z"/>
        <path class="cls-17" d="M430.31,124.63a2.46,2.46,0,0,1,2.39-2.53h.11a2.41,2.41,0,0,1,2.42,2.65v.3h-3.59a1.29,1.29,0,0,0,1.39,1.08,2,2,0,0,0,1.28-.47l.57.84a3,3,0,0,1-2,.67,2.45,2.45,0,0,1-2.57-2.33Q430.31,124.74,430.31,124.63Zm2.5-1.49a1.11,1.11,0,0,0-1.18,1H434a1.11,1.11,0,0,0-1.19-1h0Z"/>
        <path class="cls-17" d="M436.15,127.05v-6.67h1.27v2.46a1.83,1.83,0,0,1,1.49-.74,2.57,2.57,0,0,1,0,5.07,1.87,1.87,0,0,1-1.49-.74v.62Zm2.37-1a1.41,1.41,0,1,0-1.1-2.25v1.71a1.43,1.43,0,0,0,1.12.53Z"/>
        <path class="cls-17" d="M442.27,125.84v-2.51h-.8v-1.11h.8V120.9h1.27v1.32h1v1.11h-1v2.17c0,.31.16.54.44.54a.64.64,0,0,0,.44-.15l.27,1a1.57,1.57,0,0,1-1.06.31,1.2,1.2,0,0,1-1.36-1.36Z"/>
        <path class="cls-17" d="M448,127.05v-6.67h3.12a2.15,2.15,0,1,1,.29,4.29h-2v2.38Zm3.91-4.52a.9.9,0,0,0-.89-.91H449.4v1.79h1.5a.9.9,0,0,0,1-.89Z"/>
        <path class="cls-17" d="M456.91,127.05v-.51a2,2,0,0,1-1.53.63,1.6,1.6,0,0,1-1.67-1.53s0,0,0-.07a1.53,1.53,0,0,1,1.49-1.57h.18a2,2,0,0,1,1.53.59V124c0-.49-.42-.81-1.06-.81a2,2,0,0,0-1.39.57l-.5-.89a3.12,3.12,0,0,1,2.11-.76c1.11,0,2.12.44,2.12,1.83v3.12Zm0-1.16v-.6a1.28,1.28,0,0,0-1-.43c-.5,0-.91.27-.91.73s.41.72.91.72A1.27,1.27,0,0,0,456.91,125.89Z"/>
        <path class="cls-17" d="M459.32,120.94a.76.76,0,1,1,.76.76A.75.75,0,0,1,459.32,120.94Zm.12,6.11v-4.83h1.27v4.83Z"/>
        <path class="cls-17" d="M465.29,127.05v-.62a1.86,1.86,0,0,1-1.49.74c-1.21,0-2.14-.92-2.14-2.54s.88-2.51,2.14-2.51a1.83,1.83,0,0,1,1.49.74V120.4h1.25v6.67Zm0-1.56v-1.71a1.38,1.38,0,0,0-1.09-.55,1.42,1.42,0,0,0,0,2.81A1.37,1.37,0,0,0,465.29,125.49Z"/>
      </g>
    </g>
  </g>
</svg>
