<?xml version="1.0" encoding="UTF-8" standalone="no"?>
<svg width="19px" height="15px" viewBox="0 0 19 15" version="1.1" xmlns="http://www.w3.org/2000/svg" xmlns:xlink="http://www.w3.org/1999/xlink">
    <!-- Generator: Sketch 46.2 (44496) - http://www.bohemiancoding.com/sketch -->
    <title>Shape</title>
    <desc>Created with Sketch.</desc>
    <defs></defs>
    <g id="Symbols" stroke="none" stroke-width="1" fill="none" fill-rule="evenodd">
        <g id="footer" transform="translate(-1205.000000, -69.000000)" fill-rule="nonzero" fill="#162F49">
            <g id="social">
                <g transform="translate(1171.000000, 65.000000)">
                    <path d="M52.2682252,5.7575555 C51.5961067,6.05593651 50.8737507,6.25688699 50.1156193,6.34746694 C50.8897354,5.88391072 51.4842138,5.14937583 51.7635655,4.27402338 C51.039687,4.70332667 50.2374075,5.01540885 49.383368,5.18362876 C48.700593,4.45518328 47.7255265,4 46.6477012,4 C44.2279226,4 42.4498153,6.25764816 42.9963397,8.60130922 C39.8823685,8.44526813 37.1208218,6.95336307 35.2719252,4.68581962 C34.2900081,6.37030222 34.7626984,8.57390688 36.4311963,9.68979097 C35.8176884,9.67000039 35.2391946,9.50178048 34.7345349,9.22090652 C34.6934314,10.9571491 35.9379542,12.5814988 37.7404191,12.9430574 C37.2129241,13.0861585 36.6351915,13.1196502 36.0475636,13.0069962 C36.5240598,14.4958565 37.9078778,15.5790101 39.5489734,15.6094571 C37.973339,16.8448458 35.9881918,17.3966985 34,17.1622562 C35.6586026,18.2256192 37.6292874,18.8459777 39.7453568,18.8459777 C46.7040283,18.8459777 50.6355026,12.9689374 50.3980156,7.69779325 C51.130267,7.16877589 51.765849,6.50883626 52.2682252,5.7575555 Z" id="Shape"></path>
                </g>
            </g>
        </g>
    </g>
</svg>