<svg xmlns="http://www.w3.org/2000/svg" width="22" height="15" viewBox="0 0 22 15" xmlns:xlink="http://www.w3.org/1999/xlink">
  <defs>
    <polygon id="a" points="0 0 0 15 22 15 22 0"/>
  </defs>
  <g fill="none" fill-rule="evenodd">
    <mask id="b" fill="white">
      <use xlink:href="#a"/>
    </mask>
    <path fill="#162F49" fill-rule="nonzero" d="M21.1423549,1.28753631 C20.3484919,0.372999639 18.8822983,0 16.0820887,0 L5.91755645,0 C3.05356451,0 1.56244355,0.397150077 0.771330645,1.3707307 C0,2.32016089 0,3.71916737 0,5.65524176 L0,9.345188 C0,13.0958111 0.915129033,15 5.91755645,15 L16.0820887,15 C18.5105161,15 19.8560645,14.671004 20.7265726,13.8639841 C21.6191693,13.0360796 22,11.6847723 22,9.345188 L22,5.65524176 C22,3.61336954 21.9403871,2.20637022 21.1423549,1.28753631 Z M14.1242661,8.00969455 L9.50861289,10.3466147 C9.40526612,10.3989549 9.29233868,10.4248243 9.17967744,10.4248243 C9.05220165,10.4248243 8.92463711,10.3915637 8.81206455,10.3254723 C8.59960488,10.2009385 8.47,9.97765442 8.47,9.73726733 L8.47,5.07812366 C8.47,4.83808034 8.59933868,4.61514 8.81135488,4.49060625 C9.02345967,4.36572872 9.28683868,4.35730615 9.50683868,4.46808877 L14.1224919,6.78996854 C14.357129,6.90814239 14.5047419,7.14285714 14.5050968,7.39931588 C14.5054517,7.65577462 14.3584597,7.89083315 14.1242661,8.00969455 Z" mask="url(#b)"/>
  </g>
</svg>
