<?xml version="1.0" encoding="UTF-8" standalone="no"?>
<svg width="110px" height="31px" viewBox="0 0 110 31" version="1.1" xmlns="http://www.w3.org/2000/svg" xmlns:xlink="http://www.w3.org/1999/xlink">
    <!-- Generator: Sketch 46.2 (44496) - http://www.bohemiancoding.com/sketch -->
    <title>logo</title>
    <desc>Created with Sketch.</desc>
    <defs></defs>
    <g id="Symbols" stroke="none" stroke-width="1" fill="none" fill-rule="evenodd">
        <g id="footer" transform="translate(-120.000000, -55.000000)">
            <g id="logo">
                <g transform="translate(120.729872, 55.474609)">
                    <path d="M45.2586214,4.03971498 C44.2876378,2.55752828 42.4525495,1.72770538 40.7056866,1.72770538 C37.7408091,1.72770538 35.2523487,4.30439118 35.2523487,7.1628941 C35.2523487,10.2159971 37.8290345,12.7044574 40.7934079,12.7044574 C42.55842,12.7044574 44.2876378,11.7516231 45.3110525,10.3218675 L46.757949,10.3218675 C45.6286639,12.4927165 43.2470823,13.9572581 40.7934079,13.9572581 C36.9644256,13.9572581 33.9466128,11.0100256 33.9466128,7.1628941 C33.9466128,3.45742735 36.9820707,0.474904719 40.6875374,0.474904719 C42.0109184,0.474904719 43.3348035,0.827806315 44.4464436,1.56940381 C45.2762664,2.0987562 46.3526163,3.08688067 46.7055179,4.03971498 L45.2586214,4.03971498" id="Fill-1" fill="#162F49"></path>
                    <path d="M56.2152076,8.1691678 L53.7096063,2.18647746 L51.1682107,8.1691678 L56.2152076,8.1691678 Z M52.986158,0.686645676 L54.4330546,0.686645676 L60.027049,13.7278721 L58.6154426,13.7278721 L56.7274191,9.35138814 L50.6565033,9.35138814 L48.7684798,13.7278721 L47.3568734,13.7278721 L52.986158,0.686645676 L52.986158,0.686645676 Z" id="Fill-2" fill="#162F49"></path>
                    <path d="M65.4607253,7.28691381 C66.3782694,7.28691381 67.2963177,7.2511195 68.0903463,6.75756141 C68.8319438,6.29878934 69.2372765,5.43367628 69.2372765,4.58671245 C69.2372765,3.45742735 68.6373438,2.57517336 67.6139292,2.1511873 C66.7493203,1.78114477 65.796486,1.86886602 64.8960827,1.86886602 L63.2198002,1.86886602 L63.2198002,7.28691381 L65.4607253,7.28691381 Z M61.9140643,0.686645676 L65.3377139,0.686645676 C66.5552244,0.704290756 67.7727349,0.721935836 68.8319438,1.39244887 C69.9612289,2.0987562 70.5430124,3.29811749 70.5430124,4.60435753 C70.5430124,5.80422296 70.0494543,6.89821791 69.0613299,7.62217032 C68.0555603,8.36326368 66.8904809,8.46913415 65.6729704,8.46913415 L63.2198002,8.46913415 L63.2198002,13.7278721 L61.9140643,13.7278721 L61.9140643,0.686645676 L61.9140643,0.686645676 Z" id="Fill-3" fill="#162F49"></path>
                    <polygon id="Fill-4" fill="#162F49" points="72.7128531 13.7278721 74.018589 13.7278721 74.018589 0.686645676 72.7128531 0.686645676"></polygon>
                    <polyline id="Fill-5" fill="#162F49" points="78.8356958 1.86886602 75.8355281 1.86886602 75.8355281 0.686645676 83.1063092 0.686645676 83.1063092 1.86886602 80.1414317 1.86886602 80.1414317 13.7278721 78.8356958 13.7278721 78.8356958 1.86886602"></polyline>
                    <path d="M91.2054009,8.1691678 L88.6997995,2.18647746 L86.1584039,8.1691678 L91.2054009,8.1691678 Z M87.9758471,0.686645676 L89.4227436,0.686645676 L95.0172422,13.7278721 L93.6051317,13.7278721 L91.7171082,9.35138814 L85.6466966,9.35138814 L83.758673,13.7278721 L82.3465625,13.7278721 L87.9758471,0.686645676 L87.9758471,0.686645676 Z" id="Fill-6" fill="#162F49"></path>
                    <g id="Group-10">
                        <polyline id="Fill-7" fill="#162F49" points="96.5508517 0.686645676 97.8570918 0.686645676 97.8570918 12.5451476 103.25699 12.5451476 103.25699 13.7278721 96.5508517 13.7278721 96.5508517 0.686645676"></polyline>
                        <polygon id="Fill-9" fill="#C73F33" points="28.9883454 0.252072568 0 0.252072568 0 30.2487082 28.9883454 30.2487082 28.9883454 25.9634745 4.57915028 25.9634745 4.57915028 4.53730623 28.9883454 4.53730623"></polygon>
                    </g>
                    <path d="M28.9883454,7.26573971 L7.22591225,7.26573971 L7.22591225,23.2184043 L28.9883454,23.2184043 L28.9883454,18.6508493 L11.8055667,18.6508493 L11.8055667,11.8433776 L28.9883454,11.8433776 C28.9883454,11.8433776 28.9883454,7.29850915 28.9883454,7.26573971" id="Fill-11" fill="#162F49"></path>
                    <path d="M34.0247553,23.6106292 C34.0247553,19.7251826 36.962409,17.0713626 40.7530763,17.0713626 C43.5399906,17.0713626 45.1507343,18.5878312 46.0415588,20.160764 L43.7295492,21.2981155 C43.1986843,20.2747008 42.0613329,19.4594981 40.7530763,19.4594981 C38.4597201,19.4594981 36.7920079,21.2224937 36.7920079,23.6106292 C36.7920079,25.9987647 38.4597201,27.7617603 40.7530763,27.7617603 C42.0613329,27.7617603 43.1986843,26.9652109 43.7295492,25.9231429 L46.0415588,27.0413368 C45.1320809,28.6147738 43.5399906,30.1498958 40.7530763,30.1498958 C36.962409,30.1498958 34.0247553,27.4960758 34.0247553,23.6106292" id="Fill-12" fill="#162F49"></path>
                    <polyline id="Fill-13" fill="#162F49" points="56.5434061 29.9220222 56.5434061 24.6148863 50.5728153 24.6148863 50.5728153 29.9220222 47.8811844 29.9220222 47.8811844 17.2795746 50.5728153 17.2795746 50.5728153 22.2459083 56.5434061 22.2459083 56.5434061 17.2795746 59.2541945 17.2795746 59.2541945 29.9220222 56.5434061 29.9220222"></polyline>
                    <path d="M71.4232498,23.6106292 C71.4232498,21.2416512 69.9067813,19.4594981 67.5756141,19.4594981 C65.244447,19.4594981 63.747136,21.2416512 63.747136,23.6106292 C63.747136,25.9609538 65.244447,27.7617603 67.5756141,27.7617603 C69.9067813,27.7617603 71.4232498,25.9609538 71.4232498,23.6106292 Z M60.9793792,23.6106292 C60.9793792,19.8008044 63.7657893,17.0713626 67.5756141,17.0713626 C71.4045965,17.0713626 74.1910066,19.8008044 74.1910066,23.6106292 C74.1910066,27.420454 71.4045965,30.1498958 67.5756141,30.1498958 C63.7657893,30.1498958 60.9793792,27.420454 60.9793792,23.6106292 L60.9793792,23.6106292 Z" id="Fill-14" fill="#162F49"></path>
                    <polygon id="Fill-15" fill="#162F49" points="76.3144659 29.9220222 79.0060968 29.9220222 79.0060968 17.2795746 76.3144659 17.2795746"></polygon>
                    <path d="M81.129052,23.6106292 C81.129052,19.7251826 84.0672099,17.0713626 87.8583813,17.0713626 C90.6442873,17.0713626 92.2555352,18.5878312 93.1463596,20.160764 L90.8338459,21.2981155 C90.3029811,20.2747008 89.1661338,19.4594981 87.8583813,19.4594981 C85.5645209,19.4594981 83.8963047,21.2224937 83.8963047,23.6106292 C83.8963047,25.9987647 85.5645209,27.7617603 87.8583813,27.7617603 C89.1661338,27.7617603 90.3029811,26.9652109 90.8338459,25.9231429 L93.1463596,27.0413368 C92.2363777,28.6147738 90.6442873,30.1498958 87.8583813,30.1498958 C84.0672099,30.1498958 81.129052,27.4960758 81.129052,23.6106292" id="Fill-16" fill="#162F49"></path>
                    <polyline id="Fill-17" fill="#162F49" points="94.6068681 29.9220222 94.6068681 17.2795746 103.553428 17.2795746 103.553428 19.6490567 97.2979948 19.6490567 97.2979948 22.3215301 103.420838 22.3215301 103.420838 24.6905081 97.2979948 24.6905081 97.2979948 27.5530442 103.553428 27.5530442 103.553428 29.9220222 94.6068681 29.9220222"></polyline>
                    <path d="M106.164899,0.672529613 L106.794073,0.672529613 L107.660194,2.68810187 L108.514216,0.672529613 L109.143893,0.672529613 L109.143893,3.36012734 L108.677559,3.36012734 L108.677559,1.25380896 L107.817991,3.36012734 L107.490801,3.36012734 L106.63073,1.26590844 L106.63073,3.36012734 L106.164899,3.36012734 L106.164899,0.672529613 Z M104.663555,1.09046593 L104.027828,1.09046593 L104.027828,0.672529613 L105.801915,0.672529613 L105.801915,1.09046593 L105.159634,1.09046593 L105.159634,3.36012734 L104.663555,3.36012734 L104.663555,1.09046593 L104.663555,1.09046593 Z" id="Fill-18" fill="#162F49"></path>
                </g>
            </g>
        </g>
    </g>
</svg>