<svg id="Layer_1" data-name="Layer 1" xmlns="http://www.w3.org/2000/svg" xmlns:xlink="http://www.w3.org/1999/xlink" viewBox="0 0 711.74 177.35">
  <defs>
    <style>
      .cls-1, .cls-11, .cls-16, .cls-19, .cls-20, .cls-4, .cls-8 {
        fill: none;
      }

      .cls-2 {
        fill: #ffc8bb;
      }

      .cls-3 {
        clip-path: url(#clip-path);
      }

      .cls-4 {
        stroke: #e63c2f;
      }

      .cls-11, .cls-16, .cls-19, .cls-20, .cls-4, .cls-8 {
        stroke-miterlimit: 10;
      }

      .cls-11, .cls-4, .cls-8 {
        stroke-width: 0.57px;
      }

      .cls-5 {
        fill: #e5e6ea;
      }

      .cls-6 {
        fill: #ffebbd;
      }

      .cls-7 {
        clip-path: url(#clip-path-2);
      }

      .cls-8 {
        stroke: #f9be00;
      }

      .cls-9 {
        fill: #b7e7e9;
      }

      .cls-10 {
        clip-path: url(#clip-path-3);
      }

      .cls-11 {
        stroke: #00adbb;
      }

      .cls-12 {
        fill: #e63c2f;
      }

      .cls-13 {
        fill: #fff;
      }

      .cls-14 {
        fill: #f9be00;
      }

      .cls-15 {
        fill: #00adbb;
      }

      .cls-16 {
        stroke: #b0b8c4;
        stroke-width: 2.84px;
      }

      .cls-17 {
        fill: #006e96;
      }

      .cls-18 {
        fill: #002b49;
      }

      .cls-19 {
        stroke: #fff;
        stroke-width: 2px;
      }

      .cls-20 {
        stroke: #006e96;
        stroke-width: 6.6px;
      }
    </style>
    <clipPath id="clip-path">
      <path class="cls-1" d="M62.22,29.19V73.65H492.13c-86-22.15-200.44-38.13-299.43-44.46Z"/>
    </clipPath>
    <clipPath id="clip-path-2">
      <path class="cls-1" d="M62.22,140.07h560c-3.09-12.31-17.14-24.07-39.13-35H62.22Z"/>
    </clipPath>
    <clipPath id="clip-path-3">
      <path class="cls-1" d="M62.22,102.19H577.09c-19.75-9.16-45-17.74-73.87-25.6h-441Z"/>
    </clipPath>
  </defs>
  <title>fw_wo-drm-graph</title>
  <g id="Layer_2" data-name="Layer 2">
    <g id="Layer_1-2" data-name="Layer 1-2">
      <path class="cls-2" d="M62.22,29.19V73.65H492.13c-86-22.15-200.44-38.13-299.43-44.46Z"/>
      <g class="cls-3">
        <g>
          <line class="cls-4" x1="332.69" y1="-429.61" x2="-140.3" y2="43.39"/>
          <line class="cls-4" x1="335.63" y1="-426.67" x2="-137.37" y2="46.32"/>
          <line class="cls-4" x1="338.94" y1="-424.11" x2="-134.06" y2="48.89"/>
          <line class="cls-4" x1="341.87" y1="-421.17" x2="-131.12" y2="51.83"/>
          <line class="cls-4" x1="344.44" y1="-417.86" x2="-128.56" y2="55.14"/>
          <line class="cls-4" x1="347.38" y1="-414.93" x2="-125.62" y2="58.07"/>
          <line class="cls-4" x1="350.68" y1="-412.36" x2="-122.31" y2="60.64"/>
          <line class="cls-4" x1="353.62" y1="-409.42" x2="-119.38" y2="63.58"/>
          <line class="cls-4" x1="356.19" y1="-406.12" x2="-116.81" y2="66.88"/>
          <line class="cls-4" x1="359.12" y1="-403.18" x2="-113.87" y2="69.82"/>
          <line class="cls-4" x1="362.43" y1="-400.61" x2="-110.57" y2="72.39"/>
          <line class="cls-4" x1="365.37" y1="-397.68" x2="-107.63" y2="75.32"/>
          <line class="cls-4" x1="367.93" y1="-394.37" x2="-105.06" y2="78.63"/>
          <line class="cls-4" x1="373.81" y1="-388.5" x2="-99.19" y2="84.5"/>
          <line class="cls-4" x1="380.05" y1="-382.99" x2="-92.95" y2="90.01"/>
          <line class="cls-4" x1="385.92" y1="-377.12" x2="-87.07" y2="95.88"/>
          <line class="cls-4" x1="370.87" y1="-391.43" x2="-102.13" y2="81.57"/>
          <line class="cls-4" x1="376.74" y1="-385.56" x2="-96.25" y2="87.44"/>
          <line class="cls-4" x1="382.99" y1="-380.05" x2="-90.01" y2="92.94"/>
          <line class="cls-4" x1="388.86" y1="-374.18" x2="-84.14" y2="98.82"/>
          <line class="cls-4" x1="391.43" y1="-370.87" x2="-81.57" y2="102.12"/>
          <line class="cls-4" x1="394.37" y1="-367.94" x2="-78.63" y2="105.06"/>
          <line class="cls-4" x1="397.67" y1="-365.37" x2="-75.33" y2="107.63"/>
          <line class="cls-4" x1="400.61" y1="-362.43" x2="-72.39" y2="110.56"/>
          <line class="cls-4" x1="403.18" y1="-359.13" x2="-69.82" y2="113.87"/>
          <line class="cls-4" x1="406.11" y1="-356.19" x2="-66.89" y2="116.81"/>
          <line class="cls-4" x1="409.42" y1="-353.62" x2="-63.58" y2="119.37"/>
          <line class="cls-4" x1="412.36" y1="-350.69" x2="-60.64" y2="122.31"/>
          <line class="cls-4" x1="414.92" y1="-347.38" x2="-58.08" y2="125.62"/>
          <line class="cls-4" x1="420.8" y1="-341.51" x2="-52.2" y2="131.49"/>
          <line class="cls-4" x1="427.04" y1="-336" x2="-45.96" y2="136.99"/>
          <line class="cls-4" x1="432.91" y1="-330.13" x2="-40.08" y2="142.87"/>
          <line class="cls-4" x1="447.23" y1="-315.08" x2="-25.77" y2="157.92"/>
          <line class="cls-4" x1="450.16" y1="-312.14" x2="-22.83" y2="160.86"/>
          <line class="cls-4" x1="456.41" y1="-306.64" x2="-16.59" y2="166.36"/>
          <line class="cls-4" x1="462.28" y1="-300.76" x2="-10.72" y2="172.23"/>
          <line class="cls-4" x1="470.72" y1="-291.58" x2="-2.28" y2="181.41"/>
          <line class="cls-4" x1="473.66" y1="-288.65" x2="0.66" y2="184.35"/>
          <line class="cls-4" x1="479.9" y1="-283.14" x2="6.9" y2="189.85"/>
          <line class="cls-4" x1="488.71" y1="-274.33" x2="15.71" y2="198.66"/>
          <line class="cls-4" x1="503.02" y1="-259.28" x2="30.03" y2="213.72"/>
          <line class="cls-4" x1="508.9" y1="-253.41" x2="35.9" y2="219.59"/>
          <line class="cls-4" x1="512.2" y1="-250.84" x2="39.21" y2="222.16"/>
          <line class="cls-4" x1="518.08" y1="-244.97" x2="45.08" y2="228.03"/>
          <line class="cls-4" x1="526.52" y1="-235.79" x2="53.52" y2="237.21"/>
          <line class="cls-4" x1="535.33" y1="-226.98" x2="62.33" y2="246.02"/>
          <line class="cls-4" x1="541.57" y1="-221.47" x2="68.57" y2="251.52"/>
          <line class="cls-4" x1="550.38" y1="-212.66" x2="77.38" y2="260.33"/>
          <line class="cls-4" x1="532.39" y1="-229.91" x2="59.39" y2="243.08"/>
          <line class="cls-4" x1="538.26" y1="-224.04" x2="65.27" y2="248.96"/>
          <line class="cls-4" x1="547.44" y1="-215.6" x2="74.45" y2="257.4"/>
          <line class="cls-4" x1="556.25" y1="-206.79" x2="83.26" y2="266.21"/>
          <line class="cls-4" x1="564.69" y1="-197.61" x2="91.7" y2="275.39"/>
          <line class="cls-4" x1="567.63" y1="-194.67" x2="94.63" y2="278.32"/>
          <line class="cls-4" x1="573.87" y1="-189.17" x2="100.88" y2="283.83"/>
          <line class="cls-4" x1="576.81" y1="-186.23" x2="103.81" y2="286.76"/>
          <line class="cls-4" x1="579.38" y1="-182.93" x2="106.38" y2="290.07"/>
          <line class="cls-4" x1="582.31" y1="-179.99" x2="109.32" y2="293.01"/>
          <line class="cls-4" x1="585.62" y1="-177.42" x2="112.62" y2="295.57"/>
          <line class="cls-4" x1="588.56" y1="-174.49" x2="115.56" y2="298.51"/>
          <line class="cls-4" x1="591.12" y1="-171.18" x2="118.13" y2="301.82"/>
          <line class="cls-4" x1="599.93" y1="-162.37" x2="126.94" y2="310.63"/>
          <line class="cls-4" x1="605.81" y1="-156.5" x2="132.81" y2="316.5"/>
          <line class="cls-4" x1="609.11" y1="-153.93" x2="136.12" y2="319.07"/>
          <line class="cls-4" x1="612.05" y1="-150.99" x2="139.05" y2="322.01"/>
          <line class="cls-4" x1="614.62" y1="-147.69" x2="141.62" y2="325.31"/>
          <line class="cls-4" x1="617.55" y1="-144.75" x2="144.56" y2="328.25"/>
          <line class="cls-4" x1="620.86" y1="-142.18" x2="147.86" y2="330.82"/>
          <line class="cls-4" x1="623.8" y1="-139.25" x2="150.8" y2="333.75"/>
          <line class="cls-4" x1="626.36" y1="-135.94" x2="153.37" y2="337.06"/>
          <line class="cls-4" x1="629.3" y1="-133" x2="156.3" y2="340"/>
          <line class="cls-4" x1="632.61" y1="-130.44" x2="159.61" y2="342.56"/>
          <line class="cls-4" x1="635.54" y1="-127.5" x2="162.55" y2="345.5"/>
          <line class="cls-4" x1="638.11" y1="-124.19" x2="165.11" y2="348.81"/>
          <line class="cls-4" x1="643.98" y1="-118.32" x2="170.99" y2="354.68"/>
          <line class="cls-4" x1="650.23" y1="-112.81" x2="177.23" y2="360.18"/>
          <line class="cls-4" x1="656.1" y1="-106.94" x2="183.1" y2="366.06"/>
          <line class="cls-4" x1="641.05" y1="-121.25" x2="168.05" y2="351.74"/>
          <line class="cls-4" x1="646.92" y1="-115.38" x2="173.92" y2="357.62"/>
          <line class="cls-4" x1="653.17" y1="-109.88" x2="180.17" y2="363.12"/>
          <line class="cls-4" x1="659.04" y1="-104" x2="186.04" y2="368.99"/>
          <line class="cls-4" x1="661.61" y1="-100.7" x2="188.61" y2="372.3"/>
          <line class="cls-4" x1="664.54" y1="-97.76" x2="191.54" y2="375.24"/>
          <line class="cls-4" x1="667.85" y1="-95.19" x2="194.85" y2="377.8"/>
          <line class="cls-4" x1="670.79" y1="-92.26" x2="197.79" y2="380.74"/>
          <line class="cls-4" x1="673.35" y1="-88.95" x2="200.35" y2="384.05"/>
          <line class="cls-4" x1="676.29" y1="-86.01" x2="203.29" y2="386.98"/>
          <line class="cls-4" x1="679.6" y1="-83.45" x2="206.6" y2="389.55"/>
          <line class="cls-4" x1="682.53" y1="-80.51" x2="209.54" y2="392.49"/>
          <line class="cls-4" x1="685.1" y1="-77.2" x2="212.1" y2="395.79"/>
          <line class="cls-4" x1="688.04" y1="-74.27" x2="215.04" y2="398.73"/>
          <line class="cls-4" x1="691.34" y1="-71.7" x2="218.35" y2="401.3"/>
          <line class="cls-4" x1="694.28" y1="-68.76" x2="221.28" y2="404.23"/>
          <line class="cls-4" x1="696.85" y1="-65.46" x2="223.85" y2="407.54"/>
          <line class="cls-4" x1="699.78" y1="-62.52" x2="226.79" y2="410.48"/>
          <line class="cls-4" x1="703.09" y1="-59.95" x2="230.09" y2="413.04"/>
          <line class="cls-4" x1="706.03" y1="-57.02" x2="233.03" y2="415.98"/>
          <line class="cls-4" x1="708.59" y1="-53.71" x2="235.6" y2="419.29"/>
          <line class="cls-4" x1="711.53" y1="-50.77" x2="238.53" y2="422.22"/>
          <line class="cls-4" x1="714.84" y1="-48.21" x2="241.84" y2="424.79"/>
          <line class="cls-4" x1="717.77" y1="-45.27" x2="244.78" y2="427.73"/>
          <line class="cls-4" x1="720.34" y1="-41.96" x2="247.34" y2="431.03"/>
          <line class="cls-4" x1="723.28" y1="-39.03" x2="250.28" y2="433.97"/>
          <line class="cls-4" x1="726.58" y1="-36.46" x2="253.59" y2="436.54"/>
          <line class="cls-4" x1="732.46" y1="-30.59" x2="259.46" y2="442.41"/>
          <line class="cls-4" x1="740.9" y1="-21.41" x2="267.9" y2="451.59"/>
          <line class="cls-4" x1="746.77" y1="-15.53" x2="273.77" y2="457.46"/>
          <line class="cls-4" x1="755.95" y1="-7.09" x2="282.95" y2="465.9"/>
          <line class="cls-4" x1="764.76" y1="1.72" x2="291.76" y2="474.71"/>
          <line class="cls-4" x1="743.83" y1="-18.47" x2="270.84" y2="454.53"/>
          <line class="cls-4" x1="752.64" y1="-9.66" x2="279.65" y2="463.34"/>
          <line class="cls-4" x1="761.82" y1="-1.22" x2="288.83" y2="471.78"/>
          <line class="cls-4" x1="770.63" y1="7.59" x2="297.64" y2="480.59"/>
          <line class="cls-4" x1="776.14" y1="13.83" x2="303.14" y2="486.83"/>
          <line class="cls-4" x1="782.01" y1="19.71" x2="309.01" y2="492.7"/>
          <line class="cls-4" x1="791.19" y1="28.15" x2="318.19" y2="501.14"/>
          <line class="cls-4" x1="800" y1="36.96" x2="327" y2="509.95"/>
          <line class="cls-4" x1="811.38" y1="49.07" x2="338.38" y2="522.07"/>
          <line class="cls-4" x1="814.31" y1="52.01" x2="341.32" y2="525.01"/>
          <line class="cls-4" x1="820.56" y1="57.51" x2="347.56" y2="530.51"/>
          <line class="cls-4" x1="826.43" y1="63.39" x2="353.43" y2="536.38"/>
          <line class="cls-4" x1="834.87" y1="72.57" x2="361.87" y2="545.56"/>
          <line class="cls-4" x1="729.15" y1="-33.15" x2="256.15" y2="439.84"/>
          <line class="cls-4" x1="735.39" y1="-27.65" x2="262.4" y2="445.35"/>
          <line class="cls-4" x1="738.33" y1="-24.71" x2="265.33" y2="448.28"/>
          <line class="cls-4" x1="749.71" y1="-12.6" x2="276.71" y2="460.4"/>
          <line class="cls-4" x1="758.52" y1="-3.79" x2="285.52" y2="469.21"/>
          <line class="cls-4" x1="767.7" y1="4.65" x2="294.7" y2="477.65"/>
          <line class="cls-4" x1="773.57" y1="10.53" x2="300.57" y2="483.52"/>
          <line class="cls-4" x1="779.07" y1="16.77" x2="306.08" y2="489.77"/>
          <line class="cls-4" x1="787.88" y1="25.58" x2="314.89" y2="498.58"/>
          <line class="cls-4" x1="797.06" y1="34.02" x2="324.07" y2="507.02"/>
          <line class="cls-4" x1="805.87" y1="42.83" x2="332.88" y2="515.83"/>
          <line class="cls-4" x1="784.95" y1="22.64" x2="311.95" y2="495.64"/>
          <line class="cls-4" x1="793.76" y1="31.45" x2="320.76" y2="504.45"/>
          <line class="cls-4" x1="802.94" y1="39.89" x2="329.94" y2="512.89"/>
          <line class="cls-4" x1="808.81" y1="45.77" x2="335.81" y2="518.76"/>
          <line class="cls-4" x1="817.25" y1="54.95" x2="344.25" y2="527.94"/>
          <line class="cls-4" x1="823.12" y1="60.82" x2="350.13" y2="533.82"/>
          <line class="cls-4" x1="829.37" y1="66.32" x2="356.37" y2="539.32"/>
          <line class="cls-4" x1="832.3" y1="69.26" x2="359.31" y2="542.26"/>
          <line class="cls-4" x1="837.81" y1="75.5" x2="364.81" y2="548.5"/>
          <line class="cls-4" x1="840.74" y1="78.44" x2="367.75" y2="551.44"/>
          <line class="cls-4" x1="844.05" y1="81.01" x2="371.05" y2="554"/>
          <line class="cls-4" x1="846.99" y1="83.94" x2="373.99" y2="556.94"/>
          <line class="cls-4" x1="849.55" y1="87.25" x2="376.56" y2="560.25"/>
          <line class="cls-4" x1="852.49" y1="90.19" x2="379.49" y2="563.19"/>
          <line class="cls-4" x1="855.8" y1="92.75" x2="382.8" y2="565.75"/>
          <line class="cls-4" x1="858.73" y1="95.69" x2="385.74" y2="568.69"/>
          <line class="cls-4" x1="861.3" y1="99" x2="388.3" y2="572"/>
          <line class="cls-4" x1="864.24" y1="101.93" x2="391.24" y2="574.93"/>
          <line class="cls-4" x1="867.54" y1="104.5" x2="394.55" y2="577.5"/>
          <line class="cls-4" x1="870.48" y1="107.44" x2="397.48" y2="580.44"/>
          <line class="cls-4" x1="873.05" y1="110.74" x2="400.05" y2="583.74"/>
          <line class="cls-4" x1="875.98" y1="113.68" x2="402.99" y2="586.68"/>
          <line class="cls-4" x1="879.29" y1="116.25" x2="406.29" y2="589.25"/>
          <line class="cls-4" x1="882.23" y1="119.18" x2="409.23" y2="592.18"/>
          <line class="cls-4" x1="884.79" y1="122.49" x2="411.8" y2="595.49"/>
          <line class="cls-4" x1="887.73" y1="125.43" x2="414.73" y2="598.43"/>
          <line class="cls-4" x1="891.04" y1="128" x2="418.04" y2="600.99"/>
          <line class="cls-4" x1="893.97" y1="130.93" x2="420.98" y2="603.93"/>
          <line class="cls-4" x1="896.54" y1="134.24" x2="423.54" y2="607.24"/>
          <line class="cls-4" x1="902.42" y1="140.11" x2="429.42" y2="613.11"/>
          <line class="cls-4" x1="908.66" y1="145.62" x2="435.66" y2="618.61"/>
          <line class="cls-4" x1="914.53" y1="151.49" x2="441.53" y2="624.49"/>
          <line class="cls-4" x1="899.48" y1="137.18" x2="426.48" y2="610.17"/>
          <line class="cls-4" x1="905.35" y1="143.05" x2="432.35" y2="616.05"/>
          <line class="cls-4" x1="911.6" y1="148.55" x2="438.6" y2="621.55"/>
          <line class="cls-4" x1="917.47" y1="154.43" x2="444.47" y2="627.42"/>
          <line class="cls-4" x1="920.04" y1="157.73" x2="447.04" y2="630.73"/>
          <line class="cls-4" x1="922.97" y1="160.67" x2="449.97" y2="633.67"/>
          <line class="cls-4" x1="926.28" y1="163.24" x2="453.28" y2="636.23"/>
          <line class="cls-4" x1="929.22" y1="166.17" x2="456.22" y2="639.17"/>
          <line class="cls-4" x1="931.78" y1="169.48" x2="458.78" y2="642.48"/>
          <line class="cls-4" x1="934.72" y1="172.42" x2="461.72" y2="645.41"/>
          <line class="cls-4" x1="938.03" y1="174.98" x2="465.03" y2="647.98"/>
          <line class="cls-4" x1="417.86" y1="-344.44" x2="-55.14" y2="128.55"/>
          <line class="cls-4" x1="424.1" y1="-338.94" x2="-48.9" y2="134.06"/>
          <line class="cls-4" x1="429.98" y1="-333.07" x2="-43.02" y2="139.93"/>
          <line class="cls-4" x1="435.48" y1="-326.82" x2="-37.52" y2="146.17"/>
          <line class="cls-4" x1="438.42" y1="-323.89" x2="-34.58" y2="149.11"/>
          <line class="cls-4" x1="441.72" y1="-321.32" x2="-31.27" y2="151.68"/>
          <line class="cls-4" x1="444.66" y1="-318.38" x2="-28.34" y2="154.61"/>
          <line class="cls-4" x1="453.1" y1="-309.2" x2="-19.9" y2="163.79"/>
          <line class="cls-4" x1="458.97" y1="-303.33" x2="-14.02" y2="169.67"/>
          <line class="cls-4" x1="465.22" y1="-297.83" x2="-7.78" y2="175.17"/>
          <line class="cls-4" x1="468.15" y1="-294.89" x2="-4.84" y2="178.11"/>
          <line class="cls-4" x1="476.59" y1="-285.71" x2="3.6" y2="187.29"/>
          <line class="cls-4" x1="485.4" y1="-276.9" x2="12.41" y2="196.1"/>
          <line class="cls-4" x1="494.58" y1="-268.46" x2="21.59" y2="204.54"/>
          <line class="cls-4" x1="500.46" y1="-262.59" x2="27.46" y2="210.41"/>
          <line class="cls-4" x1="482.47" y1="-279.84" x2="9.47" y2="193.16"/>
          <line class="cls-4" x1="491.28" y1="-271.03" x2="18.28" y2="201.97"/>
          <line class="cls-4" x1="497.52" y1="-265.52" x2="24.52" y2="207.47"/>
          <line class="cls-4" x1="506.33" y1="-256.71" x2="33.33" y2="216.28"/>
          <line class="cls-4" x1="514.77" y1="-247.53" x2="41.77" y2="225.46"/>
          <line class="cls-4" x1="520.64" y1="-241.66" x2="47.65" y2="231.34"/>
          <line class="cls-4" x1="523.95" y1="-239.09" x2="50.95" y2="233.9"/>
          <line class="cls-4" x1="529.82" y1="-233.22" x2="56.83" y2="239.78"/>
          <line class="cls-4" x1="544.14" y1="-218.17" x2="71.14" y2="254.83"/>
          <line class="cls-4" x1="552.95" y1="-209.36" x2="79.95" y2="263.64"/>
          <line class="cls-4" x1="559.19" y1="-203.85" x2="86.19" y2="269.14"/>
          <line class="cls-4" x1="562.13" y1="-200.92" x2="89.13" y2="272.08"/>
          <line class="cls-4" x1="570.57" y1="-191.74" x2="97.57" y2="281.26"/>
          <line class="cls-4" x1="594.06" y1="-168.24" x2="121.06" y2="304.75"/>
          <line class="cls-4" x1="597.37" y1="-165.68" x2="124.37" y2="307.32"/>
          <line class="cls-4" x1="603.24" y1="-159.8" x2="130.24" y2="313.2"/>
        </g>
      </g>
      <path class="cls-5" d="M693.06,29.19H192.7c99,6.33,213.47,22.31,299.43,44.46H693.06Z"/>
      <path class="cls-6" d="M62.22,140.07h560c-3.09-12.31-17.14-24.07-39.13-35H62.22Z"/>
      <g class="cls-7">
        <g>
          <line class="cls-8" x1="388.93" y1="-398.46" x2="-84.06" y2="74.54"/>
          <line class="cls-8" x1="391.87" y1="-395.52" x2="-81.13" y2="77.48"/>
          <line class="cls-8" x1="395.18" y1="-392.95" x2="-77.82" y2="80.04"/>
          <line class="cls-8" x1="398.11" y1="-390.02" x2="-74.88" y2="82.98"/>
          <line class="cls-8" x1="400.68" y1="-386.71" x2="-72.32" y2="86.29"/>
          <line class="cls-8" x1="403.62" y1="-383.77" x2="-69.38" y2="89.22"/>
          <line class="cls-8" x1="406.92" y1="-381.21" x2="-66.07" y2="91.79"/>
          <line class="cls-8" x1="409.86" y1="-378.27" x2="-63.14" y2="94.73"/>
          <line class="cls-8" x1="412.43" y1="-374.96" x2="-60.57" y2="98.03"/>
          <line class="cls-8" x1="415.36" y1="-372.03" x2="-57.63" y2="100.97"/>
          <line class="cls-8" x1="418.67" y1="-369.46" x2="-54.33" y2="103.54"/>
          <line class="cls-8" x1="421.61" y1="-366.52" x2="-51.39" y2="106.48"/>
          <line class="cls-8" x1="424.17" y1="-363.22" x2="-48.82" y2="109.78"/>
          <line class="cls-8" x1="430.05" y1="-357.34" x2="-42.95" y2="115.66"/>
          <line class="cls-8" x1="436.29" y1="-351.84" x2="-36.71" y2="121.16"/>
          <line class="cls-8" x1="442.16" y1="-345.97" x2="-30.83" y2="127.03"/>
          <line class="cls-8" x1="427.11" y1="-360.28" x2="-45.89" y2="112.72"/>
          <line class="cls-8" x1="432.98" y1="-354.41" x2="-40.01" y2="118.59"/>
          <line class="cls-8" x1="439.23" y1="-348.9" x2="-33.77" y2="124.1"/>
          <line class="cls-8" x1="445.1" y1="-343.03" x2="-27.9" y2="129.97"/>
          <line class="cls-8" x1="447.67" y1="-339.72" x2="-25.33" y2="133.28"/>
          <line class="cls-8" x1="450.6" y1="-336.79" x2="-22.39" y2="136.21"/>
          <line class="cls-8" x1="453.91" y1="-334.22" x2="-19.09" y2="138.78"/>
          <line class="cls-8" x1="456.85" y1="-331.28" x2="-16.15" y2="141.72"/>
          <line class="cls-8" x1="459.41" y1="-327.97" x2="-13.58" y2="145.02"/>
          <line class="cls-8" x1="462.35" y1="-325.04" x2="-10.65" y2="147.96"/>
          <line class="cls-8" x1="465.66" y1="-322.47" x2="-7.34" y2="150.53"/>
          <line class="cls-8" x1="468.6" y1="-319.53" x2="-4.4" y2="153.46"/>
          <line class="cls-8" x1="471.16" y1="-316.23" x2="-1.84" y2="156.77"/>
          <line class="cls-8" x1="477.04" y1="-310.35" x2="4.04" y2="162.64"/>
          <line class="cls-8" x1="483.28" y1="-304.85" x2="10.28" y2="168.15"/>
          <line class="cls-8" x1="489.15" y1="-298.98" x2="16.15" y2="174.02"/>
          <line class="cls-8" x1="503.47" y1="-283.92" x2="30.47" y2="189.07"/>
          <line class="cls-8" x1="506.4" y1="-280.99" x2="33.41" y2="192.01"/>
          <line class="cls-8" x1="512.65" y1="-275.48" x2="39.65" y2="197.51"/>
          <line class="cls-8" x1="518.52" y1="-269.61" x2="45.52" y2="203.39"/>
          <line class="cls-8" x1="526.96" y1="-260.43" x2="53.96" y2="212.57"/>
          <line class="cls-8" x1="529.9" y1="-257.49" x2="56.9" y2="215.5"/>
          <line class="cls-8" x1="536.14" y1="-251.99" x2="63.14" y2="221.01"/>
          <line class="cls-8" x1="544.95" y1="-243.18" x2="71.95" y2="229.82"/>
          <line class="cls-8" x1="559.26" y1="-228.13" x2="86.27" y2="244.87"/>
          <line class="cls-8" x1="565.14" y1="-222.25" x2="92.14" y2="250.74"/>
          <line class="cls-8" x1="568.44" y1="-219.69" x2="95.45" y2="253.31"/>
          <line class="cls-8" x1="574.32" y1="-213.81" x2="101.32" y2="259.18"/>
          <line class="cls-8" x1="582.76" y1="-204.63" x2="109.76" y2="268.36"/>
          <line class="cls-8" x1="591.57" y1="-195.82" x2="118.57" y2="277.17"/>
          <line class="cls-8" x1="597.81" y1="-190.32" x2="124.81" y2="282.68"/>
          <line class="cls-8" x1="606.62" y1="-181.51" x2="133.62" y2="291.49"/>
          <line class="cls-8" x1="588.63" y1="-198.76" x2="115.63" y2="274.24"/>
          <line class="cls-8" x1="594.5" y1="-192.89" x2="121.51" y2="280.11"/>
          <line class="cls-8" x1="603.68" y1="-184.45" x2="130.69" y2="288.55"/>
          <line class="cls-8" x1="612.49" y1="-175.64" x2="139.5" y2="297.36"/>
          <line class="cls-8" x1="620.93" y1="-166.46" x2="147.94" y2="306.54"/>
          <line class="cls-8" x1="623.87" y1="-163.52" x2="150.87" y2="309.48"/>
          <line class="cls-8" x1="630.11" y1="-158.02" x2="157.12" y2="314.98"/>
          <line class="cls-8" x1="633.05" y1="-155.08" x2="160.05" y2="317.92"/>
          <line class="cls-8" x1="635.62" y1="-151.77" x2="162.62" y2="321.22"/>
          <line class="cls-8" x1="638.55" y1="-148.84" x2="165.56" y2="324.16"/>
          <line class="cls-8" x1="641.86" y1="-146.27" x2="168.86" y2="326.73"/>
          <line class="cls-8" x1="644.8" y1="-143.33" x2="171.8" y2="329.66"/>
          <line class="cls-8" x1="647.36" y1="-140.03" x2="174.37" y2="332.97"/>
          <line class="cls-8" x1="656.17" y1="-131.22" x2="183.18" y2="341.78"/>
          <line class="cls-8" x1="662.05" y1="-125.34" x2="189.05" y2="347.65"/>
          <line class="cls-8" x1="665.35" y1="-122.78" x2="192.36" y2="350.22"/>
          <line class="cls-8" x1="668.29" y1="-119.84" x2="195.29" y2="353.16"/>
          <line class="cls-8" x1="670.86" y1="-116.53" x2="197.86" y2="356.46"/>
          <line class="cls-8" x1="673.79" y1="-113.6" x2="200.8" y2="359.4"/>
          <line class="cls-8" x1="677.1" y1="-111.03" x2="204.1" y2="361.97"/>
          <line class="cls-8" x1="680.04" y1="-108.09" x2="207.04" y2="364.91"/>
          <line class="cls-8" x1="682.6" y1="-104.79" x2="209.61" y2="368.21"/>
          <line class="cls-8" x1="685.54" y1="-101.85" x2="212.54" y2="371.15"/>
          <line class="cls-8" x1="688.85" y1="-99.28" x2="215.85" y2="373.72"/>
          <line class="cls-8" x1="691.78" y1="-96.35" x2="218.79" y2="376.65"/>
          <line class="cls-8" x1="694.35" y1="-93.04" x2="221.35" y2="379.96"/>
          <line class="cls-8" x1="700.22" y1="-87.17" x2="227.23" y2="385.83"/>
          <line class="cls-8" x1="706.47" y1="-81.66" x2="233.47" y2="391.34"/>
          <line class="cls-8" x1="712.34" y1="-75.79" x2="239.34" y2="397.21"/>
          <line class="cls-8" x1="697.29" y1="-90.1" x2="224.29" y2="382.9"/>
          <line class="cls-8" x1="703.16" y1="-84.23" x2="230.16" y2="388.77"/>
          <line class="cls-8" x1="709.4" y1="-78.73" x2="236.41" y2="394.27"/>
          <line class="cls-8" x1="715.28" y1="-72.85" x2="242.28" y2="400.15"/>
          <line class="cls-8" x1="717.84" y1="-69.54" x2="244.85" y2="403.45"/>
          <line class="cls-8" x1="720.78" y1="-66.61" x2="247.78" y2="406.39"/>
          <line class="cls-8" x1="724.09" y1="-64.04" x2="251.09" y2="408.96"/>
          <line class="cls-8" x1="727.03" y1="-61.1" x2="254.03" y2="411.89"/>
          <line class="cls-8" x1="729.59" y1="-57.8" x2="256.59" y2="415.2"/>
          <line class="cls-8" x1="732.53" y1="-54.86" x2="259.53" y2="418.14"/>
          <line class="cls-8" x1="735.84" y1="-52.29" x2="262.84" y2="420.7"/>
          <line class="cls-8" x1="738.77" y1="-49.36" x2="265.77" y2="423.64"/>
          <line class="cls-8" x1="741.34" y1="-46.05" x2="268.34" y2="426.95"/>
          <line class="cls-8" x1="744.28" y1="-43.11" x2="271.28" y2="429.88"/>
          <line class="cls-8" x1="747.58" y1="-40.55" x2="274.58" y2="432.45"/>
          <line class="cls-8" x1="750.52" y1="-37.61" x2="277.52" y2="435.39"/>
          <line class="cls-8" x1="753.09" y1="-34.3" x2="280.09" y2="438.69"/>
          <line class="cls-8" x1="756.02" y1="-31.37" x2="283.02" y2="441.63"/>
          <line class="cls-8" x1="759.33" y1="-28.8" x2="286.33" y2="444.2"/>
          <line class="cls-8" x1="762.27" y1="-25.86" x2="289.27" y2="447.13"/>
          <line class="cls-8" x1="764.83" y1="-22.56" x2="291.84" y2="450.44"/>
          <line class="cls-8" x1="767.77" y1="-19.62" x2="294.77" y2="453.38"/>
          <line class="cls-8" x1="771.08" y1="-17.05" x2="298.08" y2="455.94"/>
          <line class="cls-8" x1="774.01" y1="-14.12" x2="301.02" y2="458.88"/>
          <line class="cls-8" x1="776.58" y1="-10.81" x2="303.58" y2="462.19"/>
          <line class="cls-8" x1="779.52" y1="-7.87" x2="306.52" y2="465.12"/>
          <line class="cls-8" x1="782.82" y1="-5.31" x2="309.83" y2="467.69"/>
          <line class="cls-8" x1="788.7" y1="0.57" x2="315.7" y2="473.56"/>
          <line class="cls-8" x1="797.14" y1="9.75" x2="324.14" y2="482.74"/>
          <line class="cls-8" x1="803.01" y1="15.62" x2="330.01" y2="488.62"/>
          <line class="cls-8" x1="812.19" y1="24.06" x2="339.19" y2="497.06"/>
          <line class="cls-8" x1="821" y1="32.87" x2="348" y2="505.87"/>
          <line class="cls-8" x1="800.07" y1="12.68" x2="327.08" y2="485.68"/>
          <line class="cls-8" x1="808.88" y1="21.49" x2="335.89" y2="494.49"/>
          <line class="cls-8" x1="818.06" y1="29.93" x2="345.07" y2="502.93"/>
          <line class="cls-8" x1="826.87" y1="38.74" x2="353.88" y2="511.74"/>
          <line class="cls-8" x1="832.38" y1="44.99" x2="359.38" y2="517.98"/>
          <line class="cls-8" x1="838.25" y1="50.86" x2="365.25" y2="523.86"/>
          <line class="cls-8" x1="847.43" y1="59.3" x2="374.43" y2="532.3"/>
          <line class="cls-8" x1="856.24" y1="68.11" x2="383.24" y2="541.11"/>
          <line class="cls-8" x1="867.62" y1="80.23" x2="394.62" y2="553.22"/>
          <line class="cls-8" x1="870.55" y1="83.16" x2="397.56" y2="556.16"/>
          <line class="cls-8" x1="876.8" y1="88.67" x2="403.8" y2="561.66"/>
          <line class="cls-8" x1="882.67" y1="94.54" x2="409.67" y2="567.54"/>
          <line class="cls-8" x1="891.11" y1="103.72" x2="418.11" y2="576.72"/>
          <line class="cls-8" x1="785.39" y1="-2" x2="312.39" y2="471"/>
          <line class="cls-8" x1="791.63" y1="3.5" x2="318.64" y2="476.5"/>
          <line class="cls-8" x1="794.57" y1="6.44" x2="321.57" y2="479.44"/>
          <line class="cls-8" x1="805.95" y1="18.56" x2="332.95" y2="491.55"/>
          <line class="cls-8" x1="814.76" y1="27.37" x2="341.76" y2="500.36"/>
          <line class="cls-8" x1="823.94" y1="35.81" x2="350.94" y2="508.8"/>
          <line class="cls-8" x1="829.81" y1="41.68" x2="356.81" y2="514.68"/>
          <line class="cls-8" x1="835.31" y1="47.92" x2="362.32" y2="520.92"/>
          <line class="cls-8" x1="844.12" y1="56.73" x2="371.13" y2="529.73"/>
          <line class="cls-8" x1="853.3" y1="65.17" x2="380.31" y2="538.17"/>
          <line class="cls-8" x1="862.11" y1="73.98" x2="389.12" y2="546.98"/>
          <line class="cls-8" x1="841.19" y1="53.8" x2="368.19" y2="526.79"/>
          <line class="cls-8" x1="850" y1="62.61" x2="377" y2="535.6"/>
          <line class="cls-8" x1="859.18" y1="71.05" x2="386.18" y2="544.04"/>
          <line class="cls-8" x1="865.05" y1="76.92" x2="392.05" y2="549.92"/>
          <line class="cls-8" x1="873.49" y1="86.1" x2="400.49" y2="559.1"/>
          <line class="cls-8" x1="879.36" y1="91.97" x2="406.37" y2="564.97"/>
          <line class="cls-8" x1="885.61" y1="97.48" x2="412.61" y2="570.47"/>
          <line class="cls-8" x1="888.54" y1="100.41" x2="415.55" y2="573.41"/>
          <line class="cls-8" x1="894.05" y1="106.66" x2="421.05" y2="579.65"/>
          <line class="cls-8" x1="896.98" y1="109.59" x2="423.99" y2="582.59"/>
          <line class="cls-8" x1="900.29" y1="112.16" x2="427.29" y2="585.16"/>
          <line class="cls-8" x1="903.23" y1="115.1" x2="430.23" y2="588.09"/>
          <line class="cls-8" x1="905.79" y1="118.4" x2="432.8" y2="591.4"/>
          <line class="cls-8" x1="908.73" y1="121.34" x2="435.73" y2="594.34"/>
          <line class="cls-8" x1="912.04" y1="123.91" x2="439.04" y2="596.9"/>
          <line class="cls-8" x1="914.97" y1="126.84" x2="441.98" y2="599.84"/>
          <line class="cls-8" x1="917.54" y1="130.15" x2="444.54" y2="603.15"/>
          <line class="cls-8" x1="920.48" y1="133.09" x2="447.48" y2="606.08"/>
          <line class="cls-8" x1="923.78" y1="135.65" x2="450.79" y2="608.65"/>
          <line class="cls-8" x1="926.72" y1="138.59" x2="453.72" y2="611.59"/>
          <line class="cls-8" x1="929.29" y1="141.9" x2="456.29" y2="614.89"/>
          <line class="cls-8" x1="932.22" y1="144.83" x2="459.23" y2="617.83"/>
          <line class="cls-8" x1="935.53" y1="147.4" x2="462.53" y2="620.4"/>
          <line class="cls-8" x1="938.47" y1="150.34" x2="465.47" y2="623.34"/>
          <line class="cls-8" x1="941.03" y1="153.64" x2="468.04" y2="626.64"/>
          <line class="cls-8" x1="943.97" y1="156.58" x2="470.97" y2="629.58"/>
          <line class="cls-8" x1="947.28" y1="159.15" x2="474.28" y2="632.15"/>
          <line class="cls-8" x1="950.21" y1="162.08" x2="477.22" y2="635.08"/>
          <line class="cls-8" x1="952.78" y1="165.39" x2="479.78" y2="638.39"/>
          <line class="cls-8" x1="958.65" y1="171.26" x2="485.66" y2="644.26"/>
          <line class="cls-8" x1="964.9" y1="176.77" x2="491.9" y2="649.77"/>
          <line class="cls-8" x1="955.72" y1="168.33" x2="482.72" y2="641.33"/>
          <line class="cls-8" x1="961.59" y1="174.2" x2="488.59" y2="647.2"/>
          <line class="cls-8" x1="474.1" y1="-313.29" x2="1.1" y2="159.71"/>
          <line class="cls-8" x1="480.34" y1="-307.79" x2="7.34" y2="165.21"/>
          <line class="cls-8" x1="486.22" y1="-301.91" x2="13.22" y2="171.08"/>
          <line class="cls-8" x1="491.72" y1="-295.67" x2="18.72" y2="177.33"/>
          <line class="cls-8" x1="494.66" y1="-292.73" x2="21.66" y2="180.26"/>
          <line class="cls-8" x1="497.96" y1="-290.17" x2="24.96" y2="182.83"/>
          <line class="cls-8" x1="500.9" y1="-287.23" x2="27.9" y2="185.77"/>
          <line class="cls-8" x1="509.34" y1="-278.05" x2="36.34" y2="194.95"/>
          <line class="cls-8" x1="515.21" y1="-272.18" x2="42.22" y2="200.82"/>
          <line class="cls-8" x1="521.46" y1="-266.67" x2="48.46" y2="206.32"/>
          <line class="cls-8" x1="524.39" y1="-263.74" x2="51.4" y2="209.26"/>
          <line class="cls-8" x1="532.83" y1="-254.56" x2="59.84" y2="218.44"/>
          <line class="cls-8" x1="541.64" y1="-245.75" x2="68.65" y2="227.25"/>
          <line class="cls-8" x1="550.82" y1="-237.31" x2="77.83" y2="235.69"/>
          <line class="cls-8" x1="556.7" y1="-231.43" x2="83.7" y2="241.56"/>
          <line class="cls-8" x1="538.71" y1="-248.68" x2="65.71" y2="224.31"/>
          <line class="cls-8" x1="547.52" y1="-239.87" x2="74.52" y2="233.12"/>
          <line class="cls-8" x1="553.76" y1="-234.37" x2="80.76" y2="238.63"/>
          <line class="cls-8" x1="562.57" y1="-225.56" x2="89.57" y2="247.44"/>
          <line class="cls-8" x1="571.01" y1="-216.38" x2="98.01" y2="256.62"/>
          <line class="cls-8" x1="576.88" y1="-210.51" x2="103.89" y2="262.49"/>
          <line class="cls-8" x1="580.19" y1="-207.94" x2="107.19" y2="265.06"/>
          <line class="cls-8" x1="586.06" y1="-202.07" x2="113.07" y2="270.93"/>
          <line class="cls-8" x1="600.38" y1="-187.01" x2="127.38" y2="285.98"/>
          <line class="cls-8" x1="609.19" y1="-178.2" x2="136.19" y2="294.79"/>
          <line class="cls-8" x1="615.43" y1="-172.7" x2="142.43" y2="300.3"/>
          <line class="cls-8" x1="618.37" y1="-169.76" x2="145.37" y2="303.23"/>
          <line class="cls-8" x1="626.81" y1="-160.58" x2="153.81" y2="312.41"/>
          <line class="cls-8" x1="650.3" y1="-137.09" x2="177.3" y2="335.91"/>
          <line class="cls-8" x1="653.61" y1="-134.52" x2="180.61" y2="338.47"/>
          <line class="cls-8" x1="659.48" y1="-128.65" x2="186.48" y2="344.35"/>
        </g>
      </g>
      <path class="cls-5" d="M622.17,140.07h70.89v-35h-110C605,116,619.08,127.76,622.17,140.07Z"/>
      <path class="cls-5" d="M693.06,102.19V76.59H503.22c28.89,7.86,54.12,16.44,73.87,25.6Z"/>
      <path class="cls-9" d="M62.22,102.19H577.09c-19.75-9.16-45-17.74-73.87-25.6h-441Z"/>
      <g class="cls-10">
        <g>
          <line class="cls-11" x1="313.75" y1="-358.39" x2="-159.25" y2="114.61"/>
          <line class="cls-11" x1="316.68" y1="-355.45" x2="-156.31" y2="117.55"/>
          <line class="cls-11" x1="319.99" y1="-352.88" x2="-153.01" y2="120.11"/>
          <line class="cls-11" x1="322.93" y1="-349.95" x2="-150.07" y2="123.05"/>
          <line class="cls-11" x1="325.5" y1="-346.64" x2="-147.5" y2="126.36"/>
          <line class="cls-11" x1="328.43" y1="-343.7" x2="-144.57" y2="129.29"/>
          <line class="cls-11" x1="331.74" y1="-341.14" x2="-141.26" y2="131.86"/>
          <line class="cls-11" x1="334.68" y1="-338.2" x2="-138.32" y2="134.8"/>
          <line class="cls-11" x1="337.24" y1="-334.89" x2="-135.76" y2="138.1"/>
          <line class="cls-11" x1="340.18" y1="-331.96" x2="-132.82" y2="141.04"/>
          <line class="cls-11" x1="343.49" y1="-329.39" x2="-129.51" y2="143.61"/>
          <line class="cls-11" x1="346.42" y1="-326.45" x2="-126.58" y2="146.54"/>
          <line class="cls-11" x1="348.99" y1="-323.15" x2="-124.01" y2="149.85"/>
          <line class="cls-11" x1="354.86" y1="-317.27" x2="-118.14" y2="155.72"/>
          <line class="cls-11" x1="361.11" y1="-311.77" x2="-111.89" y2="161.23"/>
          <line class="cls-11" x1="366.98" y1="-305.9" x2="-106.02" y2="167.1"/>
          <line class="cls-11" x1="351.93" y1="-320.21" x2="-121.07" y2="152.79"/>
          <line class="cls-11" x1="357.8" y1="-314.34" x2="-115.2" y2="158.66"/>
          <line class="cls-11" x1="364.04" y1="-308.83" x2="-108.95" y2="164.16"/>
          <line class="cls-11" x1="369.92" y1="-302.96" x2="-103.08" y2="170.04"/>
          <line class="cls-11" x1="372.48" y1="-299.65" x2="-100.51" y2="173.35"/>
          <line class="cls-11" x1="375.42" y1="-296.72" x2="-97.58" y2="176.28"/>
          <line class="cls-11" x1="378.73" y1="-294.15" x2="-94.27" y2="178.85"/>
          <line class="cls-11" x1="381.66" y1="-291.21" x2="-91.33" y2="181.79"/>
          <line class="cls-11" x1="384.23" y1="-287.91" x2="-88.77" y2="185.09"/>
          <line class="cls-11" x1="387.17" y1="-284.97" x2="-85.83" y2="188.03"/>
          <line class="cls-11" x1="390.47" y1="-282.4" x2="-82.52" y2="190.6"/>
          <line class="cls-11" x1="393.41" y1="-279.47" x2="-79.59" y2="193.53"/>
          <line class="cls-11" x1="395.98" y1="-276.16" x2="-77.02" y2="196.84"/>
          <line class="cls-11" x1="401.85" y1="-270.29" x2="-71.15" y2="202.71"/>
          <line class="cls-11" x1="408.09" y1="-264.78" x2="-64.9" y2="208.22"/>
          <line class="cls-11" x1="413.97" y1="-258.91" x2="-59.03" y2="214.09"/>
          <line class="cls-11" x1="428.28" y1="-243.85" x2="-44.72" y2="229.14"/>
          <line class="cls-11" x1="431.22" y1="-240.92" x2="-41.78" y2="232.08"/>
          <line class="cls-11" x1="437.46" y1="-235.41" x2="-35.54" y2="237.58"/>
          <line class="cls-11" x1="443.33" y1="-229.54" x2="-29.66" y2="243.46"/>
          <line class="cls-11" x1="451.77" y1="-220.36" x2="-21.22" y2="252.64"/>
          <line class="cls-11" x1="454.71" y1="-217.42" x2="-18.29" y2="255.57"/>
          <line class="cls-11" x1="460.95" y1="-211.92" x2="-12.04" y2="261.08"/>
          <line class="cls-11" x1="469.76" y1="-203.11" x2="-3.23" y2="269.89"/>
          <line class="cls-11" x1="484.08" y1="-188.06" x2="11.08" y2="284.94"/>
          <line class="cls-11" x1="489.95" y1="-182.18" x2="16.95" y2="290.81"/>
          <line class="cls-11" x1="493.26" y1="-179.62" x2="20.26" y2="293.38"/>
          <line class="cls-11" x1="499.13" y1="-173.74" x2="26.13" y2="299.25"/>
          <line class="cls-11" x1="507.57" y1="-164.56" x2="34.57" y2="308.43"/>
          <line class="cls-11" x1="516.38" y1="-155.75" x2="43.38" y2="317.24"/>
          <line class="cls-11" x1="522.62" y1="-150.25" x2="49.63" y2="322.75"/>
          <line class="cls-11" x1="531.43" y1="-141.44" x2="58.44" y2="331.56"/>
          <line class="cls-11" x1="513.44" y1="-158.69" x2="40.45" y2="314.31"/>
          <line class="cls-11" x1="519.32" y1="-152.82" x2="46.32" y2="320.18"/>
          <line class="cls-11" x1="528.5" y1="-144.38" x2="55.5" y2="328.62"/>
          <line class="cls-11" x1="537.31" y1="-135.57" x2="64.31" y2="337.43"/>
          <line class="cls-11" x1="545.75" y1="-126.39" x2="72.75" y2="346.61"/>
          <line class="cls-11" x1="548.68" y1="-123.45" x2="75.69" y2="349.55"/>
          <line class="cls-11" x1="554.93" y1="-117.95" x2="81.93" y2="355.05"/>
          <line class="cls-11" x1="557.86" y1="-115.01" x2="84.87" y2="357.99"/>
          <line class="cls-11" x1="560.43" y1="-111.7" x2="87.43" y2="361.29"/>
          <line class="cls-11" x1="563.37" y1="-108.77" x2="90.37" y2="364.23"/>
          <line class="cls-11" x1="566.67" y1="-106.2" x2="93.68" y2="366.8"/>
          <line class="cls-11" x1="569.61" y1="-103.26" x2="96.61" y2="369.73"/>
          <line class="cls-11" x1="572.18" y1="-99.96" x2="99.18" y2="373.04"/>
          <line class="cls-11" x1="580.99" y1="-91.15" x2="107.99" y2="381.85"/>
          <line class="cls-11" x1="586.86" y1="-85.27" x2="113.86" y2="387.72"/>
          <line class="cls-11" x1="590.17" y1="-82.71" x2="117.17" y2="390.29"/>
          <line class="cls-11" x1="593.11" y1="-79.77" x2="120.11" y2="393.23"/>
          <line class="cls-11" x1="595.67" y1="-76.46" x2="122.67" y2="396.53"/>
          <line class="cls-11" x1="598.61" y1="-73.53" x2="125.61" y2="399.47"/>
          <line class="cls-11" x1="601.92" y1="-70.96" x2="128.92" y2="402.04"/>
          <line class="cls-11" x1="604.85" y1="-68.02" x2="131.85" y2="404.97"/>
          <line class="cls-11" x1="607.42" y1="-64.72" x2="134.42" y2="408.28"/>
          <line class="cls-11" x1="610.36" y1="-61.78" x2="137.36" y2="411.22"/>
          <line class="cls-11" x1="613.66" y1="-59.21" x2="140.66" y2="413.78"/>
          <line class="cls-11" x1="616.6" y1="-56.28" x2="143.6" y2="416.72"/>
          <line class="cls-11" x1="619.17" y1="-52.97" x2="146.17" y2="420.03"/>
          <line class="cls-11" x1="625.04" y1="-47.1" x2="152.04" y2="425.9"/>
          <line class="cls-11" x1="631.28" y1="-41.59" x2="158.29" y2="431.41"/>
          <line class="cls-11" x1="637.16" y1="-35.72" x2="164.16" y2="437.28"/>
          <line class="cls-11" x1="622.1" y1="-50.03" x2="149.11" y2="422.97"/>
          <line class="cls-11" x1="627.98" y1="-44.16" x2="154.98" y2="428.84"/>
          <line class="cls-11" x1="634.22" y1="-38.66" x2="161.22" y2="434.34"/>
          <line class="cls-11" x1="640.09" y1="-32.78" x2="167.1" y2="440.22"/>
          <line class="cls-11" x1="642.66" y1="-29.48" x2="169.66" y2="443.52"/>
          <line class="cls-11" x1="645.6" y1="-26.54" x2="172.6" y2="446.46"/>
          <line class="cls-11" x1="648.9" y1="-23.97" x2="175.91" y2="449.03"/>
          <line class="cls-11" x1="651.84" y1="-21.04" x2="178.84" y2="451.96"/>
          <line class="cls-11" x1="654.41" y1="-17.73" x2="181.41" y2="455.27"/>
          <line class="cls-11" x1="657.34" y1="-14.79" x2="184.35" y2="458.21"/>
          <line class="cls-11" x1="660.65" y1="-12.22" x2="187.65" y2="460.77"/>
          <line class="cls-11" x1="663.59" y1="-9.29" x2="190.59" y2="463.71"/>
          <line class="cls-11" x1="666.15" y1="-5.98" x2="193.16" y2="467.02"/>
          <line class="cls-11" x1="669.09" y1="-3.04" x2="196.09" y2="469.95"/>
          <line class="cls-11" x1="672.4" y1="-0.48" x2="199.4" y2="472.52"/>
          <line class="cls-11" x1="675.33" y1="2.46" x2="202.34" y2="475.46"/>
          <line class="cls-11" x1="677.9" y1="5.77" x2="204.9" y2="478.76"/>
          <line class="cls-11" x1="680.84" y1="8.7" x2="207.84" y2="481.7"/>
          <line class="cls-11" x1="684.14" y1="11.27" x2="211.15" y2="484.27"/>
          <line class="cls-11" x1="687.08" y1="14.21" x2="214.08" y2="487.2"/>
          <line class="cls-11" x1="689.65" y1="17.51" x2="216.65" y2="490.51"/>
          <line class="cls-11" x1="692.58" y1="20.45" x2="219.59" y2="493.45"/>
          <line class="cls-11" x1="695.89" y1="23.02" x2="222.89" y2="496.01"/>
          <line class="cls-11" x1="698.83" y1="25.95" x2="225.83" y2="498.95"/>
          <line class="cls-11" x1="701.39" y1="29.26" x2="228.4" y2="502.26"/>
          <line class="cls-11" x1="704.33" y1="32.2" x2="231.33" y2="505.19"/>
          <line class="cls-11" x1="707.64" y1="34.76" x2="234.64" y2="507.76"/>
          <line class="cls-11" x1="713.51" y1="40.64" x2="240.51" y2="513.63"/>
          <line class="cls-11" x1="721.95" y1="49.82" x2="248.95" y2="522.81"/>
          <line class="cls-11" x1="727.82" y1="55.69" x2="254.83" y2="528.69"/>
          <line class="cls-11" x1="737" y1="64.13" x2="264.01" y2="537.13"/>
          <line class="cls-11" x1="745.81" y1="72.94" x2="272.82" y2="545.94"/>
          <line class="cls-11" x1="724.89" y1="52.75" x2="251.89" y2="525.75"/>
          <line class="cls-11" x1="733.7" y1="61.56" x2="260.7" y2="534.56"/>
          <line class="cls-11" x1="742.88" y1="70" x2="269.88" y2="543"/>
          <line class="cls-11" x1="751.69" y1="78.81" x2="278.69" y2="551.81"/>
          <line class="cls-11" x1="757.19" y1="85.06" x2="284.19" y2="558.05"/>
          <line class="cls-11" x1="763.06" y1="90.93" x2="290.07" y2="563.93"/>
          <line class="cls-11" x1="772.24" y1="99.37" x2="299.25" y2="572.37"/>
          <line class="cls-11" x1="781.05" y1="108.18" x2="308.06" y2="581.18"/>
          <line class="cls-11" x1="792.43" y1="120.3" x2="319.43" y2="593.29"/>
          <line class="cls-11" x1="795.37" y1="123.23" x2="322.37" y2="596.23"/>
          <line class="cls-11" x1="801.61" y1="128.74" x2="328.61" y2="601.73"/>
          <line class="cls-11" x1="807.48" y1="134.61" x2="334.49" y2="607.61"/>
          <line class="cls-11" x1="815.92" y1="143.79" x2="342.93" y2="616.79"/>
          <line class="cls-11" x1="710.2" y1="38.07" x2="237.21" y2="511.07"/>
          <line class="cls-11" x1="716.45" y1="43.57" x2="243.45" y2="516.57"/>
          <line class="cls-11" x1="719.38" y1="46.51" x2="246.39" y2="519.51"/>
          <line class="cls-11" x1="730.76" y1="58.63" x2="257.76" y2="531.62"/>
          <line class="cls-11" x1="739.57" y1="67.44" x2="266.57" y2="540.43"/>
          <line class="cls-11" x1="748.75" y1="75.88" x2="275.75" y2="548.87"/>
          <line class="cls-11" x1="754.62" y1="81.75" x2="281.63" y2="554.75"/>
          <line class="cls-11" x1="760.13" y1="87.99" x2="287.13" y2="560.99"/>
          <line class="cls-11" x1="768.94" y1="96.8" x2="295.94" y2="569.8"/>
          <line class="cls-11" x1="778.12" y1="105.24" x2="305.12" y2="578.24"/>
          <line class="cls-11" x1="786.93" y1="114.05" x2="313.93" y2="587.05"/>
          <line class="cls-11" x1="766" y1="93.87" x2="293" y2="566.86"/>
          <line class="cls-11" x1="774.81" y1="102.68" x2="301.81" y2="575.67"/>
          <line class="cls-11" x1="783.99" y1="111.12" x2="310.99" y2="584.11"/>
          <line class="cls-11" x1="789.86" y1="116.99" x2="316.87" y2="589.99"/>
          <line class="cls-11" x1="798.3" y1="126.17" x2="325.31" y2="599.17"/>
          <line class="cls-11" x1="804.18" y1="132.04" x2="331.18" y2="605.04"/>
          <line class="cls-11" x1="810.42" y1="137.55" x2="337.42" y2="610.54"/>
          <line class="cls-11" x1="813.36" y1="140.48" x2="340.36" y2="613.48"/>
          <line class="cls-11" x1="818.86" y1="146.73" x2="345.86" y2="619.72"/>
          <line class="cls-11" x1="821.8" y1="149.66" x2="348.8" y2="622.66"/>
          <line class="cls-11" x1="825.1" y1="152.23" x2="352.11" y2="625.23"/>
          <line class="cls-11" x1="828.04" y1="155.17" x2="355.04" y2="628.16"/>
          <line class="cls-11" x1="830.61" y1="158.47" x2="357.61" y2="631.47"/>
          <line class="cls-11" x1="833.55" y1="161.41" x2="360.55" y2="634.41"/>
          <line class="cls-11" x1="836.85" y1="163.98" x2="363.85" y2="636.97"/>
          <line class="cls-11" x1="839.79" y1="166.91" x2="366.79" y2="639.91"/>
          <line class="cls-11" x1="842.36" y1="170.22" x2="369.36" y2="643.22"/>
          <line class="cls-11" x1="845.29" y1="173.16" x2="372.29" y2="646.15"/>
          <line class="cls-11" x1="848.6" y1="175.72" x2="375.6" y2="648.72"/>
          <line class="cls-11" x1="398.91" y1="-273.22" x2="-74.08" y2="199.78"/>
          <line class="cls-11" x1="405.16" y1="-267.72" x2="-67.84" y2="205.28"/>
          <line class="cls-11" x1="411.03" y1="-261.84" x2="-61.97" y2="211.15"/>
          <line class="cls-11" x1="416.53" y1="-255.6" x2="-56.46" y2="217.4"/>
          <line class="cls-11" x1="419.47" y1="-252.66" x2="-53.53" y2="220.33"/>
          <line class="cls-11" x1="422.78" y1="-250.1" x2="-50.22" y2="222.9"/>
          <line class="cls-11" x1="425.71" y1="-247.16" x2="-47.28" y2="225.84"/>
          <line class="cls-11" x1="434.15" y1="-237.98" x2="-38.84" y2="235.02"/>
          <line class="cls-11" x1="440.03" y1="-232.11" x2="-32.97" y2="240.89"/>
          <line class="cls-11" x1="446.27" y1="-226.6" x2="-26.73" y2="246.39"/>
          <line class="cls-11" x1="449.21" y1="-223.67" x2="-23.79" y2="249.33"/>
          <line class="cls-11" x1="457.65" y1="-214.49" x2="-15.35" y2="258.51"/>
          <line class="cls-11" x1="466.46" y1="-205.68" x2="-6.54" y2="267.32"/>
          <line class="cls-11" x1="475.64" y1="-197.24" x2="2.64" y2="275.76"/>
          <line class="cls-11" x1="481.51" y1="-191.36" x2="8.51" y2="281.63"/>
          <line class="cls-11" x1="463.52" y1="-208.61" x2="-9.48" y2="264.38"/>
          <line class="cls-11" x1="472.33" y1="-199.8" x2="-0.67" y2="273.19"/>
          <line class="cls-11" x1="478.57" y1="-194.3" x2="5.58" y2="278.7"/>
          <line class="cls-11" x1="487.38" y1="-185.49" x2="14.39" y2="287.51"/>
          <line class="cls-11" x1="495.82" y1="-176.31" x2="22.83" y2="296.69"/>
          <line class="cls-11" x1="501.7" y1="-170.44" x2="28.7" y2="302.56"/>
          <line class="cls-11" x1="505" y1="-167.87" x2="32.01" y2="305.13"/>
          <line class="cls-11" x1="510.88" y1="-162" x2="37.88" y2="311"/>
          <line class="cls-11" x1="525.19" y1="-146.94" x2="52.19" y2="326.05"/>
          <line class="cls-11" x1="534" y1="-138.13" x2="61" y2="334.86"/>
          <line class="cls-11" x1="540.24" y1="-132.63" x2="67.25" y2="340.37"/>
          <line class="cls-11" x1="543.18" y1="-129.69" x2="70.18" y2="343.3"/>
          <line class="cls-11" x1="551.62" y1="-120.51" x2="78.62" y2="352.48"/>
          <line class="cls-11" x1="575.11" y1="-97.02" x2="102.12" y2="375.98"/>
          <line class="cls-11" x1="578.42" y1="-94.45" x2="105.42" y2="378.54"/>
          <line class="cls-11" x1="584.3" y1="-88.58" x2="111.3" y2="384.42"/>
        </g>
      </g>
      <g>
        <circle class="cls-12" cx="62.22" cy="51.4" r="22.23"/>
        <g>
          <path class="cls-13" d="M75.23,51.19H72l-9.88-9.88-9.88,9.88H48.76v7H47.24V60H60.06V54.08h3.85V60h12.7V58.19H75.22ZM53.6,57.58H50.65V54.14H53.6Zm4.93,0h-3V54.14h3Zm5.39-6.76H60.07v-4a1.93,1.93,0,0,1,3.85,0Zm4.48,6.76H65.45V54.14H68.4Zm4.93,0H70.38V54.14h2.95Z"/>
          <polygon class="cls-13" points="72.47 44.59 68.59 44.59 62.09 38.09 55.59 44.59 51.35 44.59 46.99 49.2 46.99 50.43 51.89 50.43 62.09 40.23 72.29 50.43 75.23 50.43 75.23 50.4 77.19 50.4 77.19 49.2 72.47 44.59"/>
        </g>
      </g>
      <circle class="cls-14" cx="62.22" cy="122.55" r="17.52"/>
      <g>
        <circle class="cls-15" cx="62.22" cy="89.37" r="12.8"/>
        <path class="cls-13" d="M67.28,85.71H56.9a1.12,1.12,0,0,0-1.12,1.12v5.69a1.12,1.12,0,0,0,1.12,1.12H67.27a1.12,1.12,0,0,0,1.12-1.12V86.83A1.12,1.12,0,0,0,67.28,85.71Zm-7.73,6.73h-2.4V90.88h2.4ZM67,88.11H56.68V87H67Z"/>
      </g>
      <line class="cls-16" x1="59.07" y1="153.63" x2="693.06" y2="153.63"/>
      <line class="cls-16" x1="185.87" y1="148.39" x2="185.87" y2="159.04"/>
      <line class="cls-16" x1="59.07" y1="148.39" x2="59.07" y2="159.04"/>
      <line class="cls-16" x1="312.67" y1="148.39" x2="312.67" y2="159.04"/>
      <line class="cls-16" x1="439.47" y1="148.39" x2="439.47" y2="159.04"/>
      <line class="cls-16" x1="566.26" y1="148.39" x2="566.26" y2="159.04"/>
      <line class="cls-16" x1="693.06" y1="148.39" x2="693.06" y2="159.04"/>
      <g>
        <path class="cls-17" d="M176.67,168.71l.79-1a2.4,2.4,0,0,0,1.77.73c.79,0,1.24-.45,1.24-1s-.44-1-1.2-1a1.91,1.91,0,0,0-1.4.54l-1-.27v-3.82h4.58v1.3h-3.16v1.63a2.11,2.11,0,0,1,1.47-.56,2.08,2.08,0,0,1,2.14,2s0,.09,0,.14c0,1.41-1.06,2.31-2.67,2.31A3.33,3.33,0,0,1,176.67,168.71Z"/>
        <path class="cls-17" d="M185.49,170.34a1.1,1.1,0,0,0,.4.08.64.64,0,0,0,.67-.35l.18-.42-2-4.89h1.36l1.26,3.36,1.27-3.36H190l-2.27,5.62a1.75,1.75,0,0,1-1.83,1.17,2.71,2.71,0,0,1-.62-.08Z"/>
        <path class="cls-17" d="M190.55,169.59v-4.83h1.27v.65a2.12,2.12,0,0,1,1.54-.77v1.24a1.65,1.65,0,0,0-.35,0,1.62,1.62,0,0,0-1.19.55v3.19Z"/>
        <path class="cls-17" d="M193.16,168.89a.81.81,0,1,1,.81.81h0A.82.82,0,0,1,193.16,168.89Z"/>
      </g>
      <g>
        <path class="cls-17" d="M52.76,166.26c0-1.72.85-3.44,2.76-3.44s2.76,1.72,2.76,3.44-.85,3.45-2.76,3.45S52.76,168,52.76,166.26Zm4.07,0c0-1.23-.35-2.18-1.31-2.18s-1.31,1-1.31,2.18.36,2.19,1.31,2.19,1.31-1,1.31-2.19Z"/>
        <path class="cls-17" d="M61.84,170.34a1.1,1.1,0,0,0,.4.08.64.64,0,0,0,.67-.35l.18-.42-2-4.89h1.36l1.26,3.36L65,164.76h1.36l-2.27,5.62a1.75,1.75,0,0,1-1.83,1.17,2.71,2.71,0,0,1-.62-.08Z"/>
        <path class="cls-17" d="M67,169.59v-4.83h1.27v.65a2.12,2.12,0,0,1,1.54-.77v1.24a1.65,1.65,0,0,0-.35,0,1.62,1.62,0,0,0-1.19.55v3.19Z"/>
        <path class="cls-17" d="M69.55,168.89a.81.81,0,1,1,.81.81h0A.82.82,0,0,1,69.55,168.89Z"/>
      </g>
      <g>
        <path class="cls-17" d="M304.76,169.59v-4.84l-1.11,1.13-.81-.85,2.1-2.11h1.24v6.67Z"/>
        <path class="cls-17" d="M307.18,166.26c0-1.72.85-3.44,2.76-3.44s2.76,1.72,2.76,3.44-.85,3.45-2.76,3.45S307.18,168,307.18,166.26Zm4.07,0c0-1.23-.35-2.18-1.31-2.18s-1.31,1-1.31,2.18.36,2.19,1.31,2.19S311.25,167.49,311.25,166.26Z"/>
        <path class="cls-17" d="M316.26,170.34a1.1,1.1,0,0,0,.4.08.64.64,0,0,0,.67-.35l.18-.42-2-4.89h1.36l1.26,3.36,1.27-3.36h1.36l-2.21,5.62a1.75,1.75,0,0,1-1.83,1.17,2.71,2.71,0,0,1-.62-.08Z"/>
        <path class="cls-17" d="M321.37,169.59v-4.83h1.27v.65a2.12,2.12,0,0,1,1.54-.77v1.24a1.65,1.65,0,0,0-.35,0,1.62,1.62,0,0,0-1.19.55v3.19Z"/>
        <path class="cls-17" d="M323.94,168.89a.81.81,0,1,1,.81.81h0A.82.82,0,0,1,323.94,168.89Z"/>
      </g>
      <g>
        <path class="cls-17" d="M429.76,169.59v-4.84l-1.11,1.13-.81-.85,2.1-2.11h1.24v6.67Z"/>
        <path class="cls-17" d="M432.33,168.71l.79-1a2.4,2.4,0,0,0,1.77.73c.79,0,1.24-.45,1.24-1s-.44-1-1.2-1a1.91,1.91,0,0,0-1.4.54l-1-.27v-3.82h4.58v1.3H434v1.63a2.11,2.11,0,0,1,1.47-.56,2.08,2.08,0,0,1,2.14,2s0,.09,0,.14c0,1.41-1.06,2.31-2.67,2.31A3.33,3.33,0,0,1,432.33,168.71Z"/>
        <path class="cls-17" d="M441.14,170.34a1.1,1.1,0,0,0,.4.08.64.64,0,0,0,.67-.35l.18-.42-2-4.89h1.36l1.26,3.36,1.27-3.36h1.36l-2.27,5.62a1.75,1.75,0,0,1-1.83,1.17,2.71,2.71,0,0,1-.62-.08Z"/>
        <path class="cls-17" d="M446.25,169.59v-4.83h1.3v.65a2.12,2.12,0,0,1,1.54-.77v1.24a1.65,1.65,0,0,0-.35,0,1.62,1.62,0,0,0-1.19.55v3.19Z"/>
        <path class="cls-17" d="M448.82,168.89a.81.81,0,1,1,.81.81h0A.82.82,0,0,1,448.82,168.89Z"/>
      </g>
      <g>
        <path class="cls-17" d="M554.76,169.59v-1.12c2.73-2,3.53-2.7,3.53-3.52,0-.59-.53-.87-1.08-.87a2.39,2.39,0,0,0-1.79.77l-.81-.94a3.4,3.4,0,0,1,2.57-1.09c1.43,0,2.55.8,2.55,2.13,0,1.14-.94,2.13-2.67,3.39h2.72v1.25Z"/>
        <path class="cls-17" d="M560.63,166.26c0-1.72.85-3.44,2.76-3.44s2.76,1.72,2.76,3.44-.85,3.45-2.76,3.45S560.63,168,560.63,166.26Zm4.07,0c0-1.23-.35-2.18-1.31-2.18s-1.31,1-1.31,2.18.36,2.19,1.31,2.19S564.7,167.49,564.7,166.26Z"/>
        <path class="cls-17" d="M569.71,170.34a1.1,1.1,0,0,0,.4.08.64.64,0,0,0,.67-.35l.18-.42-2-4.89h1.36l1.26,3.36,1.27-3.36h1.36l-2.27,5.62a1.75,1.75,0,0,1-1.83,1.17,2.71,2.71,0,0,1-.62-.08Z"/>
        <path class="cls-17" d="M574.82,169.59v-4.83h1.27v.65a2.12,2.12,0,0,1,1.54-.77v1.24a1.65,1.65,0,0,0-.35,0,1.62,1.62,0,0,0-1.19.55v3.19Z"/>
        <path class="cls-17" d="M577.39,168.89a.81.81,0,1,1,.81.81h0A.82.82,0,0,1,577.39,168.89Z"/>
      </g>
      <g>
        <path class="cls-17" d="M680.31,169.59v-1.12c2.73-2,3.53-2.7,3.53-3.52,0-.59-.53-.87-1.08-.87a2.39,2.39,0,0,0-1.79.77l-.81-.94a3.4,3.4,0,0,1,2.57-1.09c1.43,0,2.55.8,2.55,2.13,0,1.14-.94,2.13-2.67,3.39h2.72v1.25Z"/>
        <path class="cls-17" d="M686.33,168.71l.79-1a2.4,2.4,0,0,0,1.77.73c.79,0,1.24-.45,1.24-1s-.44-1-1.2-1a1.91,1.91,0,0,0-1.4.54l-1-.27v-3.82h4.58v1.3H688v1.63a2.11,2.11,0,0,1,1.47-.56,2.08,2.08,0,0,1,2.14,2s0,.09,0,.14c0,1.41-1.06,2.31-2.67,2.31A3.33,3.33,0,0,1,686.33,168.71Z"/>
        <path class="cls-17" d="M695.14,170.34a1.1,1.1,0,0,0,.4.08.64.64,0,0,0,.67-.35l.18-.42-2-4.89h1.36l1.26,3.36,1.27-3.36h1.36l-2.27,5.62a1.75,1.75,0,0,1-1.83,1.17,2.71,2.71,0,0,1-.62-.08Z"/>
        <path class="cls-17" d="M700.25,169.59v-4.83h1.3v.65a2.12,2.12,0,0,1,1.54-.77v1.24a1.65,1.65,0,0,0-.35,0,1.62,1.62,0,0,0-1.19.55v3.19Z"/>
        <path class="cls-17" d="M702.82,168.89a.81.81,0,1,1,.81.81h0A.82.82,0,0,1,702.82,168.89Z"/>
      </g>
      <g>
        <path class="cls-18" d="M292.29,18.19l-1.64-6.42L289,18.19h-2.12l-2.68-9.34h2.23l1.64,6.75,1.78-6.75h1.55l1.77,6.75,1.64-6.75h2.23l-2.66,9.34Z"/>
        <path class="cls-18" d="M297.79,9.66a1.06,1.06,0,1,1,1.06,1.06,1.06,1.06,0,0,1-1.06-1.06Zm.17,8.56V11.45h1.78v6.74Z"/>
        <path class="cls-18" d="M301.86,16.52V13h-1.12V11.45h1.12V9.6h1.78v1.85H305V13h-1.37v3c0,.43.22.76.62.76a.89.89,0,0,0,.62-.21l.38,1.36a2.2,2.2,0,0,1-1.48.43,1.68,1.68,0,0,1-1.92-1.82Z"/>
        <path class="cls-18" d="M310.81,18.19V14.07c0-.94-.49-1.23-1.25-1.23a2,2,0,0,0-1.54.78v4.57h-1.79V8.85H308V12.3a3.14,3.14,0,0,1,2.37-1,2,2,0,0,1,2.2,2.13v4.76Z"/>
        <path class="cls-18" d="M313.92,14.83a3.58,3.58,0,1,1,3.6,3.56h0a3.43,3.43,0,0,1-3.57-3.28Q313.92,15,313.92,14.83Zm5.31,0a1.75,1.75,0,1,0-1.74,2,1.78,1.78,0,0,0,1.74-2Z"/>
        <path class="cls-18" d="M327,18.19v-.85a3.22,3.22,0,0,1-2.38,1,1.94,1.94,0,0,1-2.19-2.13v-4.8h1.78v4.1a1.09,1.09,0,0,0,1.25,1.25A2,2,0,0,0,327,16V11.41h1.78v6.78Z"/>
        <path class="cls-18" d="M330.87,16.52V13h-1.12V11.45h1.12V9.6h1.78v1.85H334V13h-1.37v3c0,.43.22.76.62.76a.89.89,0,0,0,.62-.21l.38,1.36a2.2,2.2,0,0,1-1.48.43,1.68,1.68,0,0,1-1.92-1.82Z"/>
        <path class="cls-18" d="M338.88,18.19V8.85h3.67c2.93,0,5,1.86,5,4.66s-2,4.68-4.94,4.68Zm6.61-4.68A2.73,2.73,0,0,0,343,10.6h-2.08v5.84h1.68a2.8,2.8,0,0,0,2.94-2.65q0-.12,0-.25Z"/>
        <path class="cls-18" d="M348.45,14.83a3.45,3.45,0,0,1,3.36-3.54H352A3.4,3.4,0,0,1,355.34,15v.42h-5a1.81,1.81,0,0,0,2,1.51,2.83,2.83,0,0,0,1.79-.66l.8,1.18a4.22,4.22,0,0,1-2.79.94,3.43,3.43,0,0,1-3.64-3.56Zm3.5-2.09a1.56,1.56,0,0,0-1.65,1.44h3.33A1.55,1.55,0,0,0,352,12.74h0Z"/>
        <path class="cls-18" d="M356.63,18.19V8.85h1.78V12.3a2.57,2.57,0,0,1,2.09-1c1.72,0,3,1.34,3,3.54s-1.29,3.56-3,3.56a2.63,2.63,0,0,1-2.09-1v.79ZM360,16.77a2,2,0,1,0-1.54-3.16V16a2,2,0,0,0,1.54.79Z"/>
        <path class="cls-18" d="M365.2,16.52V13h-1.12V11.45h1.12V9.6H367v1.85h1.37V13H367v3c0,.43.22.76.62.76a.9.9,0,0,0,.62-.21l.38,1.36a2.2,2.2,0,0,1-1.48.43,1.68,1.68,0,0,1-1.92-1.82Z"/>
        <path class="cls-18" d="M378.49,18.19l-1.83-3.32H375.2v3.32h-2V8.85h4.35a2.92,2.92,0,0,1,3.15,3,2.7,2.7,0,0,1-2.06,2.77l2.12,3.56Zm.2-6.35a1.26,1.26,0,0,0-1.26-1.26H375.2v2.6h2.1a1.27,1.27,0,0,0,1.38-1.32Z"/>
        <path class="cls-18" d="M381.31,14.83a3.45,3.45,0,0,1,3.36-3.54h.14A3.4,3.4,0,0,1,388.2,15v.42h-5a1.81,1.81,0,0,0,2,1.51,2.82,2.82,0,0,0,1.79-.66l.8,1.18a4.22,4.22,0,0,1-2.79.94,3.43,3.43,0,0,1-3.64-3.56Zm3.5-2.09a1.56,1.56,0,0,0-1.65,1.44h3.33a1.55,1.55,0,0,0-1.65-1.44h0Z"/>
        <path class="cls-18" d="M394.14,18.19v-.87a2.61,2.61,0,0,1-2.09,1c-1.7,0-3-1.29-3-3.56s1.28-3.54,3-3.54a2.57,2.57,0,0,1,2.09,1V8.77h1.79v9.42Zm0-2.19V13.61a1.93,1.93,0,0,0-1.53-.77,2,2,0,0,0,0,3.94,1.93,1.93,0,0,0,1.53-.75Z"/>
        <path class="cls-18" d="M402.26,18.19v-.85a3.22,3.22,0,0,1-2.38,1,1.94,1.94,0,0,1-2.19-2.13v-4.8h1.78v4.1a1.09,1.09,0,0,0,1.25,1.25,2,2,0,0,0,1.54-.77V11.41H404v6.78Z"/>
        <path class="cls-18" d="M405.36,14.83a3.44,3.44,0,0,1,3.34-3.54H409a3.15,3.15,0,0,1,2.67,1.22l-1.16,1.09a1.64,1.64,0,0,0-1.43-.73,2,2,0,0,0,0,3.94,1.69,1.69,0,0,0,1.43-.74l1.16,1.09A3.15,3.15,0,0,1,409,18.39a3.44,3.44,0,0,1-3.59-3.28Q405.36,15,405.36,14.83Z"/>
        <path class="cls-18" d="M413.15,16.52V13H412V11.45h1.12V9.6h1.78v1.85h1.37V13h-1.37v3c0,.43.22.76.62.76a.9.9,0,0,0,.62-.21l.38,1.36a2.2,2.2,0,0,1-1.48.43,1.68,1.68,0,0,1-1.92-1.82Z"/>
        <path class="cls-18" d="M417.35,9.66a1.06,1.06,0,1,1,1.06,1.06,1.06,1.06,0,0,1-1.06-1.06Zm.2,8.53V11.42h1.78v6.77Z"/>
        <path class="cls-18" d="M420.62,14.83a3.58,3.58,0,1,1,3.6,3.56h0a3.43,3.43,0,0,1-3.57-3.28Q420.62,15,420.62,14.83Zm5.31,0a1.75,1.75,0,1,0-1.74,2,1.78,1.78,0,0,0,1.74-2Z"/>
        <path class="cls-18" d="M433.67,18.19V14.1a1.1,1.1,0,0,0-1.25-1.26,2,2,0,0,0-1.54.78v4.57H429.1V11.42h1.78v.87a3.17,3.17,0,0,1,2.37-1,2,2,0,0,1,2.21,2.16v4.74Z"/>
      </g>
      <path class="cls-19" d="M106.24,26.19c187.49,0,516.59,52,516.59,119"/>
      <g>
        <path class="cls-13" d="M66.13,131.32v-8l-2.75,1.18a2.94,2.94,0,0,1-2.31,0L55.26,122v3.62a3.18,3.18,0,0,0,2.29,3,16.7,16.7,0,0,0,7.28.46v2.44a.87.87,0,0,0,1.67.34A.72.72,0,0,1,66.13,131.32Z"/>
        <path class="cls-13" d="M67.55,128.41a3.18,3.18,0,0,0,1.61-2.76V122l-1.61.69Z"/>
        <path class="cls-13" d="M73.91,117.72l-10.73-4.89a2.31,2.31,0,0,0-1.91,0l-10.72,4.89a.44.44,0,0,0,0,.81l10.76,4.66a2.31,2.31,0,0,0,1.82,0l3.07-1.32h0l-1-.44a.54.54,0,1,1,.4-1h0L67,121a.51.51,0,0,1,.31.4L74,118.54a.44.44,0,0,0,0-.82Z"/>
      </g>
      <circle class="cls-20" cx="621.83" cy="140.07" r="13.01"/>
      <g>
        <path class="cls-17" d="M6.42,85.71V80.29H4.47V79H9.79v1.25H7.85v5.42Z"/>
        <path class="cls-17" d="M9.38,83.29a2.55,2.55,0,1,1,2.56,2.54h0a2.44,2.44,0,0,1-2.55-2.33Q9.38,83.4,9.38,83.29Zm3.79,0a1.25,1.25,0,1,0-1.24,1.41,1.27,1.27,0,0,0,1.25-1.29S13.18,83.33,13.17,83.29Z"/>
        <path class="cls-17" d="M15.7,84.5V82h-.8V80.88h.8V79.56H17v1.32h1V82H17v2.2c0,.31.16.54.44.54a.64.64,0,0,0,.44-.15l.27,1a1.57,1.57,0,0,1-1.06.31A1.2,1.2,0,0,1,15.7,84.5Z"/>
        <path class="cls-17" d="M21.72,85.71v-.52a2,2,0,0,1-1.53.63,1.6,1.6,0,0,1-1.64-1.56s0,0,0-.07A1.53,1.53,0,0,1,20,82.63h.18a2,2,0,0,1,1.53.59v-.61c0-.49-.42-.81-1.06-.81a2,2,0,0,0-1.39.57l-.5-.89a3.11,3.11,0,0,1,2.11-.76c1.11,0,2.12.44,2.12,1.83v3.12Zm0-1.16V84a1.28,1.28,0,0,0-1-.43c-.5,0-.91.27-.91.73s.41.72.91.72a1.27,1.27,0,0,0,1-.42Z"/>
        <path class="cls-17" d="M24.25,85.71V79h1.3v6.67Z"/>
        <path class="cls-17" d="M6.16,97.71V91H8.79a3.34,3.34,0,0,1,.37,6.67h-3Zm4.72-3.34A2,2,0,0,0,9,92.29H7.55v4.17H8.76a2,2,0,0,0,2.11-2.09Z"/>
        <path class="cls-17" d="M13,95.29a2.46,2.46,0,0,1,2.39-2.53h.11a2.41,2.41,0,0,1,2.42,2.65v.3H14.33a1.29,1.29,0,0,0,1.39,1.08A2,2,0,0,0,17,96.32l.57.84a3,3,0,0,1-2,.67A2.45,2.45,0,0,1,13,95.51Q13,95.4,13,95.29Zm2.5-1.49a1.11,1.11,0,0,0-1.18,1H16.7a1.11,1.11,0,0,0-1.21-1Z"/>
        <path class="cls-17" d="M18.84,97.71V91h1.27V93.5a1.83,1.83,0,0,1,1.49-.74,2.57,2.57,0,0,1,0,5.07,1.88,1.88,0,0,1-1.49-.74v.62Zm2.37-1a1.42,1.42,0,0,0,0-2.81,1.42,1.42,0,0,0-1.1.56v1.73a1.43,1.43,0,0,0,1.09.51Z"/>
        <path class="cls-17" d="M25,96.5V94h-.8V92.88H25V91.56h1.27v1.32h1V94h-1v2.2c0,.31.16.54.44.54a.64.64,0,0,0,.44-.15l.27,1a1.57,1.57,0,0,1-1.06.31A1.2,1.2,0,0,1,25,96.5Z"/>
      </g>
      <g>
        <path class="cls-18" d="M634.94,122v-6.67h2.61a3.34,3.34,0,0,1,.37,6.67h-3Zm4.72-3.34a2,2,0,0,0-1.92-2.08h-1.39v4.17h1.2a2,2,0,0,0,2.1-1.9q0-.1,0-.19Z"/>
        <path class="cls-18" d="M641.78,119.61a2.46,2.46,0,0,1,2.39-2.53h.11a2.41,2.41,0,0,1,2.42,2.65v.3h-3.59a1.29,1.29,0,0,0,1.39,1.08,2,2,0,0,0,1.28-.47l.57.84a3,3,0,0,1-2,.67,2.44,2.44,0,0,1-2.57-2.3Q641.78,119.73,641.78,119.61Zm2.5-1.49a1.11,1.11,0,0,0-1.18,1h2.38a1.11,1.11,0,0,0-1.21-1Z"/>
        <path class="cls-18" d="M647.62,122v-6.67h1.27v2.46a1.83,1.83,0,0,1,1.49-.74,2.25,2.25,0,0,1,2.14,2.53,2.33,2.33,0,0,1-2.15,2.58,1.88,1.88,0,0,1-1.49-.74v.62Zm2.37-1a1.41,1.41,0,1,0-1.1-2.25v1.71A1.43,1.43,0,0,0,650,121Z"/>
        <path class="cls-18" d="M653.73,120.82v-2.51h-.8v-1.12h.8v-1.32H655v1.32h1v1.11h-1v2.17c0,.31.16.54.44.54a.64.64,0,0,0,.44-.15l.27,1a1.57,1.57,0,0,1-1.06.31,1.2,1.2,0,0,1-1.36-1.35Z"/>
        <path class="cls-18" d="M659.45,122v-6.67h3.1a2.15,2.15,0,0,1,.29,4.29h-2V122Zm3.91-4.52a.9.9,0,0,0-.89-.91h-1.61v1.79h1.5a.9.9,0,0,0,1-.89Z"/>
        <path class="cls-18" d="M668.37,122v-.51a2,2,0,0,1-1.53.63,1.6,1.6,0,0,1-1.67-1.53s0,0,0-.07a1.53,1.53,0,0,1,1.49-1.57h.18a2,2,0,0,1,1.53.59V119c0-.49-.42-.81-1.06-.81a2,2,0,0,0-1.39.57l-.5-.89a3.12,3.12,0,0,1,2.11-.76c1.11,0,2.12.44,2.12,1.83V122Zm0-1.16v-.6a1.28,1.28,0,0,0-1-.43c-.5,0-.91.27-.91.73s.41.72.91.72a1.27,1.27,0,0,0,1-.42Z"/>
        <path class="cls-18" d="M670.78,115.92a.76.76,0,1,1,.76.76A.75.75,0,0,1,670.78,115.92Zm.12,6.11v-4.84h1.27V122Z"/>
        <path class="cls-18" d="M676.75,122v-.62a1.86,1.86,0,0,1-1.49.74c-1.21,0-2.14-.92-2.14-2.54s.91-2.53,2.14-2.53a1.83,1.83,0,0,1,1.49.74v-2.46H678V122Zm0-1.56v-1.71a1.38,1.38,0,0,0-1.09-.55,1.42,1.42,0,0,0,0,2.81A1.38,1.38,0,0,0,676.75,120.47Z"/>
      </g>
    </g>
  </g>
</svg>
