<?xml version="1.0" encoding="UTF-8" standalone="no"?>
<svg width="19px" height="18px" viewBox="0 0 19 18" version="1.1" xmlns="http://www.w3.org/2000/svg" xmlns:xlink="http://www.w3.org/1999/xlink">
    <!-- Generator: Sketch 46.2 (44496) - http://www.bohemiancoding.com/sketch -->
    <title>Shape</title>
    <desc>Created with Sketch.</desc>
    <defs></defs>
    <g id="Symbols" stroke="none" stroke-width="1" fill="none" fill-rule="evenodd">
        <g id="footer" transform="translate(-1171.000000, -65.000000)" fill-rule="nonzero" fill="#162F49">
            <g id="social">
                <g transform="translate(1171.000000, 65.000000)">
                    <path d="M3.79065672,1.90294012 C3.79065672,2.95412425 2.94575131,3.80588025 1.90294012,3.80588025 C0.860128935,3.80588025 0.015223521,2.95412425 0.015223521,1.90294012 C0.015223521,0.852517175 0.860128935,0 1.90294012,0 C2.94575131,0 3.79065672,0.852517175 3.79065672,1.90294012 Z M3.80588025,5.32823234 L0,5.32823234 L0,17.5070491 L3.80588025,17.5070491 L3.80588025,5.32823234 Z M9.88158747,5.32823234 L6.10006486,5.32823234 L6.10006486,17.5070491 L9.88234864,17.5070491 L9.88234864,11.1139315 C9.88234864,7.55923934 14.471479,7.26847009 14.471479,11.1139315 L14.471479,17.5070491 L18.2682252,17.5070491 L18.2682252,9.79557457 C18.2682252,3.79750731 11.4770125,4.01596483 9.88158747,6.96856673 L9.88158747,5.32823234 Z" id="Shape"></path>
                </g>
            </g>
        </g>
    </g>
</svg>