<?xml version="1.0" encoding="UTF-8" standalone="no"?>
<svg width="127px" height="36px" viewBox="0 0 127 36" version="1.1" xmlns="http://www.w3.org/2000/svg" xmlns:xlink="http://www.w3.org/1999/xlink">
    <!-- Generator: Sketch 46.2 (44496) - http://www.bohemiancoding.com/sketch -->
    <title>logo</title>
    <desc>Created with Sketch.</desc>
    <defs></defs>
    <g id="Page-1" stroke="none" stroke-width="1" fill="none" fill-rule="evenodd">
        <g id="homepage" transform="translate(-118.000000, -44.000000)" fill="#FFFFFF">
            <g id="header" transform="translate(118.000000, 3.000000)">
                <g id="logo" transform="translate(0.000000, 41.000000)">
                    <path d="M52.4724436,4.68360967 C51.346694,2.96517557 49.2191089,2.00308628 47.1938116,2.00308628 C43.7563589,2.00308628 40.87126,4.9904729 40.87126,8.30459581 C40.87126,11.8443362 43.8586466,14.7294351 47.2955148,14.7294351 C49.3418542,14.7294351 51.346694,13.6247275 52.5332318,11.9670815 L54.2107508,11.9670815 C52.9014677,14.4839445 50.1402831,16.1819211 47.2955148,16.1819211 C42.8562267,16.1819211 39.3574014,12.7649259 39.3574014,8.30459581 C39.3574014,4.00851056 42.8766843,0.550600313 47.1727695,0.550600313 C48.7070857,0.550600313 50.2419863,0.959751289 51.5308119,1.81955284 C52.4929012,2.4332793 53.7408117,3.57890204 54.1499626,4.68360967 L52.4724436,4.68360967" id="Fill-1"></path>
                    <path d="M65.1754124,9.47126059 L62.2704405,2.53498255 L59.323969,9.47126059 L65.1754124,9.47126059 Z M61.431681,0.796090899 L63.1092,0.796090899 L69.5948275,15.915973 L67.9582236,15.915973 L65.7692659,10.8419164 L58.7307001,10.8419164 L56.5417424,15.915973 L54.9051384,15.915973 L61.431681,0.796090899 L61.431681,0.796090899 Z" id="Fill-2"></path>
                    <path d="M75.8945835,8.44838315 C76.958376,8.44838315 78.0227531,8.40688355 78.9433428,7.83465669 C79.8031443,7.30276042 80.2730835,6.29975602 80.2730835,5.31779368 C80.2730835,4.00851056 79.5775268,2.98563312 78.390989,2.49406745 C77.3885691,2.06504343 76.2838614,2.16674667 75.2399419,2.16674667 L73.2964748,2.16674667 L73.2964748,8.44838315 L75.8945835,8.44838315 Z M71.7826162,0.796090899 L75.7519652,0.796090899 C77.163536,0.816548447 78.5751069,0.837005996 79.8031443,1.61439285 C81.1124275,2.4332793 81.7869421,3.82380812 81.7869421,5.33825123 C81.7869421,6.72936455 81.2147152,7.99773257 80.0690925,8.83707658 C78.9030122,9.69629363 77.5522295,9.81903892 76.1406586,9.81903892 L73.2964748,9.81903892 L73.2964748,15.915973 L71.7826162,15.915973 L71.7826162,0.796090899 L71.7826162,0.796090899 Z" id="Fill-3"></path>
                    <polygon id="Fill-4" points="84.3026361 15.915973 85.8164947 15.915973 85.8164947 0.796090899 84.3026361 0.796090899"></polygon>
                    <polyline id="Fill-5" points="91.4014055 2.16674667 87.9230377 2.16674667 87.9230377 0.796090899 96.3527168 0.796090899 96.3527168 2.16674667 92.9152641 2.16674667 92.9152641 15.915973 91.4014055 15.915973 91.4014055 2.16674667"></polyline>
                    <path d="M105.742732,9.47126059 L102.83776,2.53498255 L99.8912882,9.47126059 L105.742732,9.47126059 Z M101.998416,0.796090899 L103.675935,0.796090899 L110.162147,15.915973 L108.524958,15.915973 L106.336001,10.8419164 L99.2980193,10.8419164 L97.1090616,15.915973 L95.4718732,15.915973 L101.998416,0.796090899 L101.998416,0.796090899 Z" id="Fill-6"></path>
                    <polyline id="Fill-7" points="111.9402 0.796090899 113.454643 0.796090899 113.454643 14.5447327 119.715238 14.5447327 119.715238 15.915973 111.9402 15.915973 111.9402 0.796090899"></polyline>
                    <path d="M39.4479991,27.3739538 C39.4479991,22.8692015 42.8538887,19.7923862 47.2487547,19.7923862 C50.4798784,19.7923862 52.3473603,21.5505664 53.3801743,23.3742107 L50.6996509,24.6928459 C50.084171,23.5063081 48.7655358,22.5611693 47.2487547,22.5611693 C44.5898578,22.5611693 42.6563272,24.6051707 42.6563272,27.3739538 C42.6563272,30.1427369 44.5898578,32.1867383 47.2487547,32.1867383 C48.7655358,32.1867383 50.084171,31.2632261 50.6996509,30.0550617 L53.3801743,31.3514858 C52.3257338,33.1757146 50.4798784,34.9555214 47.2487547,34.9555214 C42.8538887,34.9555214 39.4479991,31.878706 39.4479991,27.3739538" id="Fill-12"></path>
                    <polyline id="Fill-13" points="65.5559229 34.6913267 65.5559229 28.5382806 58.6336728 28.5382806 58.6336728 34.6913267 55.5130199 34.6913267 55.5130199 20.0337853 58.6336728 20.0337853 58.6336728 25.7917085 65.5559229 25.7917085 65.5559229 20.0337853 68.6987868 20.0337853 68.6987868 34.6913267 65.5559229 34.6913267"></polyline>
                    <path d="M82.8074815,27.3739538 C82.8074815,24.6273817 81.0493013,22.5611693 78.3465669,22.5611693 C75.6438324,22.5611693 73.9078633,24.6273817 73.9078633,27.3739538 C73.9078633,30.0988993 75.6438324,32.1867383 78.3465669,32.1867383 C81.0493013,32.1867383 82.8074815,30.0988993 82.8074815,27.3739538 Z M70.6989506,27.3739538 C70.6989506,22.9568768 73.9294898,19.7923862 78.3465669,19.7923862 C82.7858549,19.7923862 86.0163941,22.9568768 86.0163941,27.3739538 C86.0163941,31.7910308 82.7858549,34.9555214 78.3465669,34.9555214 C73.9294898,34.9555214 70.6989506,31.7910308 70.6989506,27.3739538 L70.6989506,27.3739538 Z" id="Fill-14"></path>
                    <polygon id="Fill-15" points="88.478314 34.6913267 91.598967 34.6913267 91.598967 20.0337853 88.478314 20.0337853"></polygon>
                    <path d="M94.0603023,27.3739538 C94.0603023,22.8692015 97.4667765,19.7923862 101.862227,19.7923862 C105.092182,19.7923862 106.960248,21.5505664 107.993062,23.3742107 L105.311954,24.6928459 C104.696474,23.5063081 103.378424,22.5611693 101.862227,22.5611693 C99.2027456,22.5611693 97.2686305,24.6051707 97.2686305,27.3739538 C97.2686305,30.1427369 99.2027456,32.1867383 101.862227,32.1867383 C103.378424,32.1867383 104.696474,31.2632261 105.311954,30.0550617 L107.993062,31.3514858 C106.938037,33.1757146 105.092182,34.9555214 101.862227,34.9555214 C97.4667765,34.9555214 94.0603023,31.878706 94.0603023,27.3739538" id="Fill-16"></path>
                    <polyline id="Fill-17" points="109.686363 34.6913267 109.686363 20.0337853 120.058924 20.0337853 120.058924 22.7809418 112.806431 22.7809418 112.806431 25.8793837 119.9052 25.8793837 119.9052 28.6259558 112.806431 28.6259558 112.806431 31.9447547 120.058924 31.9447547 120.058924 34.6913267 109.686363 34.6913267"></polyline>
                    <path d="M123.086642,0.77972486 L123.816099,0.77972486 L124.820273,3.11656143 L125.810418,0.77972486 L126.54046,0.77972486 L126.54046,3.89570179 L125.999797,3.89570179 L125.999797,1.45365497 L125.003222,3.89570179 L124.62388,3.89570179 L123.626721,1.467683 L123.626721,3.89570179 L123.086642,3.89570179 L123.086642,0.77972486 Z M121.345996,1.26427652 L120.60894,1.26427652 L120.60894,0.77972486 L122.665801,0.77972486 L122.665801,1.26427652 L121.921146,1.26427652 L121.921146,3.89570179 L121.345996,3.89570179 L121.345996,1.26427652 L121.345996,1.26427652 Z" id="Fill-18"></path>
                    <g id="Group-3">
                        <polygon id="Fill-9" points="33.6088302 0.292250697 0 0.292250697 0 35.0700836 33.6088302 35.0700836 33.6088302 30.1018218 5.30902616 30.1018218 5.30902616 5.26051255 33.6088302 5.26051255"></polygon>
                        <path d="M33.6088302,8.42383409 L8.37765848,8.42383409 L8.37765848,26.9192117 L33.6088302,26.9192117 L33.6088302,21.6236291 L13.6872691,21.6236291 L13.6872691,13.7311067 L33.6088302,13.7311067 C33.6088302,13.7311067 33.6088302,8.46182668 33.6088302,8.42383409" id="Fill-11"></path>
                    </g>
                </g>
            </g>
        </g>
    </g>
</svg>